{
.appVersion = "3343";
.formatVersion = 3;
customParameters = (
{
name = panose;
value = (
0,
0,
0,
0,
0,
0,
0,
0,
0,
0
);
},
{
name = unicodeRanges;
value = (
0,
1,
2,
3,
4,
5,
6,
7,
9,
29,
31,
32,
33,
35,
36,
37,
38,
42,
45,
47,
60,
62
);
},
{
name = fsType;
value = (
);
},
{
name = glyphOrder;
value = (
.notdef,
CR,
space,
A,
Aacute,
Abreve,
uni01CD,
Acircumflex,
Adieresis,
Agrave,
Amacron,
Aogonek,
Aring,
Atilde,
AE,
AEacute,
B,
C,
Cacute,
Ccaron,
Ccedilla,
Cdotaccent,
D,
Dcaron,
Dcroat,
Eth,
E,
Eacute,
Ebreve,
Ecaron,
Ecircumflex,
Edieresis,
Edotaccent,
Egrave,
Emacron,
Eogonek,
uni018E,
uni1EBC,
uni018F,
F,
G,
Gbreve,
uni0122,
Gdotaccent,
H,
Hbar,
I,
IJ,
Iacute,
Ibreve,
Icircumflex,
Idieresis,
Idotaccent,
Igrave,
Imacron,
Iogonek,
Itilde,
J,
uni004A0301,
K,
uni0136,
L,
Lacute,
Lcaron,
uni013B,
Ldot,
Lslash,
M,
N,
Nacute,
Ncaron,
uni0145,
Ntilde,
Eng,
O,
Oacute,
Obreve,
Ocircumflex,
Odieresis,
Ograve,
Ohungarumlaut,
Omacron,
Oslash,
Otilde,
OE,
P,
Thorn,
Q,
R,
Racute,
Rcaron,
uni0156,
S,
Sacute,
Scaron,
Scedilla,
uni0218,
uni1E9E,
T,
Tcaron,
uni0162,
uni021A,
U,
Uacute,
Ubreve,
Ucircumflex,
Udieresis,
Ugrave,
Uhungarumlaut,
Umacron,
Uogonek,
Uring,
Utilde,
V,
W,
Wacute,
Wcircumflex,
Wdieresis,
Wgrave,
X,
Y,
Yacute,
Ycircumflex,
Ydieresis,
Ygrave,
uni1EF8,
Z,
Zacute,
Zcaron,
Zdotaccent,
uniA78B,
a,
aacute,
abreve,
uni01CE,
acircumflex,
adieresis,
agrave,
amacron,
aogonek,
aring,
atilde,
ae,
aeacute,
b,
c,
cacute,
ccaron,
ccedilla,
cdotaccent,
d,
dcaron,
dcroat,
eth,
e,
eacute,
ebreve,
ecaron,
ecircumflex,
edieresis,
edotaccent,
egrave,
emacron,
eogonek,
uni1EBD,
uni0259,
f,
g,
gbreve,
uni0123,
gdotaccent,
h,
hbar,
i,
dotlessi,
iacute,
ibreve,
icircumflex,
idieresis,
i.loclTRK,
igrave,
imacron,
iogonek,
itilde,
ij,
j,
uni0237,
uni006A0301,
k,
uni0137,
l,
lacute,
lcaron,
uni013C,
ldot,
lslash,
m,
n,
nacute,
ncaron,
uni0146,
ntilde,
eng,
o,
oacute,
obreve,
ocircumflex,
odieresis,
ograve,
ohungarumlaut,
omacron,
oslash,
otilde,
oe,
p,
thorn,
q,
r,
racute,
rcaron,

glyphs = (
{
glyphname = .notdef;
layers = (
{
layerId = m01;
shapes = (
{
closed = 1;
nodes = (
(30,0,l),
(431,0,l),
(555,700,l),
(154,700,l)
);
},
{
closed = 1;
nodes = (
(110,57,l),
(214,643,l),
(475,643,l),
(371,57,l)
);
}
);
userData = {
assembly = "NPUSHB[ ]	/* 39 values pushed */
4 1 1 0 2 3 1 2 103 0 3 0 0 3 87 0 3 3 0 95 0 0 3 0 79 0 0 7 6 5 4 0 3 0 3 17 5 6 23
CALL[ ]	/* CallFunction */";
};
width = 549;
}
);
note = .notdef;
},
{
glyphname = A;
kernLeft = A;
kernRight = A;
layers = (
{
anchors = (
{
name = bottom;
pos = (288,0);
},
{
name = ogonek;
pos = (590,0);
},
{
name = top;
pos = (412,700);
}
);
layerId = m01;
shapes = (
{
closed = 1;
nodes = (
(76,0,l),
(172,180,l),
(470,180,l),
(503,0,l),
(590,0,l),
(457,700,l),
(368,700,l),
(-14,0,l)
);
},
{
closed = 1;
nodes = (
(394,600,l),
(458,246,l),
(207,246,l)
);
}
);
userData = {
assembly = "NPUSHB[ ]	/* 40 values pushed */
9 1 4 0 1 76 5 1 4 0 2 1 4 2 104 0 0 0 33 77 3 1 1 1 34 1 78 8 8 8 10 8 10 17 17 17 16 6 8 26
CALL[ ]	/* CallFunction */";
};
width = 664;
}
);
note = A;
unicode = 65;
},
{
glyphname = Aogonek;
kernLeft = A;
layers = (
{
anchors = (
{
name = bottom;
pos = (288,0);
},
{
name = ogonek;
pos = (590,0);
},
{
name = top;
pos = (412,700);
}
);
layerId = m01;
shapes = (
{
closed = 1;
nodes = (
(76,0,l),
(172,180,l),
(470,180,l),
(501,12,l),
(436,-17,o),
(379,-86,o),
(379,-127,qs),
(379,-164,o),
(437,-203,o),
(482,-203,qs),
(521,-203,o),
(560,-190,q),
(569,-134,l),
(533,-149,o),
(502,-149,qs),
(478,-149,o),
(449,-128,o),
(449,-109,qs),
(449,-63,o),
(527,-28,qs),
(590,0,l),
(457,700,l),
(368,700,l),
(-14,0,l)
);
},
{
closed = 1;
nodes = (
(394,600,l),
(458,246,l),
(207,246,l)
);
}
);
userData = {
assembly = "NPUSHB[ ]	/* 19 values pushed */
25 1 5 0 19 1 4 3 10 1 1 4 3 76 2 1 4 1 75
MPPEM[ ]	/* MeasurePixelPerEm */
PUSHB[ ]	/* 1 value pushed */
29
LT[ ]	/* LessThan */
IF[ ]	/* If */
NPUSHB[ ]	/* 30 values pushed */
6 1 5 0 3 4 5 3 104 0 0 0 33 77 0 4 4 34 77 0 1 1 2 97 0 2 2 38 2 78
ELSE[ ]	/* Else */
NPUSHB[ ]	/* 27 values pushed */
6 1 5 0 3 4 5 3 104 0 1 0 2 1 2 101 0 0 0 33 77 0 4 4 34 4 78
EIF[ ]	/* EndIf */
NPUSHB[ ]	/* 14 values pushed */
24 24 24 26 24 26 17 22 35 38 16 7 8 27
CALL[ ]	/* CallFunction */";
};
width = 664;
}
);
note = Aogonek;
unicode = 260;
},
{
glyphname = AE;
kernLeft = AE;
layers = (
{
anchors = (
{
name = bottom;
pos = (415,0);
},
{
name = top;
pos = (719,700);
}
);
layerId = m01;
shapes = (
{
closed = 1;
nodes = (
(78,0,l),
(197,159,l),
(465,159,l),
(437,0,l),
(810,0,l),
(822,67,l),
(534,67,l),
(578,320,l),
(837,320,l),
(848,386,l),
(589,386,l),
(633,633,l),
(922,633,l),
(934,700,l),
(509,700,l),
(-14,0,l)
);
},
{
closed = 1;
nodes = (
(549,631,l),
(477,226,l),
(246,226,l)
);
}
);
userData = {
assembly = "NPUSHB[ ]	/* 62 values pushed */
17 1 2 1 1 76 0 2 0 3 8 2 3 103 9 1 8 0 6 4 8 6 103 0 1 1 0 95 0 0 0 33 77 0 4 4 5 95 7 1 5 5 34 5 78 16 16 16 18 16 18 17 17 17 17 17 17 17 16 10 8 30
CALL[ ]	/* CallFunction */";
};
width = 917;
}
);
note = AE;
unicode = 198;
},
{
glyphname = B;
kernRight = B;
layers = (
{
layerId = m01;
shapes = (
{
closed = 1;
nodes = (
(295,0,ls),
(374,0,o),
(493,57,o),
(556,160,o),
(556,225,qs),
(556,277,o),
(499,359,o),
(445,377,q),
(505,394,o),
(583,488,o),
(583,548,qs),
(583,616,o),
(489,700,o),
(396,700,qs),
(155,700,l),
(31,0,l)
);
},
{
closed = 1;
nodes = (
(128,70,l),
(175,339,l),
(327,339,ls),
(398,339,o),
(472,279,o),
(472,223,qs),
(472,149,o),
(374,70,o),
(282,70,qs)
);
},
{
closed = 1;
nodes = (
(187,406,l),
(226,630,l),
(374,630,ls),
(438,630,o),
(495,577,o),
(495,531,qs),
(495,472,o),
(409,406,o),
(338,406,qs)
);
}
);
userData = {
assembly = "NPUSHB[ ]	/* 57 values pushed */
7 1 2 5 1 76 7 1 5 0 2 3 5 2 103 0 4 4 0 95 0 0 0 33 77 6 1 3 3 1 95 0 1 1 34 1 78 25 25 16 16 25 33 25 32 31 29 16 24 16 23 37 43 32 8 8 25
CALL[ ]	/* CallFunction */";
};
width = 609;
}
);
note = B;
unicode = 66;
},
{
glyphname = C;
kernLeft = C;
kernRight = B;
layers = (
{
anchors = (
{
name = bottom;
pos = (317,0);
},
{
name = top;
pos = (441,700);
}
);
layerId = m01;
shapes = (
{
closed = 1;
nodes = (
(458,-12,o),
(628,100,o),
(667,203,q),
(572,203,l),
(545,136,o),
(433,62,o),
(351,62,qs),
(255,62,o),
(147,174,o),
(147,275,qs),
(147,373,o),
(223,539,o),
(362,638,o),
(451,638,qs),
(533,638,o),
(621,562,o),
(623,494,q),
(718,494,l),
(715,597,o),
(582,712,o),
(463,712,qs),
(347,712,o),
(163,593,o),
(59,390,o),
(59,268,qs),
(59,195,o),
(116,68,o),
(241,-12,o),
(339,-12,qs)
);
}
);
userData = {
assembly = "NPUSHB[ ]	/* 51 values pushed */
0 1 2 4 2 1 4 128 0 4 3 2 4 3 126 0 2 2 0 97 0 0 0 39 77 0 3 3 5 97 6 1 5 5 40 5 78 0 0 0 28 0 27 18 37 34 18 38 7 8 27
CALL[ ]	/* CallFunction */";
};
width = 722;
}
);
note = C;
unicode = 67;
},
{
glyphname = Ccedilla;
kernLeft = C;
kernRight = Cacute;
layers = (
{
anchors = (
{
name = bottom;
pos = (272,-259);
},
{
name = top;
pos = (441,700);
}
);
layerId = m01;
shapes = (
{
closed = 1;
nodes = (
(310,-259,ls),
(369,-259,o),
(449,-194,o),
(449,-140,qs),
(449,-102,o),
(387,-62,o),
(335,-63,q),
(344,-12,l),
(461,-11,o),
(629,102,o),
(667,203,q),
(572,203,l),
(545,136,o),
(433,62,o),
(351,62,qs),
(255,62,o),
(147,174,o),
(147,275,qs),
(147,373,o),
(223,539,o),
(362,638,o),
(451,638,qs),
(533,638,o),
(621,562,o),
(623,494,q),
(718,494,l),
(715,597,o),
(582,712,o),
(463,712,qs),
(347,712,o),
(163,593,o),
(59,390,o),
(59,268,qs),
(59,164,o),
(171,6,o),
(288,-9,q),
(270,-113,l),
(319,-113,ls),
(380,-113,o),
(380,-149,qs),
(380,-177,o),
(340,-206,o),
(303,-206,qs),
(211,-206,l),
(202,-259,l)
);
}
);
userData = {
assembly = "NPUSHB[ ]	/* 71 values pushed */
8 1 7 5 1 76 0 3 4 6 4 3 6 128 0 6 5 4 6 5 126 0 8 0 1 0 8 1 105 0 0 0 9 0 9 99 0 4 4 2 97 0 2 2 39 77 0 5 5 7 97 0 7 7 40 7 78 44 42 17 18 18 37 34 18 39 35 32 10 8 31
CALL[ ]	/* CallFunction */";
};
width = 722;
}
);
note = Ccedilla;
unicode = 199;
},
{
glyphname = D;
kernRight = B;
layers = (
{
anchors = (
{
name = bottom;
pos = (307,0);
},
{
name = top;
pos = (431,700);
}
);
layerId = m01;
shapes = (
{
closed = 1;
nodes = (
(154,700,l),
(31,0,l),
(246,0,ls),
(364,0,o),
(559,95,o),
(676,283,o),
(676,417,qs),
(676,555,o),
(525,700,o),
(369,700,qs)
);
},
{
closed = 1;
nodes = (
(127,70,l),
(226,630,l),
(355,630,ls),
(478,630,o),
(589,521,o),
(589,411,qs),
(589,317,o),
(519,163,o),
(369,70,o),
(257,70,qs)
);
}
);
userData = {
assembly = "NPUSHB[ ]	/* 41 values pushed */
0 2 2 1 95 4 1 1 1 33 77 5 1 3 3 0 95 0 0 0 34 0 78 10 10 0 0 10 19 10 18 17 15 0 9 0 8 37 6 8 23
CALL[ ]	/* CallFunction */";
};
width = 701;
}
);
note = D;
unicode = 68;
},
{
glyphname = Dcroat;
kernRight = B;
layers = (
{
layerId = m01;
shapes = (
{
closed = 1;
nodes = (
(46,0,l),
(261,0,ls),
(391,0,o),
(489,53,qs),
(586,107,o),
(691,295,o),
(691,417,qs),
(691,555,o),
(540,700,o),
(384,700,qs),
(169,700,l),
(114,387,l),
(27,387,l),
(14,311,l),
(101,311,l)
);
},
{
closed = 1;
nodes = (
(143,70,l),
(185,311,l),
(386,311,l),
(399,387,l),
(198,387,l),
(241,630,l),
(370,630,ls),
(493,630,o),
(604,521,o),
(604,411,qs),
(604,308,o),
(565,231,qs),
(525,153,o),
(376,70,o),
(272,70,qs)
);
}
);
userData = {
assembly = "NPUSHB[ ]	/* 57 values pushed */
5 1 0 6 8 2 3 7 0 3 103 0 4 4 1 95 0 1 1 33 77 9 1 7 7 2 95 0 2 2 34 2 78 15 15 0 0 15 29 15 28 27 26 25 24 23 21 0 14 0 14 38 33 17 10 8 25
CALL[ ]	/* CallFunction */";
};
width = 716;
}
);
note = Dcroat;
unicode = 272;
},
{
glyphname = Eth;
kernRight = B;
layers = (
{
layerId = m01;
shapes = (
{
closed = 1;
nodes = (
(46,0,l),
(261,0,ls),
(391,0,o),
(489,53,qs),
(586,107,o),
(691,295,o),
(691,417,qs),
(691,555,o),
(540,700,o),
(384,700,qs),
(169,700,l),
(114,387,l),
(27,387,l),
(14,311,l),
(101,311,l)
);
},
{
closed = 1;
nodes = (
(143,70,l),
(185,311,l),
(386,311,l),
(399,387,l),
(198,387,l),
(241,630,l),
(370,630,ls),
(493,630,o),
(604,521,o),
(604,411,qs),
(604,308,o),
(565,231,qs),
(525,153,o),
(376,70,o),
(272,70,qs)
);
}
);
userData = {
assembly = "NPUSHB[ ]	/* 57 values pushed */
5 1 0 6 8 2 3 7 0 3 103 0 4 4 1 95 0 1 1 33 77 9 1 7 7 2 95 0 2 2 34 2 78 15 15 0 0 15 29 15 28 27 26 25 24 23 21 0 14 0 14 38 33 17 10 8 25
CALL[ ]	/* CallFunction */";
};
width = 716;
}
);
note = Eth;
unicode = 208;
},
{
glyphname = E;
kernRight = E;
layers = (
{
anchors = (
{
name = bottom;
pos = (227,0);
},
{
name = ogonek;
pos = (435,0);
},
{
name = top;
pos = (351,700);
}
);
layerId = m01;
shapes = (
{
closed = 1;
nodes = (
(435,0,l),
(447,69,l),
(126,69,l),
(174,336,l),
(451,336,l),
(463,404,l),
(186,404,l),
(226,631,l),
(547,631,l),
(559,700,l),
(154,700,l),
(30,0,l)
);
}
);
userData = {
assembly = "NPUSHB[ ]	/* 38 values pushed */
0 2 0 3 4 2 3 103 0 1 1 0 95 0 0 0 33 77 0 4 4 5 95 0 5 5 34 5 78 17 17 17 17 17 16 6 8 28
CALL[ ]	/* CallFunction */";
};
width = 542;
}
);
note = E;
unicode = 69;
},
{
glyphname = Eogonek;
layers = (
{
anchors = (
{
name = bottom;
pos = (227,0);
},
{
name = ogonek;
pos = (435,0);
},
{
name = top;
pos = (351,700);
}
);
layerId = m01;
shapes = (
{
closed = 1;
nodes = (
(322,0,l),
(269,-27,o),
(224,-90,o),
(224,-127,qs),
(224,-164,o),
(282,-203,o),
(327,-203,qs),
(366,-203,o),
(405,-190,q),
(414,-134,l),
(378,-149,o),
(347,-149,qs),
(323,-149,o),
(294,-128,o),
(294,-109,qs),
(294,-63,o),
(372,-28,qs),
(435,0,l),
(447,69,l),
(126,69,l),
(174,336,l),
(451,336,l),
(463,404,l),
(186,404,l),
(226,631,l),
(547,631,l),
(559,700,l),
(154,700,l),
(30,0,l)
);
}
);
userData = {
assembly = "PUSHB[ ]	/* 6 values pushed */
18 1 5 7 1 76
MPPEM[ ]	/* MeasurePixelPerEm */
PUSHB[ ]	/* 1 value pushed */
29
LT[ ]	/* LessThan */
IF[ ]	/* If */
NPUSHB[ ]	/* 39 values pushed */
0 2 0 3 4 2 3 103 0 1 1 0 95 0 0 0 33 77 0 4 4 7 95 0 7 7 34 77 0 5 5 6 97 0 6 6 38 6 78
ELSE[ ]	/* Else */
NPUSHB[ ]	/* 36 values pushed */
0 2 0 3 4 2 3 103 0 5 0 6 5 6 101 0 1 1 0 95 0 0 0 33 77 0 4 4 7 95 0 7 7 34 7 78
EIF[ ]	/* EndIf */
NPUSHB[ ]	/* 11 values pushed */
21 35 38 17 17 17 17 16 8 8 30
CALL[ ]	/* CallFunction */";
};
width = 542;
}
);
note = Eogonek;
unicode = 280;
},
{
glyphname = uni018E;
layers = (
{
layerId = m01;
shapes = (
{
closed = 1;
nodes = (
(445,0,l),
(569,700,l),
(136,700,l),
(124,631,l),
(473,631,l),
(433,404,l),
(128,404,l),
(116,336,l),
(421,336,l),
(373,69,l),
(24,69,l),
(12,0,l)
);
}
);
userData = {
assembly = "NPUSHB[ ]	/* 38 values pushed */
0 2 0 1 0 2 1 103 0 3 3 4 95 0 4 4 33 77 0 0 0 5 95 0 5 5 34 5 78 17 17 17 17 17 16 6 8 28
CALL[ ]	/* CallFunction */";
};
width = 600;
}
);
note = uni018E;
unicode = (398,477);
},
{
glyphname = uni018F;
kernLeft = uni018F;
kernRight = B;
layers = (
{
layerId = m01;
shapes = (
{
closed = 1;
nodes = (
(444,-12,o),
(630,107,o),
(732,311,o),
(732,434,qs),
(732,507,o),
(671,633,o),
(545,712,o),
(452,712,qs),
(342,712,o),
(144,594,o),
(91,479,q),
(187,479,l),
(220,552,o),
(358,636,o),
(440,636,qs),
(532,636,o),
(642,522,o),
(642,425,qs),
(642,399,o),
(638,375,q),
(72,375,l),
(53,308,o),
(53,250,qs),
(53,180,o),
(113,60,o),
(236,-12,o),
(325,-12,qs)
);
},
{
closed = 1;
nodes = (
(245,64,o),
(139,162,o),
(139,248,qs),
(139,272,o),
(144,304,q),
(629,304,l),
(615,242,o),
(539,133,o),
(416,64,o),
(336,64,qs)
);
}
);
userData = {
assembly = "NPUSHB[ ]	/* 60 values pushed */
0 2 1 0 1 2 0 128 0 0 0 5 6 0 5 103 0 1 1 3 97 0 3 3 39 77 8 1 6 6 4 97 7 1 4 4 40 4 78 27 27 0 0 27 36 27 35 31 30 0 26 0 25 34 18 36 21 9 8 26
CALL[ ]	/* CallFunction */";
};
width = 756;
}
);
note = uni018F;
unicode = 399;
},
{
glyphname = F;
kernRight = F;
layers = (
{
layerId = m01;
shapes = (
{
closed = 1;
nodes = (
(114,0,l),
(172,327,l),
(453,327,l),
(465,395,l),
(184,395,l),
(226,631,l),
(558,631,l),
(570,700,l),
(154,700,l),
(30,0,l)
);
}
);
userData = {
assembly = "NPUSHB[ ]	/* 32 values pushed */
0 2 0 3 4 2 3 103 0 1 1 0 95 0 0 0 33 77 0 4 4 34 4 78 17 17 17 17 16 5 8 27
CALL[ ]	/* CallFunction */";
};
width = 530;
}
);
note = F;
unicode = 70;
},
{
glyphname = G;
kernLeft = C;
kernRight = G;
layers = (
{
anchors = (
{
name = bottom;
pos = (337,0);
},
{
name = top;
pos = (461,700);
}
);
layerId = m01;
shapes = (
{
closed = 1;
nodes = (
(421,-12,o),
(542,51,o),
(594,115,q),
(581,0,l),
(658,0,l),
(724,374,l),
(385,374,l),
(374,308,l),
(626,308,l),
(598,191,o),
(458,63,o),
(349,63,qs),
(256,63,o),
(149,182,o),
(149,284,qs),
(149,370,o),
(214,531,o),
(353,635,o),
(457,635,qs),
(540,635,o),
(633,562,o),
(636,498,q),
(733,498,l),
(728,598,o),
(585,712,o),
(466,712,qs),
(348,712,o),
(163,599,o),
(61,402,o),
(61,279,qs),
(61,205,o),
(119,72,o),
(241,-12,o),
(333,-12,qs)
);
}
);
userData = {
assembly = "PUSHB[ ]	/* 6 values pushed */
30 1 3 4 1 76
MPPEM[ ]	/* MeasurePixelPerEm */
PUSHB[ ]	/* 1 value pushed */
21
LT[ ]	/* LessThan */
IF[ ]	/* If */
NPUSHB[ ]	/* 39 values pushed */
0 1 2 5 2 1 5 128 0 5 0 4 3 5 4 103 0 2 2 0 97 0 0 0 39 77 0 3 3 6 97 8 7 2 6 6 34 6 78
ELSE[ ]	/* Else */
NPUSHB[ ]	/* 43 values pushed */
0 1 2 5 2 1 5 128 0 5 0 4 3 5 4 103 0 2 2 0 97 0 0 0 39 77 0 6 6 34 77 0 3 3 7 97 8 1 7 7 40 7 78
EIF[ ]	/* EndIf */
NPUSHB[ ]	/* 16 values pushed */
0 0 0 33 0 32 17 17 18 37 34 18 38 9 8 29
CALL[ ]	/* CallFunction */";
};
width = 761;
}
);
note = G;
unicode = 71;
},
{
glyphname = H;
layers = (
{
layerId = m01;
shapes = (
{
closed = 1;
nodes = (
(115,0,l),
(175,336,l),
(538,336,l),
(478,0,l),
(562,0,l),
(686,700,l),
(602,700,l),
(550,405,l),
(187,405,l),
(239,700,l),
(155,700,l),
(31,0,l)
);
}
);
userData = {
assembly = "NPUSHB[ ]	/* 30 values pushed */
0 1 0 4 3 1 4 104 2 1 0 0 33 77 5 1 3 3 34 3 78 17 17 17 17 17 16 6 8 28
CALL[ ]	/* CallFunction */";
};
width = 680;
}
);
note = H;
unicode = 72;
},
{
glyphname = Hbar;
layers = (
{
layerId = m01;
shapes = (
{
closed = 1;
nodes = (
(115,0,l),
(175,336,l),
(538,336,l),
(478,0,l),
(562,0,l),
(653,513,l),
(703,513,l),
(715,582,l),
(665,582,l),
(686,700,l),
(602,700,l),
(581,582,l),
(218,582,l),
(239,700,l),
(155,700,l),
(134,582,l),
(84,582,l),
(72,513,l),
(122,513,l),
(31,0,l)
);
},
{
closed = 1;
nodes = (
(206,513,l),
(569,513,l),
(550,405,l),
(187,405,l)
);
}
);
userData = {
assembly = "NPUSHB[ ]	/* 56 values pushed */
5 3 2 1 10 6 2 0 11 1 0 104 12 1 11 0 8 7 11 8 103 4 1 2 2 33 77 9 1 7 7 34 7 78 20 20 20 23 20 23 22 21 19 18 17 17 17 17 17 17 17 17 16 13 8 31
CALL[ ]	/* CallFunction */";
};
width = 681;
}
);
note = Hbar;
unicode = 294;
},
{
glyphname = I;
layers = (
{
anchors = (
{
name = bottom;
pos = (73,0);
},
{
name = ogonek;
pos = (115,0);
},
{
name = top;
pos = (197,700);
}
);
layerId = m01;
shapes = (
{
closed = 1;
nodes = (
(115,0,l),
(238,700,l),
(154,700,l),
(31,0,l)
);
}
);
userData = {
assembly = "NPUSHB[ ]	/* 16 values pushed */
0 0 0 33 77 0 1 1 34 1 78 17 16 2 8 24
CALL[ ]	/* CallFunction */";
};
width = 233;
}
);
note = I;
unicode = 73;
},
{
glyphname = Iogonek;
layers = (
{
anchors = (
{
name = bottom;
pos = (73,0);
},
{
name = ogonek;
pos = (115,0);
},
{
name = top;
pos = (197,700);
}
);
layerId = m01;
shapes = (
{
closed = 1;
nodes = (
(46,-203,o),
(85,-190,q),
(94,-134,l),
(58,-149,o),
(27,-149,qs),
(3,-149,o),
(-26,-128,o),
(-26,-109,qs),
(-26,-63,o),
(52,-28,qs),
(115,0,l),
(238,700,l),
(154,700,l),
(34,15,l),
(-36,-15,o),
(-96,-85,o),
(-96,-127,qs),
(-96,-164,o),
(-38,-203,o),
(7,-203,qs)
);
}
);
userData = {
assembly = "PUSHB[ ]	/* 6 values pushed */
16 1 1 0 1 76
MPPEM[ ]	/* MeasurePixelPerEm */
PUSHB[ ]	/* 1 value pushed */
29
LT[ ]	/* LessThan */
IF[ ]	/* If */
NPUSHB[ ]	/* 17 values pushed */
0 0 0 33 77 0 1 1 2 97 3 1 2 2 38 2 78
ELSE[ ]	/* Else */
NPUSHB[ ]	/* 14 values pushed */
0 1 3 1 2 1 2 101 0 0 0 33 0 78
EIF[ ]	/* EndIf */
NPUSHB[ ]	/* 11 values pushed */
0 0 0 19 0 18 38 22 4 8 24
CALL[ ]	/* CallFunction */";
};
width = 233;
}
);
note = Iogonek;
unicode = 302;
},
{
glyphname = J;
kernLeft = J;
kernRight = J;
layers = (
{
anchors = (
{
name = bottom;
pos = (199,0);
},
{
name = top;
pos = (447,700);
}
);
layerId = m01;
shapes = (
{
closed = 1;
nodes = (
(264,-12,o),
(384,88,o),
(399,172,qs),
(491,700,l),
(407,700,l),
(315,172,ls),
(307,126,o),
(244,63,o),
(191,63,qs),
(145,63,o),
(101,112,o),
(101,153,qs),
(101,170,o),
(104,186,q),
(19,186,l),
(15,165,o),
(15,141,qs),
(15,68,o),
(101,-12,o),
(178,-12,qs)
);
}
);
userData = {
assembly = "MPPEM[ ]	/* MeasurePixelPerEm */
PUSHB[ ]	/* 1 value pushed */
11
LT[ ]	/* LessThan */
IF[ ]	/* If */
NPUSHB[ ]	/* 24 values pushed */
0 0 2 1 1 0 114 0 2 2 33 77 0 1 1 3 98 4 1 3 3 40 3 78
ELSE[ ]	/* Else */
NPUSHB[ ]	/* 25 values pushed */
0 0 2 1 2 0 1 128 0 2 2 33 77 0 1 1 3 98 4 1 3 3 40 3 78
EIF[ ]	/* EndIf */
NPUSHB[ ]	/* 12 values pushed */
0 0 0 19 0 18 19 36 20 5 8 25
CALL[ ]	/* CallFunction */";
};
width = 486;
}
);
note = J;
unicode = 74;
},
{
glyphname = K;
kernRight = K;
layers = (
{
anchors = (
{
name = bottom;
pos = (251,0);
},
{
name = ogonek;
pos = (115,0);
},
{
name = top;
pos = (375,700);
}
);
layerId = m01;
shapes = (
{
closed = 1;
nodes = (
(115,0,l),
(175,342,l),
(436,0,l),
(541,0,l),
(264,357,l),
(632,700,l),
(523,700,l),
(181,375,l),
(238,700,l),
(154,700,l),
(31,0,l)
);
}
);
userData = {
assembly = "NPUSHB[ ]	/* 28 values pushed */
8 5 2 3 2 0 1 76 1 1 0 0 33 77 3 1 2 2 34 2 78 18 18 18 16 4 8 26
CALL[ ]	/* CallFunction */";
};
width = 589;
}
);
note = K;
unicode = 75;
},
{
glyphname = L;
kernRight = L;
layers = (
{
anchors = (
{
name = bottom;
pos = (219,0);
},
{
name = top;
pos = (254,700);
},
{
name = topright;
pos = (345,700);
}
);
layerId = m01;
shapes = (
{
closed = 1;
nodes = (
(441,0,l),
(453,67,l),
(127,67,l),
(238,700,l),
(154,700,l),
(31,0,l)
);
}
);
userData = {
assembly = "NPUSHB[ ]	/* 22 values pushed */
0 0 0 33 77 0 1 1 2 96 0 2 2 34 2 78 17 17 16 3 8 25
CALL[ ]	/* CallFunction */";
};
width = 526;
}
);
note = L;
unicode = 76;
},
{
glyphname = Ldot;
kernRight = L;
layers = (
{
layerId = m01;
shapes = (
{
closed = 1;
nodes = (
(441,0,l),
(453,67,l),
(127,67,l),
(238,700,l),
(154,700,l),
(31,0,l)
);
},
{
closed = 1;
nodes = (
(400,292,o),
(433,325,o),
(433,349,qs),
(433,374,o),
(400,406,o),
(376,406,qs),
(351,406,o),
(318,374,o),
(318,349,qs),
(318,325,o),
(351,292,o),
(376,292,qs)
);
}
);
userData = {
assembly = "NPUSHB[ ]	/* 38 values pushed */
0 3 5 1 4 1 3 4 105 0 0 0 33 77 0 1 1 2 96 0 2 2 34 2 78 6 6 6 17 6 16 37 17 17 16 6 8 26
CALL[ ]	/* CallFunction */";
};
width = 526;
}
);
note = Ldot;
unicode = 319;
},
{
glyphname = Lslash;
kernRight = L;
layers = (
{
layerId = m01;
shapes = (
{
closed = 1;
nodes = (
(467,0,l),
(478,67,l),
(152,67,l),
(201,341,l),
(331,388,l),
(345,467,l),
(215,421,l),
(264,700,l),
(180,700,l),
(125,389,l),
(40,359,l),
(26,280,l),
(111,310,l),
(57,0,l)
);
}
);
userData = {
assembly = "NPUSHB[ ]	/* 30 values pushed */
7 6 1 3 1 0 1 76 0 0 0 33 77 0 1 1 2 96 0 2 2 34 2 78 17 21 20 3 8 25
CALL[ ]	/* CallFunction */";
};
width = 552;
}
);
note = Lslash;
unicode = 321;
},
{
glyphname = M;
layers = (
{
layerId = m01;
shapes = (
{
closed = 1;
nodes = (
(115,0,l),
(212,549,l),
(367,100,l),
(430,100,l),
(742,550,l),
(646,0,l),
(730,0,l),
(853,700,l),
(754,700,l),
(418,212,l),
(252,700,l),
(154,700,l),
(31,0,l)
);
}
);
userData = {
assembly = "NPUSHB[ ]	/* 37 values pushed */
10 7 2 3 3 0 1 76 0 3 0 2 0 3 2 128 1 1 0 0 33 77 4 1 2 2 34 2 78 18 18 17 18 16 5 8 27
CALL[ ]	/* CallFunction */";
};
width = 848;
}
);
note = M;
unicode = 77;
},
{
glyphname = N;
layers = (
{
anchors = (
{
name = bottom;
pos = (301,0);
},
{
name = top;
pos = (425,700);
}
);
layerId = m01;
shapes = (
{
closed = 1;
nodes = (
(115,0,l),
(215,567,l),
(488,0,l),
(572,0,l),
(695,700,l),
(611,700,l),
(512,133,l),
(237,700,l),
(154,700,l),
(31,0,l)
);
}
);
userData = {
assembly = "NPUSHB[ ]	/* 27 values pushed */
7 2 2 2 0 1 76 1 1 0 0 33 77 3 1 2 2 34 2 78 18 17 18 16 4 8 26
CALL[ ]	/* CallFunction */";
};
width = 690;
}
);
note = N;
unicode = 78;
},
{
glyphname = Eng;
layers = (
{
anchors = (
{
name = bottom;
pos = (301,0);
},
{
name = top;
pos = (425,700);
}
);
layerId = m01;
shapes = (
{
closed = 1;
nodes = (
(115,0,l),
(215,567,l),
(488,0,l),
(474,-80,ls),
(467,-117,o),
(429,-148,o),
(392,-148,qs),
(353,-148,l),
(340,-220,l),
(392,-220,ls),
(462,-220,o),
(544,-153,o),
(557,-82,qs),
(695,700,l),
(611,700,l),
(512,133,l),
(237,700,l),
(154,700,l),
(31,0,l)
);
}
);
userData = {
assembly = "NPUSHB[ ]	/* 42 values pushed */
16 2 2 4 0 1 76 15 1 4 1 75 1 1 0 0 33 77 0 4 4 34 77 0 3 3 2 97 0 2 2 38 2 78 21 33 35 18 16 5 8 27
CALL[ ]	/* CallFunction */";
};
width = 689;
}
);
note = Eng;
unicode = 330;
},
{
glyphname = O;
kernLeft = C;
kernRight = B;
layers = (
{
anchors = (
{
name = bottom;
pos = (352,0);
},
{
name = ogonek;
pos = (427,10);
},
{
name = top;
pos = (476,700);
},
{
name = topright;
pos = (853,700);
}
);
layerId = m01;
shapes = (
{
closed = 1;
nodes = (
(461,-12,o),
(653,101,o),
(768,297,o),
(768,415,qs),
(768,491,o),
(704,627,o),
(572,712,o),
(476,712,qs),
(363,712,o),
(172,598,o),
(59,402,o),
(59,286,qs),
(59,212,o),
(123,75,o),
(255,-12,o),
(351,-12,qs)
);
},
{
closed = 1;
nodes = (
(297,62,o),
(199,120,o),
(146,224,o),
(146,291,qs),
(146,387,o),
(231,545,o),
(377,637,o),
(464,637,qs),
(530,637,o),
(628,580,o),
(681,478,o),
(681,411,qs),
(681,316,o),
(596,155,o),
(450,62,o),
(363,62,qs)
);
}
);
userData = {
assembly = "NPUSHB[ ]	/* 41 values pushed */
0 2 2 0 97 0 0 0 39 77 5 1 3 3 1 97 4 1 1 1 40 1 78 16 16 0 0 16 31 16 30 24 22 0 15 0 14 38 6 8 23
CALL[ ]	/* CallFunction */";
};
width = 790;
}
);
note = O;
unicode = 79;
},
{
glyphname = Oslash;
kernLeft = Oslash;
layers = (
{
layerId = m01;
shapes = (
{
closed = 1;
nodes = (
(463,-12,o),
(655,103,o),
(767,299,o),
(767,415,qs),
(767,518,o),
(715,594,q),
(827,700,l),
(738,700,l),
(674,640,l),
(635,675,o),
(534,712,o),
(475,712,qs),
(361,712,o),
(169,597,o),
(57,401,o),
(57,286,qs),
(57,236,o),
(84,144,o),
(109,108,q),
(-5,0,l),
(85,0,l),
(150,61,l),
(229,-12,o),
(349,-12,qs)
);
},
{
closed = 1;
nodes = (
(270,62,o),
(211,118,q),
(651,534,l),
(680,481,o),
(680,411,qs),
(680,315,o),
(593,155,o),
(446,62,o),
(361,62,qs)
);
},
{
closed = 1;
nodes = (
(173,168,l),
(144,221,o),
(144,291,qs),
(144,383,o),
(227,542,o),
(373,637,o),
(463,637,qs),
(555,637,o),
(613,582,q)
);
}
);
userData = {
assembly = "MPPEM[ ]	/* MeasurePixelPerEm */
PUSHB[ ]	/* 1 value pushed */
21
LT[ ]	/* LessThan */
IF[ ]	/* If */
NPUSHB[ ]	/* 19 values pushed */
14 1 5 1 41 40 30 29 17 4 6 4 5 1 1 0 4 3 76
ELSE[ ]	/* Else */
NPUSHB[ ]	/* 19 values pushed */
14 1 5 2 41 40 30 29 17 4 6 4 5 1 1 0 4 3 76
EIF[ ]	/* EndIf */
MPPEM[ ]	/* MeasurePixelPerEm */
PUSHB[ ]	/* 1 value pushed */
21
LT[ ]	/* LessThan */
IF[ ]	/* If */
NPUSHB[ ]	/* 25 values pushed */
0 5 5 1 97 2 1 1 1 39 77 7 1 4 4 0 97 6 3 2 0 0 34 0 78
ELSE[ ]	/* Else */
NPUSHB[ ]	/* 33 values pushed */
0 2 2 33 77 0 5 5 1 97 0 1 1 39 77 0 0 0 34 77 7 1 4 4 3 97 6 1 3 3 40 3 78
EIF[ ]	/* EndIf */
NPUSHB[ ]	/* 20 values pushed */
24 24 0 0 35 33 24 32 24 31 0 23 0 22 19 39 18 8 8 25
CALL[ ]	/* CallFunction */";
};
width = 787;
}
);
note = Oslash;
unicode = 216;
},
{
glyphname = OE;
kernLeft = C;
layers = (
{
anchors = (
{
name = bottom;
pos = (514,0);
},
{
name = top;
pos = (638,700);
}
);
layerId = m01;
shapes = (
{
closed = 1;
nodes = (
(423,-12,o),
(571,58,o),
(627,124,q),
(605,0,l),
(1008,0,l),
(1020,69,l),
(701,69,l),
(745,319,l),
(1034,319,l),
(1046,387,l),
(757,387,l),
(800,631,l),
(1119,631,l),
(1132,700,l),
(729,700,l),
(707,575,l),
(674,640,o),
(545,712,o),
(463,712,qs),
(357,712,o),
(173,600,o),
(62,410,o),
(62,298,qs),
(62,223,o),
(123,81,o),
(249,-12,o),
(342,-12,qs)
);
},
{
closed = 1;
nodes = (
(297,62,o),
(202,124,o),
(150,234,o),
(150,303,qs),
(150,392,o),
(234,546,o),
(374,637,o),
(454,637,qs),
(516,637,o),
(614,586,o),
(671,486,o),
(671,415,qs),
(671,319,o),
(588,157,o),
(444,62,o),
(358,62,qs)
);
}
);
userData = {
assembly = "NPUSHB[ ]	/* 10 values pushed */
10 1 3 2 23 1 5 4 2 76
MPPEM[ ]	/* MeasurePixelPerEm */
PUSHB[ ]	/* 1 value pushed */
21
LT[ ]	/* LessThan */
IF[ ]	/* If */
NPUSHB[ ]	/* 35 values pushed */
0 3 0 4 5 3 4 103 8 1 2 2 0 97 1 1 0 0 39 77 11 9 2 5 5 6 97 10 7 2 6 6 34 6 78
ELSE[ ]	/* Else */
MPPEM[ ]	/* MeasurePixelPerEm */
PUSHB[ ]	/* 1 value pushed */
33
LT[ ]	/* LessThan */
IF[ ]	/* If */
NPUSHB[ ]	/* 56 values pushed */
0 3 0 4 5 3 4 103 8 1 2 2 0 97 0 0 0 39 77 8 1 2 2 1 95 0 1 1 33 77 11 9 2 5 5 6 95 0 6 6 34 77 11 9 2 5 5 7 97 10 1 7 7 40 7 78
ELSE[ ]	/* Else */
MPPEM[ ]	/* MeasurePixelPerEm */
PUSHB[ ]	/* 1 value pushed */
39
LT[ ]	/* LessThan */
IF[ ]	/* If */
NPUSHB[ ]	/* 53 values pushed */
0 3 0 4 5 3 4 103 8 1 2 2 0 97 0 0 0 39 77 8 1 2 2 1 95 0 1 1 33 77 0 5 5 6 95 0 6 6 34 77 11 1 9 9 7 97 10 1 7 7 40 7 78
ELSE[ ]	/* Else */
NPUSHB[ ]	/* 51 values pushed */
0 3 0 4 5 3 4 103 0 8 8 0 97 0 0 0 39 77 0 2 2 1 95 0 1 1 33 77 0 5 5 6 95 0 6 6 34 77 11 1 9 9 7 97 10 1 7 7 40 7 78
EIF[ ]	/* EndIf */
EIF[ ]	/* EndIf */
EIF[ ]	/* EndIf */
NPUSHB[ ]	/* 24 values pushed */
27 27 0 0 27 42 27 41 35 33 0 26 0 25 17 17 17 17 17 19 38 12 8 29
CALL[ ]	/* CallFunction */";
};
width = 1115;
}
);
note = OE;
unicode = 338;
},
{
glyphname = P;
kernRight = P;
layers = (
{
layerId = m01;
shapes = (
{
closed = 1;
nodes = (
(115,0,l),
(167,292,l),
(313,292,ls),
(392,292,o),
(519,345,o),
(592,450,o),
(592,525,qs),
(592,606,o),
(480,700,o),
(384,700,qs),
(154,700,l),
(31,0,l)
);
},
{
closed = 1;
nodes = (
(179,363,l),
(226,630,l),
(370,630,ls),
(438,630,o),
(504,570,o),
(504,519,qs),
(504,441,o),
(411,363,o),
(323,363,qs)
);
}
);
userData = {
assembly = "NPUSHB[ ]	/* 38 values pushed */
5 1 4 0 1 2 4 1 103 0 3 3 0 95 0 0 0 33 77 0 2 2 34 2 78 12 12 12 20 12 19 37 17 37 32 6 8 26
CALL[ ]	/* CallFunction */";
};
width = 583;
}
);
note = P;
unicode = 80;
},
{
glyphname = Thorn;
kernRight = Thorn;
layers = (
{
layerId = m01;
shapes = (
{
closed = 1;
nodes = (
(115,0,l),
(141,147,l),
(287,147,ls),
(367,147,o),
(493,202,o),
(566,309,o),
(566,383,qs),
(566,460,o),
(462,554,o),
(359,554,qs),
(213,554,l),
(238,700,l),
(154,700,l),
(31,0,l)
);
},
{
closed = 1;
nodes = (
(153,217,l),
(201,484,l),
(345,484,ls),
(415,484,o),
(479,433,o),
(479,382,qs),
(479,304,o),
(384,217,o),
(298,217,qs)
);
}
);
userData = {
assembly = "NPUSHB[ ]	/* 42 values pushed */
0 1 0 4 5 1 4 104 6 1 5 0 2 3 5 2 103 0 0 0 33 77 0 3 3 34 3 78 14 14 14 22 14 21 37 17 37 33 16 7 8 27
CALL[ ]	/* CallFunction */";
};
width = 582;
}
);
note = Thorn;
unicode = 222;
},
{
glyphname = Q;
kernLeft = C;
kernRight = Q;
layers = (
{
layerId = m01;
shapes = (
{
closed = 1;
nodes = (
(413,-12,o),
(528,23,o),
(578,56,q),
(637,-11,l),
(696,41,l),
(640,106,l),
(701,165,o),
(770,325,o),
(770,415,qs),
(770,491,o),
(706,627,o),
(574,712,o),
(478,712,qs),
(365,712,o),
(174,598,o),
(61,402,o),
(61,286,qs),
(61,212,o),
(125,75,o),
(257,-12,o),
(353,-12,qs)
);
},
{
closed = 1;
nodes = (
(148,387,o),
(233,545,o),
(379,637,o),
(466,637,qs),
(532,637,o),
(630,580,o),
(683,478,o),
(683,411,qs),
(683,339,o),
(634,212,o),
(590,164,q),
(503,267,l),
(443,215,l),
(531,113,l),
(455,62,o),
(365,62,qs),
(299,62,o),
(201,120,o),
(148,224,o),
(148,291,qs)
);
}
);
userData = {
assembly = "NPUSHB[ ]	/* 52 values pushed */
29 28 27 26 14 5 2 3 17 16 15 3 1 2 2 76 0 3 3 0 97 0 0 0 39 77 0 2 2 1 97 4 1 1 1 40 1 78 0 0 37 35 25 23 0 20 0 19 38 5 8 23
CALL[ ]	/* CallFunction */";
};
width = 795;
}
);
note = Q;
unicode = 81;
},
{
glyphname = R;
kernRight = R;
layers = (
{
anchors = (
{
name = bottom;
pos = (250,0);
},
{
name = top;
pos = (374,700);
}
);
layerId = m01;
shapes = (
{
closed = 1;
nodes = (
(114,0,l),
(169,310,l),
(285,310,l),
(410,0,l),
(514,0,l),
(371,326,l),
(466,342,o),
(564,448,o),
(564,537,qs),
(564,613,o),
(457,700,o),
(361,700,qs),
(154,700,l),
(30,0,l)
);
},
{
closed = 1;
nodes = (
(181,381,l),
(225,630,l),
(346,630,ls),
(414,630,o),
(478,576,o),
(478,529,qs),
(478,451,o),
(391,381,o),
(302,381,qs)
);
}
);
userData = {
assembly = "NPUSHB[ ]	/* 46 values pushed */
7 1 2 5 1 76 6 1 5 0 2 1 5 2 103 0 4 4 0 95 0 0 0 33 77 3 1 1 1 34 1 78 14 14 14 22 14 21 37 17 17 22 32 7 8 27
CALL[ ]	/* CallFunction */";
};
width = 593;
}
);
note = R;
unicode = 82;
},
{
glyphname = S;
kernLeft = S;
kernRight = S;
layers = (
{
anchors = (
{
name = bottom;
pos = (252,0);
},
{
name = top;
pos = (376,700);
}
);
layerId = m01;
shapes = (
{
closed = 1;
nodes = (
(347,-12,o),
(466,44,o),
(532,145,o),
(532,211,qs),
(532,329,o),
(387,384,qs),
(375,389,o),
(351,397,qs),
(306,412,o),
(251,437,o),
(232,455,qs),
(207,477,o),
(207,515,qs),
(207,570,o),
(289,640,o),
(354,640,qs),
(413,640,o),
(477,579,o),
(477,537,qs),
(477,524,o),
(476,518,q),
(563,518,l),
(566,535,o),
(566,549,qs),
(566,596,o),
(517,670,o),
(426,712,o),
(366,712,qs),
(293,712,o),
(180,660,o),
(118,564,o),
(118,502,qs),
(118,448,o),
(184,366,o),
(249,342,qs),
(264,336,o),
(294,326,qs),
(345,309,o),
(404,281,o),
(442,236,o),
(442,201,qs),
(442,136,o),
(357,59,o),
(278,59,qs),
(210,59,o),
(128,128,o),
(128,183,qs),
(128,197,o),
(131,210,q),
(43,210,l),
(39,193,o),
(39,170,qs),
(39,116,o),
(95,34,o),
(200,-12,o),
(269,-12,qs)
);
}
);
userData = {
assembly = "NPUSHB[ ]	/* 51 values pushed */
0 3 4 0 4 3 0 128 0 0 1 4 0 1 126 0 4 4 2 97 0 2 2 39 77 0 1 1 5 97 6 1 5 5 40 5 78 0 0 0 55 0 54 36 21 46 36 21 7 8 27
CALL[ ]	/* CallFunction */";
};
width = 591;
}
);
note = S;
unicode = 83;
},
{
glyphname = Scedilla;
kernLeft = S;
kernRight = S;
layers = (
{
anchors = (
{
name = bottom;
pos = (207,-259);
},
{
name = top;
pos = (376,700);
}
);
layerId = m01;
shapes = (
{
closed = 1;
nodes = (
(245,-259,ls),
(304,-259,o),
(384,-194,o),
(384,-140,qs),
(384,-102,o),
(322,-62,o),
(270,-63,q),
(279,-12,l),
(354,-10,o),
(469,47,o),
(532,146,o),
(532,211,qs),
(532,329,o),
(387,384,qs),
(375,389,o),
(351,397,qs),
(306,412,o),
(251,437,o),
(232,455,qs),
(207,477,o),
(207,515,qs),
(207,570,o),
(289,640,o),
(354,640,qs),
(413,640,o),
(477,579,o),
(477,537,qs),
(477,524,o),
(476,518,q),
(563,518,l),
(566,535,o),
(566,549,qs),
(566,596,o),
(517,670,o),
(426,712,o),
(366,712,qs),
(293,712,o),
(180,660,o),
(118,564,o),
(118,502,qs),
(118,448,o),
(184,366,o),
(249,342,qs),
(264,336,o),
(294,326,qs),
(345,309,o),
(404,281,o),
(442,236,o),
(442,201,qs),
(442,136,o),
(357,59,o),
(278,59,qs),
(210,59,o),
(128,128,o),
(128,183,qs),
(128,197,o),
(131,210,q),
(43,210,l),
(39,193,o),
(39,170,qs),
(39,98,o),
(138,1,o),
(223,-9,q),
(205,-113,l),
(254,-113,ls),
(315,-113,o),
(315,-149,qs),
(315,-177,o),
(275,-206,o),
(238,-206,qs),
(146,-206,l),
(137,-259,l)
);
}
);
userData = {
assembly = "NPUSHB[ ]	/* 71 values pushed */
8 1 7 3 1 76 0 5 6 2 6 5 2 128 0 2 3 6 2 3 126 0 8 0 1 0 8 1 105 0 0 0 9 0 9 99 0 6 6 4 97 0 4 4 39 77 0 3 3 7 97 0 7 7 40 7 78 71 69 17 30 36 21 46 36 22 35 32 10 8 31
CALL[ ]	/* CallFunction */";
};
width = 591;
}
);
note = Scedilla;
unicode = 350;
},
{
glyphname = uni1E9E;
layers = (
{
layerId = m01;
shapes = (
{
closed = 1;
nodes = (
(458,-10,o),
(555,36,o),
(610,119,o),
(610,172,qs),
(610,223,o),
(558,286,o),
(499,307,qs),
(454,322,o),
(398,352,o),
(398,377,qs),
(398,396,o),
(432,427,o),
(468,448,qs),
(514,478,ls),
(544,500,o),
(577,554,o),
(577,593,qs),
(577,653,o),
(477,732,o),
(387,732,qs),
(277,732,o),
(137,616,o),
(120,520,qs),
(27,0,l),
(111,0,l),
(202,512,ls),
(214,583,o),
(300,661,o),
(374,661,qs),
(429,661,o),
(491,618,o),
(491,581,qs),
(491,554,o),
(463,514,o),
(423,485,o),
(385,463,qs),
(348,441,o),
(311,392,o),
(311,360,qs),
(311,321,o),
(370,271,o),
(438,246,qs),
(483,230,o),
(524,191,o),
(524,163,qs),
(524,115,o),
(459,56,o),
(407,56,qs),
(359,56,o),
(306,108,o),
(306,153,qs),
(306,164,o),
(307,169,q),
(223,169,l),
(216,88,o),
(310,-10,o),
(397,-10,qs)
);
}
);
userData = {
assembly = "MPPEM[ ]	/* MeasurePixelPerEm */
PUSHB[ ]	/* 1 value pushed */
25
LT[ ]	/* LessThan */
IF[ ]	/* If */
NPUSHB[ ]	/* 31 values pushed */
0 0 2 1 2 0 1 128 0 2 2 4 97 0 4 4 41 77 0 1 1 3 97 6 5 2 3 3 34 3 78
ELSE[ ]	/* Else */
MPPEM[ ]	/* MeasurePixelPerEm */
PUSHB[ ]	/* 1 value pushed */
39
LT[ ]	/* LessThan */
IF[ ]	/* If */
NPUSHB[ ]	/* 35 values pushed */
0 0 2 1 2 0 1 128 0 2 2 4 97 0 4 4 41 77 0 3 3 34 77 0 1 1 5 97 6 1 5 5 40 5 78
ELSE[ ]	/* Else */
NPUSHB[ ]	/* 33 values pushed */
0 0 2 1 2 0 1 128 0 4 0 2 0 4 2 105 0 3 3 34 77 0 1 1 5 97 6 1 5 5 40 5 78
EIF[ ]	/* EndIf */
EIF[ ]	/* EndIf */
NPUSHB[ ]	/* 17 values pushed */
0 0 0 56 0 55 37 35 32 31 28 26 36 18 7 8 24
CALL[ ]	/* CallFunction */";
};
width = 669;
}
);
note = uni1E9E;
unicode = 7838;
},
{
glyphname = T;
kernLeft = T;
kernRight = T;
layers = (
{
anchors = (
{
name = bottom;
pos = (236,0);
},
{
name = top;
pos = (360,700);
}
);
layerId = m01;
shapes = (
{
closed = 1;
nodes = (
(278,0,l),
(389,633,l),
(598,633,l),
(610,700,l),
(109,700,l),
(97,633,l),
(305,633,l),
(194,0,l)
);
}
);
userData = {
assembly = "NPUSHB[ ]	/* 24 values pushed */
2 1 0 0 1 95 0 1 1 33 77 0 3 3 34 3 78 17 17 17 16 4 8 26
CALL[ ]	/* CallFunction */";
};
width = 559;
}
);
note = T;
unicode = 84;
},
{
glyphname = uni0162;
kernLeft = T;
kernRight = T;
layers = (
{
anchors = (
{
name = bottom;
pos = (191,-259);
},
{
name = top;
pos = (360,700);
}
);
layerId = m01;
shapes = (
{
closed = 1;
nodes = (
(209,0,l),
(189,-113,l),
(238,-113,ls),
(299,-113,o),
(299,-149,qs),
(299,-177,o),
(259,-206,o),
(222,-206,qs),
(130,-206,l),
(121,-259,l),
(229,-259,ls),
(288,-259,o),
(368,-194,o),
(368,-140,qs),
(368,-102,o),
(306,-62,o),
(254,-63,q),
(265,0,l),
(278,0,l),
(389,633,l),
(598,633,l),
(610,700,l),
(109,700,l),
(97,633,l),
(305,633,l),
(194,0,l)
);
}
);
userData = {
assembly = "NPUSHB[ ]	/* 45 values pushed */
0 4 0 7 6 4 7 105 0 6 0 5 6 5 99 2 1 0 0 1 95 0 1 1 33 77 8 1 3 3 34 3 78 17 35 33 36 17 17 17 17 16 9 8 31
CALL[ ]	/* CallFunction */";
};
width = 559;
}
);
note = uni0162;
unicode = 354;
},
{
glyphname = U;
kernLeft = U;
kernRight = U;
layers = (
{
anchors = (
{
name = bottom;
pos = (290,0);
},
{
name = ogonek;
pos = (401,10);
},
{
name = top;
pos = (414,700);
},
{
name = topright;
pos = (727,700);
}
);
layerId = m01;
shapes = (
{
closed = 1;
nodes = (
(347,-12,o),
(474,38,o),
(572,159,o),
(589,258,qs),
(667,700,l),
(583,700,l),
(504,258,ls),
(487,160,o),
(377,64,o),
(295,64,qs),
(226,64,o),
(147,133,o),
(147,203,qs),
(147,228,o),
(153,258,qs),
(232,700,l),
(148,700,l),
(69,258,ls),
(63,222,o),
(63,190,qs),
(63,95,o),
(177,-12,o),
(281,-12,qs)
);
}
);
userData = {
assembly = "NPUSHB[ ]	/* 30 values pushed */
2 1 0 0 33 77 0 1 1 3 98 4 1 3 3 40 3 78 0 0 0 22 0 21 19 37 21 5 8 25
CALL[ ]	/* CallFunction */";
};
width = 667;
}
);
note = U;
unicode = 85;
},
{
glyphname = Uogonek;
kernLeft = U;
kernRight = U;
layers = (
{
anchors = (
{
name = bottom;
pos = (290,0);
},
{
name = ogonek;
pos = (401,10);
},
{
name = top;
pos = (414,700);
},
{
name = topright;
pos = (727,700);
}
);
layerId = m01;
shapes = (
{
closed = 1;
nodes = (
(332,-193,o),
(371,-180,q),
(380,-124,l),
(344,-139,o),
(313,-139,qs),
(289,-139,o),
(260,-118,o),
(260,-99,qs),
(260,-53,o),
(338,-18,qs),
(395,7,l),
(467,33,o),
(571,155,o),
(589,258,qs),
(667,700,l),
(583,700,l),
(504,258,ls),
(487,160,o),
(377,64,o),
(295,64,qs),
(226,64,o),
(147,133,o),
(147,203,qs),
(147,228,o),
(153,258,qs),
(232,700,l),
(148,700,l),
(69,258,ls),
(63,222,o),
(63,190,qs),
(63,102,o),
(162,-4,o),
(253,-11,q),
(190,-55,o),
(190,-117,qs),
(190,-154,o),
(248,-193,o),
(293,-193,qs)
);
}
);
userData = {
assembly = "NPUSHB[ ]	/* 43 values pushed */
34 4 2 3 1 1 76 0 1 0 3 0 1 3 128 0 3 5 1 4 3 4 102 2 1 0 0 33 0 78 0 0 0 37 0 36 41 19 37 26 6 8 26
CALL[ ]	/* CallFunction */";
};
width = 667;
}
);
note = Uogonek;
unicode = 370;
},
{
glyphname = V;
kernLeft = V;
kernRight = V;
layers = (
{
layerId = m01;
shapes = (
{
closed = 1;
nodes = (
(241,0,l),
(339,0,l),
(727,700,l),
(636,700,l),
(306,92,l),
(193,700,l),
(102,700,l)
);
}
);
userData = {
assembly = "NPUSHB[ ]	/* 30 values pushed */
1 1 1 0 1 76 3 2 2 0 0 33 77 0 1 1 34 1 78 0 0 0 6 0 6 17 18 4 8 24
CALL[ ]	/* CallFunction */";
};
width = 669;
}
);
note = V;
unicode = 86;
},
{
glyphname = W;
kernLeft = W;
kernRight = W;
layers = (
{
anchors = (
{
name = bottom;
pos = (450,0);
},
{
name = top;
pos = (566,700);
}
);
layerId = m01;
shapes = (
{
closed = 1;
nodes = (
(542,574,l),
(604,0,l),
(701,0,l),
(1021,700,l),
(930,700,l),
(672,103,l),
(612,700,l),
(518,700,l),
(241,104,l),
(196,700,l),
(105,700,l),
(173,-1,l),
(270,0,l)
);
}
);
userData = {
assembly = "NPUSHB[ ]	/* 36 values pushed */
11 6 3 3 3 0 1 76 2 1 2 0 0 33 77 5 4 2 3 3 34 3 78 0 0 0 12 0 12 17 18 18 17 6 8 26
CALL[ ]	/* CallFunction */";
};
width = 976;
}
);
note = W;
unicode = 87;
},
{
glyphname = X;
kernLeft = X;
kernRight = X;
layers = (
{
layerId = m01;
shapes = (
{
closed = 1;
nodes = (
(76,0,l),
(299,300,l),
(426,0,l),
(520,0,l),
(362,377,l),
(610,700,l),
(515,700,l),
(330,451,l),
(225,700,l),
(131,700,l),
(268,376,l),
(-20,0,l)
);
}
);
userData = {
assembly = "NPUSHB[ ]	/* 28 values pushed */
9 6 3 3 2 0 1 76 1 1 0 0 33 77 3 1 2 2 34 2 78 18 18 18 17 4 8 26
CALL[ ]	/* CallFunction */";
};
width = 596;
}
);
note = X;
unicode = 88;
},
{
glyphname = Y;
kernLeft = Y;
kernRight = Y;
layers = (
{
anchors = (
{
name = bottom;
pos = (246,0);
},
{
name = top;
pos = (370,700);
}
);
layerId = m01;
shapes = (
{
closed = 1;
nodes = (
(282,0,l),
(329,266,l),
(633,700,l),
(539,700,l),
(301,346,l),
(189,700,l),
(93,700,l),
(245,266,l),
(198,0,l)
);
}
);
userData = {
assembly = "NPUSHB[ ]	/* 24 values pushed */
3 1 2 0 1 76 1 1 0 0 33 77 0 2 2 34 2 78 18 18 17 3 8 25
CALL[ ]	/* CallFunction */";
};
width = 579;
}
);
note = Y;
unicode = 89;
},
{
glyphname = Z;
kernRight = Z;
layers = (
{
anchors = (
{
name = bottom;
pos = (224,0);
},
{
name = top;
pos = (348,700);
}
);
layerId = m01;
shapes = (
{
closed = 1;
nodes = (
(441,0,l),
(454,73,l),
(104,73,l),
(549,634,l),
(560,700,l),
(123,700,l),
(109,627,l),
(449,627,l),
(6,66,l),
(-6,0,l)
);
}
);
userData = {
assembly = "NPUSHB[ ]	/* 28 values pushed */
0 0 0 1 95 0 1 1 33 77 0 2 2 3 95 0 3 3 34 3 78 17 18 17 17 4 8 26
CALL[ ]	/* CallFunction */";
};
width = 535;
}
);
note = Z;
unicode = 90;
},
{
glyphname = uniA78B;
layers = (
{
layerId = m01;
shapes = (
{
closed = 1;
nodes = (
(143,229,l),
(236,700,l),
(145,700,l),
(72,229,l)
);
}
);
userData = {
assembly = "NPUSHB[ ]	/* 16 values pushed */
0 1 0 1 134 0 0 0 33 0 78 17 16 2 8 24
CALL[ ]	/* CallFunction */";
};
width = 221;
}
);
note = uniA78B;
unicode = 42891;
},
{
glyphname = a;
kernLeft = a;
kernRight = a;
layers = (
{
anchors = (
{
name = bottom;
pos = (238,0);
},
{
name = ogonek;
pos = (492,0);
},
{
name = top;
pos = (326,496);
}
);
layerId = m01;
shapes = (
{
closed = 1;
nodes = (
(168,59,o),
(116,95,o),
(116,131,qs),
(116,184,o),
(203,234,o),
(268,234,qs),
(394,234,l),
(386,190,o),
(337,109,o),
(259,59,o),
(211,59,qs)
);
},
{
closed = 1;
nodes = (
(26,57,o),
(116,-12,o),
(186,-12,qs),
(250,-12,o),
(343,45,o),
(370,87,q),
(361,0,l),
(437,0,l),
(491,305,ls),
(495,328,o),
(495,352,qs),
(495,429,o),
(399,508,o),
(317,508,qs),
(232,508,o),
(98,421,o),
(73,341,q),
(160,341,l),
(177,389,o),
(257,437,o),
(306,437,qs),
(355,437,o),
(410,386,o),
(410,339,qs),
(410,322,o),
(406,299,q),
(273,299,ls),
(167,299,o),
(26,208,o),
(26,121,qs)
);
}
);
userData = {
assembly = "PUSHB[ ]	/* 6 values pushed */
34 1 1 0 1 76
MPPEM[ ]	/* MeasurePixelPerEm */
PUSHB[ ]	/* 1 value pushed */
21
LT[ ]	/* LessThan */
IF[ ]	/* If */
NPUSHB[ ]	/* 39 values pushed */
0 4 3 2 3 4 2 128 0 2 0 0 1 2 0 103 0 3 3 5 97 0 5 5 42 77 8 1 1 1 6 97 7 1 6 6 34 6 78
ELSE[ ]	/* Else */
NPUSHB[ ]	/* 43 values pushed */
0 4 3 2 3 4 2 128 0 2 0 0 1 2 0 103 0 3 3 5 97 0 5 5 42 77 0 6 6 34 77 8 1 1 1 7 97 0 7 7 40 7 78
EIF[ ]	/* EndIf */
NPUSHB[ ]	/* 22 values pushed */
0 0 38 36 33 32 27 25 23 22 20 18 14 12 0 10 0 9 35 9 8 23
CALL[ ]	/* CallFunction */";
};
width = 539;
}
);
note = a;
unicode = 97;
},
{
glyphname = aogonek;
kernLeft = a;
kernRight = aacute;
layers = (
{
anchors = (
{
name = bottom;
pos = (238,0);
},
{
name = ogonek;
pos = (492,0);
},
{
name = top;
pos = (326,496);
}
);
layerId = m01;
shapes = (
{
closed = 1;
nodes = (
(168,59,o),
(116,95,o),
(116,131,qs),
(116,184,o),
(203,234,o),
(268,234,qs),
(394,234,l),
(386,190,o),
(337,109,o),
(259,59,o),
(211,59,qs)
);
},
{
closed = 1;
nodes = (
(423,-203,o),
(462,-190,q),
(471,-134,l),
(435,-149,o),
(404,-149,qs),
(380,-149,o),
(351,-128,o),
(351,-109,qs),
(351,-63,o),
(429,-28,qs),
(492,0,l),
(479,43,l),
(442,28,l),
(491,305,ls),
(495,328,o),
(495,352,qs),
(495,429,o),
(399,508,o),
(317,508,qs),
(232,508,o),
(98,421,o),
(73,341,q),
(160,341,l),
(177,389,o),
(257,437,o),
(306,437,qs),
(355,437,o),
(410,386,o),
(410,339,qs),
(410,322,o),
(406,299,q),
(273,299,ls),
(167,299,o),
(26,208,o),
(26,121,qs),
(26,57,o),
(116,-12,o),
(186,-12,qs),
(250,-12,o),
(343,45,o),
(370,87,q),
(361,0,l),
(379,0,l),
(326,-27,o),
(281,-90,o),
(281,-127,qs),
(281,-164,o),
(339,-203,o),
(384,-203,qs)
);
}
);
userData = {
assembly = "MPPEM[ ]	/* MeasurePixelPerEm */
PUSHB[ ]	/* 1 value pushed */
21
LT[ ]	/* LessThan */
IF[ ]	/* If */
NPUSHB[ ]	/* 20 values pushed */
18 1 1 0 47 46 2 2 1 56 1 8 2 3 76 48 1 2 1 75
ELSE[ ]	/* Else */
NPUSHB[ ]	/* 20 values pushed */
18 1 1 0 47 46 2 2 1 56 1 8 3 3 76 48 1 2 1 75
EIF[ ]	/* EndIf */
MPPEM[ ]	/* MeasurePixelPerEm */
PUSHB[ ]	/* 1 value pushed */
21
LT[ ]	/* LessThan */
IF[ ]	/* If */
NPUSHB[ ]	/* 50 values pushed */
0 6 5 4 5 6 4 128 0 4 0 0 1 4 0 103 0 5 5 7 97 0 7 7 42 77 10 1 1 1 2 97 3 1 2 2 34 77 0 8 8 9 97 11 1 9 9 38 9 78
ELSE[ ]	/* Else */
MPPEM[ ]	/* MeasurePixelPerEm */
PUSHB[ ]	/* 1 value pushed */
29
LT[ ]	/* LessThan */
IF[ ]	/* If */
NPUSHB[ ]	/* 54 values pushed */
0 6 5 4 5 6 4 128 0 4 0 0 1 4 0 103 0 5 5 7 97 0 7 7 42 77 0 2 2 34 77 10 1 1 1 3 97 0 3 3 40 77 0 8 8 9 97 11 1 9 9 38 9 78
ELSE[ ]	/* Else */
NPUSHB[ ]	/* 51 values pushed */
0 6 5 4 5 6 4 128 0 4 0 0 1 4 0 103 0 8 11 1 9 8 9 101 0 5 5 7 97 0 7 7 42 77 0 2 2 34 77 10 1 1 1 3 97 0 3 3 40 3 78
EIF[ ]	/* EndIf */
EIF[ ]	/* EndIf */
NPUSHB[ ]	/* 30 values pushed */
11 11 0 0 11 59 11 58 55 53 41 39 37 36 34 32 28 26 22 20 17 16 0 10 0 9 35 12 8 23
CALL[ ]	/* CallFunction */";
};
width = 539;
}
);
note = aogonek;
unicode = 261;
},
{
glyphname = ae;
kernLeft = a;
kernRight = ae;
layers = (
{
anchors = (
{
name = bottom;
pos = (419,0);
},
{
name = top;
pos = (507,496);
}
);
layerId = m01;
shapes = (
{
closed = 1;
nodes = (
(261,-12,o),
(382,56,o),
(418,109,q),
(439,52,o),
(537,-12,o),
(605,-12,qs),
(687,-12,o),
(820,73,o),
(857,148,q),
(774,148,l),
(749,106,o),
(669,59,o),
(618,59,qs),
(561,59,o),
(484,132,o),
(484,199,qs),
(484,214,o),
(487,229,q),
(882,229,l),
(895,283,o),
(895,319,qs),
(895,367,o),
(855,453,o),
(766,508,o),
(699,508,qs),
(638,508,o),
(530,461,o),
(490,418,q),
(474,461,o),
(391,508,o),
(327,508,qs),
(279,508,o),
(179,473,o),
(98,398,o),
(82,341,q),
(168,341,l),
(185,387,o),
(265,437,o),
(315,437,qs),
(364,437,o),
(418,386,o),
(418,339,qs),
(418,319,o),
(414,299,q),
(264,299,ls),
(206,299,o),
(97,262,o),
(26,181,o),
(26,118,qs),
(26,61,o),
(109,-12,o),
(189,-12,qs)
);
},
{
closed = 1;
nodes = (
(166,59,o),
(115,98,o),
(115,131,qs),
(115,180,o),
(194,234,o),
(259,234,qs),
(401,234,l),
(397,209,ls),
(392,176,o),
(340,106,o),
(258,59,o),
(210,59,qs)
);
},
{
closed = 1;
nodes = (
(499,294,l),
(519,362,o),
(622,437,o),
(685,437,qs),
(743,437,o),
(813,372,o),
(813,316,qs),
(813,310,o),
(811,294,q)
);
}
);
userData = {
assembly = "NPUSHB[ ]	/* 10 values pushed */
23 1 2 1 48 1 6 7 2 76
MPPEM[ ]	/* MeasurePixelPerEm */
PUSHB[ ]	/* 1 value pushed */
46
LT[ ]	/* LessThan */
IF[ ]	/* If */
NPUSHB[ ]	/* 53 values pushed */
0 2 1 0 1 2 0 128 0 7 5 6 5 7 6 128 13 1 0 10 1 5 7 0 5 103 12 1 1 1 3 97 4 1 3 3 42 77 15 11 2 6 6 8 97 14 9 2 8 8 40 8 78
ELSE[ ]	/* Else */
NPUSHB[ ]	/* 59 values pushed */
0 2 1 0 1 2 0 128 0 7 5 6 5 7 6 128 0 0 0 10 5 0 10 103 0 13 0 5 7 13 5 103 12 1 1 1 3 97 4 1 3 3 42 77 15 11 2 6 6 8 97 14 9 2 8 8 40 8 78
EIF[ ]	/* EndIf */
NPUSHB[ ]	/* 30 values pushed */
52 52 0 0 72 71 69 67 52 63 52 62 58 56 0 51 0 50 34 18 36 21 36 35 18 36 37 16 8 31
CALL[ ]	/* CallFunction */";
};
width = 926;
}
);
note = ae;
unicode = 230;
},
{
glyphname = b;
kernRight = b;
layers = (
{
layerId = m01;
shapes = (
{
closed = 1;
nodes = (
(371,-12,o),
(502,68,o),
(576,208,o),
(576,295,qs),
(576,357,o),
(526,454,o),
(434,508,o),
(372,508,qs),
(259,508,o),
(183,419,q),
(232,700,l),
(148,700,l),
(25,0,l),
(101,0,l),
(124,84,l),
(142,44,o),
(233,-12,o),
(290,-12,qs)
);
},
{
closed = 1;
nodes = (
(229,61,o),
(152,142,o),
(152,209,qs),
(152,272,o),
(203,376,o),
(293,435,o),
(350,435,qs),
(413,435,o),
(489,350,o),
(489,283,qs),
(489,219,o),
(439,118,o),
(351,61,o),
(294,61,qs)
);
}
);
userData = {
assembly = "PUSHB[ ]	/* 7 values pushed */
7 2 2 5 4 1 76
MPPEM[ ]	/* MeasurePixelPerEm */
PUSHB[ ]	/* 1 value pushed */
21
LT[ ]	/* LessThan */
IF[ ]	/* If */
NPUSHB[ ]	/* 29 values pushed */
0 1 1 33 77 0 4 4 2 97 0 2 2 42 77 7 1 5 5 0 97 6 3 2 0 0 34 0 78
ELSE[ ]	/* Else */
NPUSHB[ ]	/* 33 values pushed */
0 1 1 33 77 0 4 4 2 97 0 2 2 42 77 0 0 0 34 77 7 1 5 5 3 97 6 1 3 3 40 3 78
EIF[ ]	/* EndIf */
NPUSHB[ ]	/* 20 values pushed */
18 18 0 0 18 31 18 30 25 23 0 17 0 16 34 17 19 8 8 25
CALL[ ]	/* CallFunction */";
};
width = 619;
}
);
note = b;
unicode = 98;
},
{
glyphname = c;
kernLeft = c;
kernRight = c;
layers = (
{
anchors = (
{
name = bottom;
pos = (241,0);
},
{
name = top;
pos = (329,496);
}
);
layerId = m01;
shapes = (
{
closed = 1;
nodes = (
(332,-12,o),
(477,77,o),
(508,162,q),
(422,162,l),
(404,113,o),
(316,59,o),
(263,59,qs),
(206,59,o),
(130,139,o),
(130,208,qs),
(130,263,o),
(176,368,o),
(266,436,o),
(329,436,qs),
(383,436,o),
(452,383,o),
(452,334,q),
(538,334,l),
(537,414,o),
(431,508,o),
(341,508,qs),
(258,508,o),
(122,427,o),
(43,285,o),
(43,199,qs),
(43,144,o),
(89,47,o),
(183,-12,o),
(250,-12,qs)
);
}
);
userData = {
assembly = "NPUSHB[ ]	/* 51 values pushed */
0 1 2 4 2 1 4 128 0 4 3 2 4 3 126 0 2 2 0 97 0 0 0 42 77 0 3 3 5 97 6 1 5 5 40 5 78 0 0 0 28 0 27 18 37 34 18 38 7 8 27
CALL[ ]	/* CallFunction */";
};
width = 569;
}
);
note = c;
unicode = 99;
},
{
glyphname = ccedilla;
kernLeft = c;
layers = (
{
anchors = (
{
name = bottom;
pos = (196,-259);
},
{
name = top;
pos = (329,496);
}
);
layerId = m01;
shapes = (
{
closed = 1;
nodes = (
(230,-259,ls),
(289,-259,o),
(369,-194,o),
(369,-140,qs),
(369,-102,o),
(307,-62,o),
(255,-63,q),
(264,-12,l),
(342,-8,o),
(478,81,o),
(508,162,q),
(422,162,l),
(404,113,o),
(316,59,o),
(263,59,qs),
(206,59,o),
(130,139,o),
(130,208,qs),
(130,263,o),
(176,368,o),
(266,436,o),
(329,436,qs),
(383,436,o),
(452,383,o),
(452,334,q),
(538,334,l),
(537,414,o),
(431,508,o),
(341,508,qs),
(258,508,o),
(122,427,o),
(43,285,o),
(43,199,qs),
(43,123,o),
(128,5,o),
(208,-9,q),
(190,-113,l),
(239,-113,ls),
(300,-113,o),
(300,-149,qs),
(300,-177,o),
(260,-206,o),
(223,-206,qs),
(131,-206,l),
(122,-259,l)
);
}
);
userData = {
assembly = "NPUSHB[ ]	/* 71 values pushed */
8 1 7 5 1 76 0 3 4 6 4 3 6 128 0 6 5 4 6 5 126 0 8 0 1 0 8 1 105 0 0 0 9 0 9 99 0 4 4 2 97 0 2 2 42 77 0 5 5 7 97 0 7 7 40 7 78 44 42 17 18 18 37 34 18 39 35 32 10 8 31
CALL[ ]	/* CallFunction */";
};
width = 569;
}
);
note = ccedilla;
unicode = 231;
},
{
glyphname = d;
kernLeft = c;
layers = (
{
anchors = (
{
name = bottom;
pos = (266,0);
},
{
name = top;
pos = (441,992);
},
{
name = topright;
pos = (731,992);
}
);
layerId = m01;
shapes = (
{
closed = 1;
nodes = (
(361,-12,o),
(437,82,q),
(430,0,l),
(507,0,l),
(630,700,l),
(546,700,l),
(496,413,l),
(475,458,o),
(390,508,o),
(326,508,qs),
(256,508,o),
(126,438,o),
(44,302,o),
(44,207,qs),
(44,152,o),
(87,52,o),
(179,-12,o),
(247,-12,qs)
);
},
{
closed = 1;
nodes = (
(207,61,o),
(131,148,o),
(131,215,qs),
(131,269,o),
(176,370,o),
(265,435,o),
(329,435,qs),
(394,435,o),
(468,357,o),
(468,291,qs),
(468,237,o),
(423,131,o),
(334,61,o),
(271,61,qs)
);
}
);
userData = {
assembly = "PUSHB[ ]	/* 7 values pushed */
15 10 2 5 4 1 76
MPPEM[ ]	/* MeasurePixelPerEm */
PUSHB[ ]	/* 1 value pushed */
21
LT[ ]	/* LessThan */
IF[ ]	/* If */
NPUSHB[ ]	/* 29 values pushed */
0 1 1 33 77 0 4 4 0 97 0 0 0 42 77 7 1 5 5 2 97 6 3 2 2 2 34 2 78
ELSE[ ]	/* Else */
NPUSHB[ ]	/* 33 values pushed */
0 1 1 33 77 0 4 4 0 97 0 0 0 42 77 0 2 2 34 77 7 1 5 5 3 97 6 1 3 3 40 3 78
EIF[ ]	/* EndIf */
NPUSHB[ ]	/* 20 values pushed */
18 18 0 0 18 31 18 30 25 23 0 17 0 16 17 19 38 8 8 25
CALL[ ]	/* CallFunction */";
};
width = 620;
}
);
note = d;
unicode = 100;
},
{
glyphname = dcroat;
kernLeft = c;
layers = (
{
layerId = m01;
shapes = (
{
closed = 1;
nodes = (
(361,-12,o),
(437,82,q),
(430,0,l),
(507,0,l),
(607,571,l),
(654,571,l),
(665,634,l),
(618,634,l),
(630,700,l),
(546,700,l),
(535,634,l),
(363,634,l),
(352,571,l),
(524,571,l),
(496,413,l),
(475,458,o),
(390,508,o),
(326,508,qs),
(256,508,o),
(126,438,o),
(44,302,o),
(44,207,qs),
(44,152,o),
(87,52,o),
(179,-12,o),
(247,-12,qs)
);
},
{
closed = 1;
nodes = (
(131,269,o),
(176,370,o),
(265,435,o),
(329,435,qs),
(394,435,o),
(468,357,o),
(468,291,qs),
(468,237,o),
(423,131,o),
(334,61,o),
(271,61,qs),
(207,61,o),
(131,148,o),
(131,215,qs)
);
}
);
userData = {
assembly = "PUSHB[ ]	/* 7 values pushed */
23 10 2 8 9 1 76
MPPEM[ ]	/* MeasurePixelPerEm */
PUSHB[ ]	/* 1 value pushed */
21
LT[ ]	/* LessThan */
IF[ ]	/* If */
NPUSHB[ ]	/* 38 values pushed */
4 1 2 5 1 1 0 2 1 104 0 3 3 33 77 0 9 9 0 97 0 0 0 42 77 0 8 8 6 97 10 7 2 6 6 34 6 78
ELSE[ ]	/* Else */
NPUSHB[ ]	/* 42 values pushed */
4 1 2 5 1 1 0 2 1 104 0 3 3 33 77 0 9 9 0 97 0 0 0 42 77 0 6 6 34 77 0 8 8 7 97 10 1 7 7 40 7 78
EIF[ ]	/* EndIf */
NPUSHB[ ]	/* 20 values pushed */
0 0 36 34 29 27 0 25 0 24 17 17 17 17 17 19 38 11 8 29
CALL[ ]	/* CallFunction */";
};
width = 619;
}
);
note = dcroat;
unicode = 273;
},
{
glyphname = eth;
kernLeft = c;
layers = (
{
layerId = m01;
shapes = (
{
closed = 1;
nodes = (
(356,-12,o),
(498,78,o),
(582,246,o),
(582,359,qs),
(582,504,o),
(504,619,q),
(601,651,l),
(612,708,l),
(472,662,l),
(450,688,o),
(437,700,q),
(353,700,l),
(378,676,o),
(408,641,q),
(307,608,l),
(296,551,l),
(439,598,l),
(489,521,o),
(506,424,q),
(483,467,o),
(396,507,o),
(341,507,qs),
(261,507,o),
(125,429,o),
(44,294,o),
(44,213,qs),
(44,156,o),
(95,53,o),
(198,-12,o),
(271,-12,qs)
);
},
{
closed = 1;
nodes = (
(213,59,o),
(131,148,o),
(131,220,qs),
(131,278,o),
(187,378,o),
(281,436,o),
(336,436,qs),
(402,436,o),
(487,355,o),
(487,283,qs),
(487,231,o),
(436,127,o),
(341,59,o),
(280,59,qs)
);
}
);
userData = {
assembly = "NPUSHB[ ]	/* 65 values pushed */
23 20 15 13 12 5 0 1 10 1 4 3 2 76 21 1 1 74 0 1 1 33 77 0 3 3 0 97 0 0 0 42 77 6 1 4 4 2 97 5 1 2 2 40 2 78 30 30 0 0 30 43 30 42 37 35 0 29 0 28 25 38 7 8 24
CALL[ ]	/* CallFunction */";
};
width = 616;
}
);
note = eth;
unicode = 240;
},
{
glyphname = e;
kernLeft = c;
kernRight = ae;
layers = (
{
anchors = (
{
name = bottom;
pos = (240,0);
},
{
name = ogonek;
pos = (355,10);
},
{
name = top;
pos = (328,496);
}
);
layerId = m01;
shapes = (
{
closed = 1;
nodes = (
(331,-12,o),
(463,77,o),
(495,148,q),
(412,148,l),
(390,107,o),
(310,59,o),
(259,59,qs),
(201,59,o),
(125,131,o),
(125,199,q),
(127,229,l),
(523,229,l),
(536,294,o),
(536,319,qs),
(536,367,o),
(495,453,o),
(406,508,o),
(337,508,qs),
(263,508,o),
(128,435,o),
(43,294,o),
(43,198,qs),
(43,102,o),
(154,-12,o),
(246,-12,qs)
);
},
{
closed = 1;
nodes = (
(140,294,l),
(160,361,o),
(263,437,o),
(326,437,qs),
(384,437,o),
(454,372,o),
(454,316,qs),
(454,310,o),
(452,294,q)
);
}
);
userData = {
assembly = "NPUSHB[ ]	/* 55 values pushed */
0 3 1 2 1 3 2 128 0 6 0 1 3 6 1 103 0 5 5 0 97 0 0 0 42 77 0 2 2 4 97 7 1 4 4 40 4 78 0 0 33 32 30 28 0 24 0 23 18 35 21 37 8 8 26
CALL[ ]	/* CallFunction */";
};
width = 568;
}
);
note = e;
unicode = 101;
},
{
glyphname = eogonek;
kernLeft = c;
kernRight = ae;
layers = (
{
anchors = (
{
name = bottom;
pos = (240,0);
},
{
name = ogonek;
pos = (355,10);
},
{
name = top;
pos = (328,496);
}
);
layerId = m01;
shapes = (
{
closed = 1;
nodes = (
(140,294,l),
(160,361,o),
(263,437,o),
(326,437,qs),
(384,437,o),
(454,372,o),
(454,316,qs),
(454,310,o),
(452,294,q)
);
},
{
closed = 1;
nodes = (
(286,-193,o),
(325,-180,q),
(334,-124,l),
(298,-139,o),
(267,-139,qs),
(243,-139,o),
(214,-118,o),
(214,-99,qs),
(214,-53,o),
(292,-18,qs),
(347,6,ls),
(397,26,o),
(474,100,o),
(495,148,q),
(412,148,l),
(390,107,o),
(310,59,o),
(259,59,qs),
(201,59,o),
(125,131,o),
(125,199,q),
(127,229,l),
(523,229,l),
(536,294,o),
(536,319,qs),
(536,367,o),
(495,453,o),
(406,508,o),
(337,508,qs),
(263,508,o),
(128,435,o),
(43,294,o),
(43,198,qs),
(43,112,o),
(132,2,o),
(209,-9,q),
(144,-54,o),
(144,-117,qs),
(144,-154,o),
(202,-193,o),
(247,-193,qs)
);
}
);
userData = {
assembly = "NPUSHB[ ]	/* 65 values pushed */
46 13 2 6 4 1 76 0 5 3 4 3 5 4 128 0 4 6 3 4 6 126 0 1 0 3 5 1 3 103 0 6 8 1 7 6 7 102 0 0 0 2 97 0 2 2 42 0 78 9 9 9 49 9 48 40 18 35 21 43 18 35 9 8 29
CALL[ ]	/* CallFunction */";
};
width = 568;
}
);
note = eogonek;
unicode = 281;
},
{
glyphname = uni0259;
kernLeft = c;
kernRight = b;
layers = (
{
layerId = m01;
shapes = (
{
closed = 1;
nodes = (
(315,-12,o),
(449,71,o),
(525,213,o),
(525,298,qs),
(525,394,o),
(414,508,o),
(322,508,qs),
(237,508,o),
(105,419,o),
(73,348,q),
(156,348,l),
(178,389,o),
(258,437,o),
(309,437,qs),
(367,437,o),
(443,365,o),
(443,297,qs),
(443,283,o),
(441,267,q),
(45,267,l),
(32,202,o),
(32,177,qs),
(32,126,o),
(76,40,o),
(165,-12,o),
(231,-12,qs)
);
},
{
closed = 1;
nodes = (
(184,59,o),
(114,124,o),
(114,180,qs),
(114,186,o),
(116,202,q),
(428,202,l),
(408,135,o),
(305,59,o),
(242,59,qs)
);
}
);
userData = {
assembly = "NPUSHB[ ]	/* 60 values pushed */
0 2 1 0 1 2 0 128 0 0 0 5 6 0 5 103 0 1 1 3 97 0 3 3 42 77 8 1 6 6 4 97 7 1 4 4 40 4 78 26 26 0 0 26 34 26 33 29 28 0 25 0 24 34 18 36 21 9 8 26
CALL[ ]	/* CallFunction */";
};
width = 568;
}
);
note = uni0259;
unicode = 601;
},
{
glyphname = f;
kernLeft = f;
kernRight = f;
layers = (
{
layerId = m01;
shapes = (
{
closed = 1;
nodes = (
(136,0,l),
(211,425,l),
(333,425,l),
(346,496,l),
(223,496,l),
(235,560,ls),
(242,597,o),
(280,628,o),
(318,628,qs),
(354,628,l),
(367,700,l),
(318,700,ls),
(247,700,o),
(164,633,o),
(151,562,qs),
(139,496,l),
(65,496,l),
(53,425,l),
(127,425,l),
(52,0,l)
);
}
);
userData = {
assembly = "NPUSHB[ ]	/* 38 values pushed */
0 3 3 2 97 0 2 2 33 77 5 1 0 0 1 95 4 1 1 1 36 77 0 6 6 34 6 78 17 17 19 33 35 17 16 7 8 29
CALL[ ]	/* CallFunction */";
};
width = 334;
}
);
note = f;
unicode = 102;
},
{
glyphname = g;
kernLeft = g;
kernRight = g;
layers = (
{
anchors = (
{
name = bottom;
pos = (167,-310);
},
{
name = top;
pos = (300,496);
}
);
layerId = m01;
shapes = (
{
closed = 1;
nodes = (
(302,-232,o),
(442,-130,o),
(442,-41,qs),
(442,22,o),
(351,89,o),
(274,89,qs),
(186,89,ls),
(113,89,o),
(113,133,qs),
(113,151,o),
(139,176,o),
(160,179,q),
(201,156,o),
(257,156,qs),
(315,156,o),
(413,201,o),
(471,289,o),
(471,349,qs),
(471,393,o),
(452,425,q),
(538,425,l),
(550,496,l),
(366,496,l),
(330,508,o),
(288,508,qs),
(227,508,o),
(130,461,o),
(75,372,o),
(75,313,qs),
(75,263,o),
(103,224,q),
(69,206,o),
(25,145,o),
(25,109,qs),
(25,87,o),
(47,48,o),
(67,37,q),
(24,21,o),
(-24,-47,o),
(-24,-88,qs),
(-24,-157,o),
(97,-232,o),
(185,-232,qs)
);
},
{
closed = 1;
nodes = (
(136,-162,o),
(60,-119,o),
(60,-79,qs),
(60,-33,o),
(127,15,o),
(181,15,qs),
(266,15,ls),
(310,15,o),
(357,-24,o),
(357,-58,qs),
(357,-111,o),
(267,-162,o),
(195,-162,qs)
);
},
{
closed = 1;
nodes = (
(211,226,o),
(155,277,o),
(155,320,qs),
(155,371,o),
(224,438,o),
(280,438,qs),
(329,438,o),
(389,383,o),
(389,341,qs),
(389,291,o),
(315,226,o),
(261,226,qs)
);
}
);
userData = {
assembly = "NPUSHB[ ]	/* 11 values pushed */
30 11 2 3 9 5 1 6 4 2 76
MPPEM[ ]	/* MeasurePixelPerEm */
PUSHB[ ]	/* 1 value pushed */
19
LT[ ]	/* LessThan */
IF[ ]	/* If */
NPUSHB[ ]	/* 44 values pushed */
12 1 9 0 3 4 9 3 105 8 1 2 2 0 97 1 1 0 0 42 77 0 4 4 6 95 0 6 6 34 77 11 1 7 7 5 97 10 1 5 5 38 5 78
ELSE[ ]	/* Else */
MPPEM[ ]	/* MeasurePixelPerEm */
PUSHB[ ]	/* 1 value pushed */
21
LT[ ]	/* LessThan */
IF[ ]	/* If */
NPUSHB[ ]	/* 54 values pushed */
12 1 9 0 3 4 9 3 105 0 8 8 0 97 1 1 0 0 42 77 0 2 2 0 97 1 1 0 0 42 77 0 4 4 6 95 0 6 6 34 77 11 1 7 7 5 97 10 1 5 5 38 5 78
ELSE[ ]	/* Else */
MPPEM[ ]	/* MeasurePixelPerEm */
PUSHB[ ]	/* 1 value pushed */
33
LT[ ]	/* LessThan */
IF[ ]	/* If */
NPUSHB[ ]	/* 52 values pushed */
12 1 9 0 3 4 9 3 105 0 8 8 0 97 0 0 0 42 77 0 2 2 1 95 0 1 1 36 77 0 4 4 6 95 0 6 6 34 77 11 1 7 7 5 97 10 1 5 5 38 5 78
ELSE[ ]	/* Else */
MPPEM[ ]	/* MeasurePixelPerEm */
PUSHB[ ]	/* 1 value pushed */
41
LT[ ]	/* LessThan */
IF[ ]	/* If */
NPUSHB[ ]	/* 50 values pushed */
12 1 9 0 3 4 9 3 105 0 4 0 6 7 4 6 103 0 8 8 0 97 0 0 0 42 77 0 2 2 1 95 0 1 1 36 77 11 1 7 7 5 97 10 1 5 5 38 5 78
ELSE[ ]	/* Else */
NPUSHB[ ]	/* 47 values pushed */
12 1 9 0 3 4 9 3 105 0 4 0 6 7 4 6 103 11 1 7 10 1 5 7 5 101 0 8 8 0 97 0 0 0 42 77 0 2 2 1 95 0 1 1 36 2 78
EIF[ ]	/* EndIf */
EIF[ ]	/* EndIf */
EIF[ ]	/* EndIf */
EIF[ ]	/* EndIf */
NPUSHB[ ]	/* 35 values pushed */
56 56 43 43 0 0 56 67 56 66 62 60 43 55 43 54 50 47 0 42 0 41 37 34 29 27 22 21 20 19 18 16 13 8 22
CALL[ ]	/* CallFunction */";
};
width = 535;
}
);
note = g;
unicode = 103;
},
{
glyphname = h;
kernRight = a;
layers = (
{
layerId = m01;
shapes = (
{
closed = 1;
nodes = (
(110,0,l),
(155,257,ls),
(170,341,o),
(270,436,o),
(336,436,qs),
(441,436,o),
(441,331,qs),
(441,311,o),
(436,281,qs),
(387,0,l),
(471,0,l),
(522,290,ls),
(528,323,o),
(528,352,qs),
(528,430,o),
(444,508,o),
(368,508,qs),
(313,508,o),
(214,456,o),
(182,411,q),
(233,700,l),
(149,700,l),
(26,0,l)
);
}
);
userData = {
assembly = "NPUSHB[ ]	/* 36 values pushed */
2 1 2 3 1 76 0 0 0 33 77 0 3 3 1 97 0 1 1 42 77 4 1 2 2 34 2 78 19 36 21 35 16 5 8 27
CALL[ ]	/* CallFunction */";
};
width = 573;
}
);
note = h;
unicode = 104;
},
{
glyphname = hbar;
kernRight = a;
layers = (
{
layerId = m01;
shapes = (
{
closed = 1;
nodes = (
(110,0,l),
(155,257,ls),
(170,341,o),
(270,436,o),
(336,436,qs),
(441,436,o),
(441,331,qs),
(441,311,o),
(436,281,qs),
(387,0,l),
(471,0,l),
(522,290,ls),
(528,323,o),
(528,352,qs),
(528,430,o),
(444,508,o),
(368,508,qs),
(313,508,o),
(214,456,o),
(182,411,q),
(210,571,l),
(381,571,l),
(392,634,l),
(221,634,l),
(233,700,l),
(149,700,l),
(137,634,l),
(80,634,l),
(69,571,l),
(126,571,l),
(26,0,l)
);
}
);
userData = {
assembly = "NPUSHB[ ]	/* 50 values pushed */
10 1 6 7 1 76 3 1 1 4 1 0 5 1 0 104 0 2 2 33 77 0 7 7 5 97 0 5 5 42 77 8 1 6 6 34 6 78 19 36 21 35 17 17 17 17 16 9 8 31
CALL[ ]	/* CallFunction */";
};
width = 573;
}
);
note = hbar;
unicode = 295;
},
{
glyphname = i;
kernLeft = i;
layers = (
{
anchors = (
{
name = bottom;
pos = (77,0);
}
);
layerId = m01;
shapes = (
{
closed = 1;
nodes = (
(119,0,l),
(206,496,l),
(122,496,l),
(35,0,l)
);
},
{
closed = 1;
nodes = (
(218,606,o),
(252,639,o),
(252,663,qs),
(252,687,o),
(218,720,o),
(194,720,qs),
(169,720,o),
(136,688,o),
(136,663,qs),
(136,638,o),
(169,606,o),
(194,606,qs)
);
}
);
userData = {
assembly = "MPPEM[ ]	/* MeasurePixelPerEm */
PUSHB[ ]	/* 1 value pushed */
39
LT[ ]	/* LessThan */
IF[ ]	/* If */
NPUSHB[ ]	/* 22 values pushed */
4 1 3 3 2 97 0 2 2 41 77 0 0 0 36 77 0 1 1 34 1 78
ELSE[ ]	/* Else */
NPUSHB[ ]	/* 22 values pushed */
4 1 3 3 2 97 0 2 2 39 77 0 0 0 36 77 0 1 1 34 1 78
EIF[ ]	/* EndIf */
NPUSHB[ ]	/* 12 values pushed */
4 4 4 15 4 14 37 17 16 5 8 25
CALL[ ]	/* CallFunction */";
};
width = 241;
}
);
note = i;
unicode = 105;
},
{
glyphname = dotlessi;
kernLeft = dotlessi;
layers = (
{
anchors = (
{
name = bottom;
pos = (68,0);
},
{
name = ogonek;
pos = (110,0);
},
{
name = top;
pos = (156,496);
}
);
layerId = m01;
shapes = (
{
closed = 1;
nodes = (
(110,0,l),
(197,496,l),
(113,496,l),
(26,0,l)
);
}
);
userData = {
assembly = "NPUSHB[ ]	/* 16 values pushed */
0 0 0 36 77 0 1 1 34 1 78 17 16 2 8 24
CALL[ ]	/* CallFunction */";
};
width = 223;
}
);
note = dotlessi;
unicode = 305;
},
{
glyphname = iogonek;
kernLeft = dotlessi;
layers = (
{
anchors = (
{
name = bottom;
pos = (68,0);
},
{
name = ogonek;
pos = (110,0);
},
{
name = top;
pos = (195,720);
}
);
layerId = m01;
shapes = (
{
closed = 1;
nodes = (
(209,606,o),
(243,639,o),
(243,664,qs),
(243,688,o),
(209,720,o),
(185,720,qs),
(160,720,o),
(127,688,o),
(127,664,qs),
(127,639,o),
(160,606,o),
(185,606,qs)
);
},
{
closed = 1;
nodes = (
(41,-203,o),
(80,-190,q),
(89,-134,l),
(53,-149,o),
(22,-149,qs),
(-2,-149,o),
(-31,-128,o),
(-31,-109,qs),
(-31,-63,o),
(47,-28,qs),
(110,0,l),
(197,496,l),
(113,496,l),
(29,15,l),
(-41,-15,o),
(-101,-85,o),
(-101,-127,qs),
(-101,-164,o),
(-43,-203,o),
(2,-203,qs)
);
}
);
userData = {
assembly = "PUSHB[ ]	/* 6 values pushed */
28 1 3 2 1 76
MPPEM[ ]	/* MeasurePixelPerEm */
PUSHB[ ]	/* 1 value pushed */
29
LT[ ]	/* LessThan */
IF[ ]	/* If */
NPUSHB[ ]	/* 28 values pushed */
5 1 1 1 0 97 0 0 0 41 77 0 2 2 36 77 0 3 3 4 97 6 1 4 4 38 4 78
ELSE[ ]	/* Else */
MPPEM[ ]	/* MeasurePixelPerEm */
PUSHB[ ]	/* 1 value pushed */
39
LT[ ]	/* LessThan */
IF[ ]	/* If */
NPUSHB[ ]	/* 25 values pushed */
0 3 6 1 4 3 4 101 5 1 1 1 0 97 0 0 0 41 77 0 2 2 36 2 78
ELSE[ ]	/* Else */
NPUSHB[ ]	/* 25 values pushed */
0 3 6 1 4 3 4 101 5 1 1 1 0 97 0 0 0 39 77 0 2 2 36 2 78
EIF[ ]	/* EndIf */
EIF[ ]	/* EndIf */
NPUSHB[ ]	/* 20 values pushed */
12 12 0 0 12 31 12 30 27 25 19 18 0 11 0 10 36 7 8 23
CALL[ ]	/* CallFunction */";
};
width = 223;
}
);
note = iogonek;
unicode = 303;
},
{
glyphname = j;
kernLeft = j;
layers = (
{
layerId = m01;
shapes = (
{
closed = 1;
nodes = (
(-65,-220,ls),
(78,-220,o),
(101,-82,qs),
(203,496,l),
(119,496,l),
(17,-80,ls),
(11,-116,o),
(-28,-148,o),
(-65,-148,qs),
(-103,-148,l),
(-116,-220,l)
);
},
{
closed = 1;
nodes = (
(216,606,o),
(249,638,o),
(249,663,qs),
(249,688,o),
(216,720,o),
(192,720,qs),
(167,720,o),
(134,688,o),
(134,663,qs),
(134,638,o),
(167,606,o),
(192,606,qs)
);
}
);
userData = {
assembly = "MPPEM[ ]	/* MeasurePixelPerEm */
PUSHB[ ]	/* 1 value pushed */
39
LT[ ]	/* LessThan */
IF[ ]	/* If */
NPUSHB[ ]	/* 27 values pushed */
5 1 4 4 3 97 0 3 3 41 77 0 1 1 36 77 0 0 0 2 97 0 2 2 38 2 78
ELSE[ ]	/* Else */
NPUSHB[ ]	/* 27 values pushed */
5 1 4 4 3 97 0 3 3 39 77 0 1 1 36 77 0 0 0 2 97 0 2 2 38 2 78
EIF[ ]	/* EndIf */
NPUSHB[ ]	/* 13 values pushed */
11 11 11 22 11 21 37 34 19 32 6 8 26
CALL[ ]	/* CallFunction */";
};
width = 242;
}
);
note = j;
unicode = 106;
},
{
glyphname = uni0237;
layers = (
{
anchors = (
{
name = bottom;
pos = (23,-310);
},
{
name = top;
pos = (165,496);
}
);
layerId = m01;
shapes = (
{
closed = 1;
nodes = (
(-65,-220,ls),
(78,-220,o),
(101,-82,qs),
(203,496,l),
(119,496,l),
(17,-80,ls),
(11,-116,o),
(-28,-148,o),
(-65,-148,qs),
(-103,-148,l),
(-116,-220,l)
);
}
);
userData = {
assembly = "NPUSHB[ ]	/* 22 values pushed */
0 1 1 36 77 0 0 0 2 97 0 2 2 38 2 78 34 19 32 3 8 25
CALL[ ]	/* CallFunction */";
};
width = 242;
}
);
note = uni0237;
unicode = 567;
},
{
glyphname = k;
kernRight = k;
layers = (
{
anchors = (
{
name = bottom;
pos = (212,0);
},
{
name = top;
pos = (387,992);
}
);
layerId = m01;
shapes = (
{
closed = 1;
nodes = (
(109,0,l),
(155,261,l),
(351,0,l),
(453,0,l),
(244,273,l),
(511,496,l),
(400,496,l),
(160,287,l),
(233,700,l),
(149,700,l),
(25,0,l)
);
}
);
userData = {
assembly = "NPUSHB[ ]	/* 32 values pushed */
8 5 2 3 2 1 1 76 0 0 0 33 77 0 1 1 36 77 3 1 2 2 34 2 78 18 18 18 16 4 8 26
CALL[ ]	/* CallFunction */";
};
width = 512;
}
);
note = k;
unicode = 107;
},
{
glyphname = l;
layers = (
{
anchors = (
{
name = bottom;
pos = (68,0);
},
{
name = top;
pos = (190,700);
},
{
name = topright;
pos = (334,992);
}
);
layerId = m01;
shapes = (
{
closed = 1;
nodes = (
(109,0,l),
(233,700,l),
(149,700,l),
(25,0,l)
);
}
);
userData = {
assembly = "NPUSHB[ ]	/* 16 values pushed */
0 0 0 33 77 0 1 1 34 1 78 17 16 2 8 24
CALL[ ]	/* CallFunction */";
};
width = 223;
}
);
note = l;
unicode = 108;
},
{
glyphname = ldot;
layers = (
{
layerId = m01;
shapes = (
{
closed = 1;
nodes = (
(111,0,l),
(235,700,l),
(151,700,l),
(27,0,l)
);
},
{
closed = 1;
nodes = (
(323,318,o),
(353,347,o),
(353,367,qs),
(353,388,o),
(323,417,o),
(303,417,qs),
(282,417,o),
(253,388,o),
(253,367,qs),
(253,347,o),
(282,318,o),
(303,318,qs)
);
}
);
userData = {
assembly = "NPUSHB[ ]	/* 32 values pushed */
0 2 4 1 3 1 2 3 105 0 0 0 33 77 0 1 1 34 1 78 4 4 4 15 4 14 37 17 16 5 8 25
CALL[ ]	/* CallFunction */";
};
width = 342;
}
);
note = ldot;
unicode = 320;
},
{
glyphname = lslash;
kernLeft = lslash;
kernRight = lslash;
layers = (
{
layerId = m01;
shapes = (
{
closed = 1;
nodes = (
(119,0,l),
(188,387,l),
(267,418,l),
(281,496,l),
(202,465,l),
(243,700,l),
(159,700,l),
(112,431,l),
(32,401,l),
(19,322,l),
(98,352,l),
(35,0,l)
);
}
);
userData = {
assembly = "NPUSHB[ ]	/* 24 values pushed */
7 6 1 3 1 0 1 76 0 0 0 33 77 0 1 1 34 1 78 21 20 2 8 24
CALL[ ]	/* CallFunction */";
};
width = 267;
}
);
note = lslash;
unicode = 322;
},
{
glyphname = m;
kernLeft = dotlessi;
kernRight = a;
layers = (
{
layerId = m01;
shapes = (
{
closed = 1;
nodes = (
(110,0,l),
(155,257,ls),
(165,313,o),
(216,394,o),
(285,436,o),
(322,436,qs),
(368,436,o),
(416,381,o),
(416,328,qs),
(416,304,o),
(412,281,qs),
(363,0,l),
(446,0,l),
(495,275,ls),
(503,322,o),
(552,396,o),
(622,436,o),
(659,436,qs),
(704,436,o),
(753,383,o),
(753,331,qs),
(753,311,o),
(748,281,qs),
(699,0,l),
(783,0,l),
(834,290,ls),
(840,323,o),
(840,351,qs),
(840,414,o),
(765,508,o),
(679,508,qs),
(627,508,o),
(528,454,o),
(496,407,q),
(481,457,o),
(402,508,o),
(346,508,qs),
(297,508,o),
(211,459,o),
(181,415,q),
(188,496,l),
(113,496,l),
(26,0,l)
);
}
);
userData = {
assembly = "PUSHB[ ]	/* 7 values pushed */
8 2 2 3 4 1 76
MPPEM[ ]	/* MeasurePixelPerEm */
PUSHB[ ]	/* 1 value pushed */
21
LT[ ]	/* LessThan */
IF[ ]	/* If */
NPUSHB[ ]	/* 21 values pushed */
6 1 4 4 0 97 2 1 2 0 0 36 77 7 5 2 3 3 34 3 78
ELSE[ ]	/* Else */
NPUSHB[ ]	/* 25 values pushed */
0 0 0 36 77 6 1 4 4 1 97 2 1 1 1 42 77 7 5 2 3 3 34 3 78
EIF[ ]	/* EndIf */
NPUSHB[ ]	/* 11 values pushed */
20 37 20 37 21 36 35 16 8 8 30
CALL[ ]	/* CallFunction */";
};
width = 885;
}
);
note = m;
unicode = 109;
},
{
glyphname = n;
kernLeft = dotlessi;
kernRight = a;
layers = (
{
anchors = (
{
name = bottom;
pos = (243,0);
},
{
name = top;
pos = (331,496);
}
);
layerId = m01;
shapes = (
{
closed = 1;
nodes = (
(110,0,l),
(157,266,ls),
(170,342,o),
(271,436,o),
(336,436,qs),
(441,436,o),
(441,329,qs),
(441,309,o),
(436,281,qs),
(387,0,l),
(471,0,l),
(522,290,ls),
(528,320,o),
(528,348,qs),
(528,425,o),
(443,508,o),
(368,508,qs),
(311,508,o),
(211,454,o),
(179,406,q),
(189,496,l),
(113,496,l),
(26,0,l)
);
}
);
userData = {
assembly = "PUSHB[ ]	/* 6 values pushed */
2 1 2 3 1 76
MPPEM[ ]	/* MeasurePixelPerEm */
PUSHB[ ]	/* 1 value pushed */
21
LT[ ]	/* LessThan */
IF[ ]	/* If */
NPUSHB[ ]	/* 18 values pushed */
0 3 3 0 97 1 1 0 0 36 77 4 1 2 2 34 2 78
ELSE[ ]	/* Else */
NPUSHB[ ]	/* 22 values pushed */
0 0 0 36 77 0 3 3 1 97 0 1 1 42 77 4 1 2 2 34 2 78
EIF[ ]	/* EndIf */
PUSHB[ ]	/* 8 values pushed */
19 36 21 35 16 5 8 27
CALL[ ]	/* CallFunction */";
};
width = 573;
}
);
note = n;
unicode = 110;
},
{
glyphname = eng;
kernLeft = dotlessi;
kernRight = a;
layers = (
{
anchors = (
{
name = bottom;
pos = (243,0);
},
{
name = top;
pos = (331,496);
}
);
layerId = m01;
shapes = (
{
closed = 1;
nodes = (
(110,0,l),
(157,266,ls),
(171,346,o),
(271,436,o),
(336,436,qs),
(441,436,o),
(441,329,qs),
(441,309,o),
(436,281,qs),
(373,-80,ls),
(366,-117,o),
(328,-148,o),
(291,-148,qs),
(252,-148,l),
(239,-220,l),
(291,-220,ls),
(361,-220,o),
(443,-153,o),
(456,-82,qs),
(522,290,ls),
(528,320,o),
(528,348,qs),
(528,425,o),
(443,508,o),
(368,508,qs),
(311,508,o),
(211,454,o),
(179,406,q),
(189,496,l),
(113,496,l),
(26,0,l)
);
}
);
userData = {
assembly = "PUSHB[ ]	/* 6 values pushed */
2 1 5 4 1 76
MPPEM[ ]	/* MeasurePixelPerEm */
PUSHB[ ]	/* 1 value pushed */
21
LT[ ]	/* LessThan */
IF[ ]	/* If */
NPUSHB[ ]	/* 27 values pushed */
0 4 4 0 97 1 1 0 0 36 77 0 5 5 34 77 0 3 3 2 97 0 2 2 38 2 78
ELSE[ ]	/* Else */
NPUSHB[ ]	/* 31 values pushed */
0 0 0 36 77 0 4 4 1 97 0 1 1 42 77 0 5 5 34 77 0 3 3 2 97 0 2 2 38 2 78
EIF[ ]	/* EndIf */
NPUSHB[ ]	/* 9 values pushed */
19 38 33 39 35 16 6 8 28
CALL[ ]	/* CallFunction */";
};
width = 573;
}
);
note = eng;
unicode = 331;
},
{
glyphname = o;
kernLeft = c;
kernRight = b;
layers = (
{
anchors = (
{
name = bottom;
pos = (253,0);
},
{
name = ogonek;
pos = (367,10);
},
{
name = top;
pos = (341,496);
},
{
name = topright;
pos = (617,496);
}
);
layerId = m01;
shapes = (
{
closed = 1;
nodes = (
(338,-12,o),
(472,69,o),
(549,210,o),
(549,295,qs),
(549,358,o),
(495,454,o),
(399,508,o),
(337,508,qs),
(256,508,o),
(122,429,o),
(43,290,o),
(43,204,qs),
(43,142,o),
(97,43,o),
(193,-12,o),
(255,-12,qs)
);
},
{
closed = 1;
nodes = (
(206,60,o),
(131,141,o),
(131,207,qs),
(131,272,o),
(182,376,o),
(271,436,o),
(326,436,qs),
(384,436,o),
(463,357,o),
(463,289,qs),
(463,224,o),
(412,120,o),
(322,60,o),
(266,60,qs)
);
}
);
userData = {
assembly = "NPUSHB[ ]	/* 41 values pushed */
0 2 2 0 97 0 0 0 42 77 5 1 3 3 1 97 4 1 1 1 40 1 78 16 16 0 0 16 29 16 28 23 21 0 15 0 14 38 6 8 23
CALL[ ]	/* CallFunction */";
};
width = 593;
}
);
note = o;
unicode = 111;
},
{
glyphname = oslash;
layers = (
{
layerId = m01;
shapes = (
{
closed = 1;
nodes = (
(338,-12,o),
(473,70,o),
(551,211,o),
(551,295,qs),
(551,366,o),
(516,419,q),
(597,496,l),
(518,496,l),
(480,460,l),
(422,508,o),
(338,508,qs),
(257,508,o),
(122,428,o),
(45,289,o),
(45,204,qs),
(45,134,o),
(81,78,q),
(-1,0,l),
(79,0,l),
(117,37,l),
(174,-12,o),
(257,-12,qs)
);
},
{
closed = 1;
nodes = (
(212,58,o),
(175,92,q),
(453,358,l),
(466,329,o),
(466,289,qs),
(466,234,o),
(421,128,o),
(332,58,o),
(268,58,qs)
);
},
{
closed = 1;
nodes = (
(143,138,l),
(130,168,o),
(130,207,qs),
(130,261,o),
(175,368,o),
(265,438,o),
(328,438,qs),
(384,438,o),
(421,404,q)
);
}
);
userData = {
assembly = "MPPEM[ ]	/* MeasurePixelPerEm */
PUSHB[ ]	/* 1 value pushed */
21
LT[ ]	/* LessThan */
IF[ ]	/* If */
NPUSHB[ ]	/* 19 values pushed */
12 1 5 1 39 38 28 27 15 4 6 4 5 1 1 0 4 3 76
ELSE[ ]	/* Else */
NPUSHB[ ]	/* 19 values pushed */
12 1 5 2 39 38 28 27 15 4 6 4 5 1 1 0 4 3 76
EIF[ ]	/* EndIf */
MPPEM[ ]	/* MeasurePixelPerEm */
PUSHB[ ]	/* 1 value pushed */
21
LT[ ]	/* LessThan */
IF[ ]	/* If */
NPUSHB[ ]	/* 25 values pushed */
0 5 5 1 97 2 1 1 1 42 77 7 1 4 4 0 97 6 3 2 0 0 34 0 78
ELSE[ ]	/* Else */
NPUSHB[ ]	/* 33 values pushed */
0 2 2 36 77 0 5 5 1 97 0 1 1 42 77 0 0 0 34 77 7 1 4 4 3 97 6 1 3 3 40 3 78
EIF[ ]	/* EndIf */
NPUSHB[ ]	/* 20 values pushed */
22 22 0 0 33 31 22 30 22 29 0 21 0 20 18 38 18 8 8 25
CALL[ ]	/* CallFunction */";
};
width = 596;
}
);
note = oslash;
unicode = 248;
},
{
glyphname = oe;
kernLeft = c;
kernRight = ae;
layers = (
{
anchors = (
{
name = bottom;
pos = (448,0);
},
{
name = top;
pos = (536,496);
}
);
layerId = m01;
shapes = (
{
closed = 1;
nodes = (
(323,-12,o),
(440,47,o),
(481,98,q),
(505,46,o),
(599,-12,o),
(663,-12,qs),
(738,-12,o),
(876,70,o),
(914,148,q),
(831,148,l),
(806,106,o),
(726,59,o),
(675,59,qs),
(618,59,o),
(541,131,o),
(541,198,qs),
(541,213,o),
(544,229,q),
(939,229,l),
(952,298,o),
(952,319,qs),
(952,368,o),
(911,454,o),
(822,508,o),
(756,508,qs),
(687,508,o),
(566,448,o),
(526,394,q),
(502,448,o),
(403,508,o),
(337,508,qs),
(256,508,o),
(121,428,o),
(43,289,o),
(43,204,qs),
(43,148,o),
(92,49,o),
(188,-12,o),
(255,-12,qs)
);
},
{
closed = 1;
nodes = (
(200,60,o),
(131,142,o),
(131,207,qs),
(131,261,o),
(176,367,o),
(264,436,o),
(326,436,qs),
(384,436,o),
(463,357,o),
(463,289,qs),
(463,234,o),
(418,128,o),
(329,60,o),
(266,60,qs)
);
},
{
closed = 1;
nodes = (
(556,294,l),
(576,361,o),
(679,437,o),
(742,437,qs),
(800,437,o),
(870,373,o),
(870,317,qs),
(870,310,o),
(868,294,q)
);
}
);
userData = {
assembly = "NPUSHB[ ]	/* 80 values pushed */
10 1 10 7 35 1 3 4 2 76 0 4 2 3 2 4 3 128 0 10 0 2 4 10 2 103 9 1 7 7 0 97 1 1 0 0 42 77 12 8 2 3 3 5 97 11 6 2 5 5 40 5 78 39 39 0 0 61 60 58 56 39 52 39 51 46 44 0 38 0 37 34 18 36 21 36 38 13 8 28
CALL[ ]	/* CallFunction */";
};
width = 983;
}
);
note = oe;
unicode = 339;
},
{
glyphname = p;
kernLeft = p;
kernRight = b;
layers = (
{
layerId = m01;
shapes = (
{
closed = 1;
nodes = (
(70,-220,l),
(125,84,l),
(145,41,o),
(234,-12,o),
(290,-12,qs),
(372,-12,o),
(503,68,o),
(577,208,o),
(577,295,qs),
(577,391,o),
(465,508,o),
(372,508,qs),
(257,508,o),
(183,414,q),
(191,496,l),
(113,496,l),
(-14,-220,l)
);
},
{
closed = 1;
nodes = (
(230,61,o),
(152,142,o),
(152,209,qs),
(152,272,o),
(204,376,o),
(294,435,o),
(351,435,qs),
(414,435,o),
(490,350,o),
(490,283,qs),
(490,219,o),
(440,118,o),
(352,61,o),
(295,61,qs)
);
}
);
userData = {
assembly = "PUSHB[ ]	/* 7 values pushed */
14 2 2 5 4 1 76
MPPEM[ ]	/* MeasurePixelPerEm */
PUSHB[ ]	/* 1 value pushed */
21
LT[ ]	/* LessThan */
IF[ ]	/* If */
NPUSHB[ ]	/* 28 values pushed */
0 4 4 0 97 1 1 0 0 36 77 6 1 5 5 2 97 0 2 2 40 77 0 3 3 38 3 78
ELSE[ ]	/* Else */
NPUSHB[ ]	/* 32 values pushed */
0 0 0 36 77 0 4 4 1 97 0 1 1 42 77 6 1 5 5 2 97 0 2 2 40 77 0 3 3 38 3 78
EIF[ ]	/* EndIf */
NPUSHB[ ]	/* 14 values pushed */
17 17 17 30 17 29 38 19 37 34 16 7 8 27
CALL[ ]	/* CallFunction */";
};
width = 620;
}
);
note = p;
unicode = 112;
},
{
glyphname = thorn;
kernRight = b;
layers = (
{
layerId = m01;
shapes = (
{
closed = 1;
nodes = (
(70,-220,l),
(125,84,l),
(145,41,o),
(234,-12,o),
(290,-12,qs),
(372,-12,o),
(503,68,o),
(577,208,o),
(577,295,qs),
(577,391,o),
(465,508,o),
(372,508,qs),
(260,508,o),
(184,419,q),
(233,700,l),
(148,700,l),
(-14,-220,l)
);
},
{
closed = 1;
nodes = (
(230,61,o),
(152,142,o),
(152,209,qs),
(152,272,o),
(204,376,o),
(294,435,o),
(351,435,qs),
(414,435,o),
(490,350,o),
(490,283,qs),
(490,219,o),
(440,118,o),
(352,61,o),
(295,61,qs)
);
}
);
userData = {
assembly = "NPUSHB[ ]	/* 53 values pushed */
14 2 2 5 4 1 76 0 0 0 33 77 0 4 4 1 97 0 1 1 42 77 6 1 5 5 2 97 0 2 2 40 77 0 3 3 38 3 78 17 17 17 30 17 29 38 19 37 34 16 7 8 27
CALL[ ]	/* CallFunction */";
};
width = 620;
}
);
note = thorn;
unicode = 254;
},
{
glyphname = q;
kernLeft = c;
layers = (
{
layerId = m01;
shapes = (
{
closed = 1;
nodes = (
(385,-220,l),
(469,-220,l),
(595,496,l),
(519,496,l),
(496,413,l),
(475,458,o),
(390,508,o),
(326,508,qs),
(256,508,o),
(126,438,o),
(44,302,o),
(44,207,qs),
(44,152,o),
(87,52,o),
(179,-12,o),
(247,-12,qs),
(361,-12,o),
(437,82,q)
);
},
{
closed = 1;
nodes = (
(207,61,o),
(131,148,o),
(131,215,qs),
(131,269,o),
(176,370,o),
(265,435,o),
(329,435,qs),
(394,435,o),
(468,357,o),
(468,291,qs),
(468,237,o),
(423,131,o),
(334,61,o),
(271,61,qs)
);
}
);
userData = {
assembly = "PUSHB[ ]	/* 7 values pushed */
17 12 2 5 4 1 76
MPPEM[ ]	/* MeasurePixelPerEm */
PUSHB[ ]	/* 1 value pushed */
21
LT[ ]	/* LessThan */
IF[ ]	/* If */
NPUSHB[ ]	/* 28 values pushed */
0 4 4 1 97 2 1 1 1 42 77 6 1 5 5 0 97 0 0 0 40 77 0 3 3 38 3 78
ELSE[ ]	/* Else */
NPUSHB[ ]	/* 32 values pushed */
0 2 2 36 77 0 4 4 1 97 0 1 1 42 77 6 1 5 5 0 97 0 0 0 40 77 0 3 3 38 3 78
EIF[ ]	/* EndIf */
NPUSHB[ ]	/* 14 values pushed */
18 18 18 31 18 30 39 17 19 38 32 7 8 27
CALL[ ]	/* CallFunction */";
};
width = 621;
}
);
note = q;
unicode = 113;
},
{
glyphname = r;
kernLeft = dotlessi;
kernRight = r;
layers = (
{
anchors = (
{
name = bottom;
pos = (71,0);
},
{
name = top;
pos = (229,496);
}
);
layerId = m01;
shapes = (
{
closed = 1;
nodes = (
(110,0,l),
(157,267,ls),
(184,420,o),
(347,420,qs),
(370,420,l),
(385,508,l),
(320,508,o),
(214,455,o),
(181,408,q),
(190,496,l),
(113,496,l),
(26,0,l)
);
}
);
userData = {
assembly = "PUSHB[ ]	/* 6 values pushed */
2 1 3 2 1 76
MPPEM[ ]	/* MeasurePixelPerEm */
PUSHB[ ]	/* 1 value pushed */
21
LT[ ]	/* LessThan */
IF[ ]	/* If */
NPUSHB[ ]	/* 17 values pushed */
0 2 2 0 97 1 1 0 0 36 77 0 3 3 34 3 78
ELSE[ ]	/* Else */
NPUSHB[ ]	/* 21 values pushed */
0 0 0 36 77 0 2 2 1 97 0 1 1 42 77 0 3 3 34 3 78
EIF[ ]	/* EndIf */
PUSHB[ ]	/* 7 values pushed */
18 33 19 16 4 8 26
CALL[ ]	/* CallFunction */";
};
width = 369;
}
);
note = r;
unicode = 114;
},
{
glyphname = s;
kernLeft = s;
kernRight = s;
layers = (
{
anchors = (
{
name = bottom;
pos = (216,0);
},
{
name = top;
pos = (304,496);
}
);
layerId = m01;
shapes = (
{
closed = 1;
nodes = (
(285,-12,o),
(383,31,o),
(437,109,o),
(437,159,qs),
(437,219,o),
(348,277,o),
(279,292,qs),
(225,305,o),
(174,335,o),
(174,363,qs),
(174,394,o),
(234,437,o),
(279,437,qs),
(325,437,o),
(376,393,o),
(374,356,q),
(458,356,l),
(462,427,o),
(368,508,o),
(288,508,qs),
(231,508,o),
(139,467,o),
(87,394,o),
(87,350,qs),
(87,312,o),
(131,259,o),
(169,244,qs),
(206,228,o),
(241,221,qs),
(296,210,o),
(349,179,o),
(349,148,qs),
(349,106,o),
(286,59,o),
(232,59,qs),
(170,59,o),
(113,118,o),
(115,164,q),
(30,164,l),
(23,83,o),
(127,-12,o),
(220,-12,qs)
);
}
);
userData = {
assembly = "NPUSHB[ ]	/* 51 values pushed */
0 3 4 0 4 3 0 128 0 0 1 4 0 1 126 0 4 4 2 97 0 2 2 42 77 0 1 1 5 97 6 1 5 5 40 5 78 0 0 0 41 0 40 34 18 45 34 18 7 8 27
CALL[ ]	/* CallFunction */";
};
width = 504;
}
);
note = s;
unicode = 115;
},
{
glyphname = scedilla;
kernLeft = s;
kernRight = s;
layers = (
{
anchors = (
{
name = bottom;
pos = (171,-259);
},
{
name = top;
pos = (304,496);
}
);
layerId = m01;
shapes = (
{
closed = 1;
nodes = (
(205,-259,ls),
(264,-259,o),
(344,-194,o),
(344,-140,qs),
(344,-102,o),
(282,-62,o),
(230,-63,q),
(239,-11,l),
(329,-7,o),
(437,87,o),
(437,159,qs),
(437,219,o),
(348,277,o),
(279,292,qs),
(225,305,o),
(174,335,o),
(174,363,qs),
(174,394,o),
(234,437,o),
(279,437,qs),
(325,437,o),
(376,393,o),
(374,356,q),
(458,356,l),
(462,427,o),
(368,508,o),
(288,508,qs),
(231,508,o),
(139,467,o),
(87,394,o),
(87,350,qs),
(87,312,o),
(131,259,o),
(169,244,qs),
(206,228,o),
(241,221,qs),
(296,210,o),
(349,179,o),
(349,148,qs),
(349,106,o),
(286,59,o),
(232,59,qs),
(170,59,o),
(113,118,o),
(115,164,q),
(30,164,l),
(24,92,o),
(106,-1,o),
(183,-10,q),
(165,-113,l),
(214,-113,ls),
(275,-113,o),
(275,-149,qs),
(275,-177,o),
(235,-206,o),
(198,-206,qs),
(106,-206,l),
(97,-259,l)
);
}
);
userData = {
assembly = "NPUSHB[ ]	/* 71 values pushed */
8 1 8 7 1 76 0 5 6 2 6 5 2 128 0 2 3 6 2 3 126 0 8 0 1 0 8 1 105 0 0 0 9 0 9 100 0 6 6 4 97 0 4 4 42 77 0 3 3 7 97 0 7 7 40 7 78 57 55 17 26 34 18 45 34 20 35 32 10 8 31
CALL[ ]	/* CallFunction */";
};
width = 504;
}
);
note = scedilla;
unicode = 351;
},
{
glyphname = germandbls;
kernRight = germandbls;
layers = (
{
layerId = m01;
shapes = (
{
closed = 1;
nodes = (
(458,-10,o),
(555,36,o),
(610,119,o),
(610,172,qs),
(610,223,o),
(558,286,o),
(499,307,qs),
(454,322,o),
(398,352,o),
(398,377,qs),
(398,396,o),
(432,427,o),
(468,448,qs),
(514,478,ls),
(544,500,o),
(577,554,o),
(577,593,qs),
(577,653,o),
(477,732,o),
(387,732,qs),
(277,732,o),
(137,616,o),
(120,520,qs),
(27,0,l),
(111,0,l),
(202,512,ls),
(214,583,o),
(300,661,o),
(374,661,qs),
(429,661,o),
(491,618,o),
(491,581,qs),
(491,554,o),
(463,514,o),
(423,485,o),
(385,463,qs),
(348,441,o),
(311,392,o),
(311,360,qs),
(311,321,o),
(370,270,o),
(438,246,qs),
(484,229,o),
(524,191,o),
(524,163,qs),
(524,115,o),
(459,56,o),
(407,56,qs),
(359,56,o),
(306,108,o),
(306,153,qs),
(306,164,o),
(307,169,q),
(223,169,l),
(216,88,o),
(310,-10,o),
(397,-10,qs)
);
}
);
userData = {
assembly = "MPPEM[ ]	/* MeasurePixelPerEm */
PUSHB[ ]	/* 1 value pushed */
25
LT[ ]	/* LessThan */
IF[ ]	/* If */
NPUSHB[ ]	/* 31 values pushed */
0 0 2 1 2 0 1 128 0 2 2 4 97 0 4 4 41 77 0 1 1 3 97 6 5 2 3 3 34 3 78
ELSE[ ]	/* Else */
MPPEM[ ]	/* MeasurePixelPerEm */
PUSHB[ ]	/* 1 value pushed */
39
LT[ ]	/* LessThan */
IF[ ]	/* If */
NPUSHB[ ]	/* 35 values pushed */
0 0 2 1 2 0 1 128 0 2 2 4 97 0 4 4 41 77 0 3 3 34 77 0 1 1 5 97 6 1 5 5 40 5 78
ELSE[ ]	/* Else */
NPUSHB[ ]	/* 33 values pushed */
0 0 2 1 2 0 1 128 0 4 0 2 0 4 2 105 0 3 3 34 77 0 1 1 5 97 6 1 5 5 40 5 78
EIF[ ]	/* EndIf */
EIF[ ]	/* EndIf */
NPUSHB[ ]	/* 17 values pushed */
0 0 0 56 0 55 37 35 32 31 28 26 36 18 7 8 24
CALL[ ]	/* CallFunction */";
};
width = 669;
}
);
note = germandbls;
unicode = 223;
},
{
glyphname = t;
kernLeft = t;
kernRight = t;
layers = (
{
anchors = (
{
name = bottom;
pos = (160,0);
},
{
name = top;
pos = (229,496);
},
{
name = topright;
pos = (349,992);
}
);
layerId = m01;
shapes = (
{
closed = 1;
nodes = (
(283,0,l),
(296,72,l),
(231,72,ls),
(193,72,o),
(161,96,o),
(161,126,qs),
(163,154,l),
(212,425,l),
(358,425,l),
(371,496,l),
(224,496,l),
(246,615,l),
(161,615,l),
(140,496,l),
(63,496,l),
(50,425,l),
(127,425,l),
(79,154,ls),
(75,131,o),
(75,108,qs),
(75,51,o),
(140,0,o),
(205,0,qs)
);
}
);
userData = {
assembly = "PUSHB[ ]	/* 6 values pushed */
16 1 5 0 1 76
MPPEM[ ]	/* MeasurePixelPerEm */
PUSHB[ ]	/* 1 value pushed */
11
LT[ ]	/* LessThan */
IF[ ]	/* If */
NPUSHB[ ]	/* 30 values pushed */
0 2 1 1 2 112 4 1 0 0 1 95 3 1 1 1 36 77 0 5 5 6 95 7 1 6 6 34 6 78
ELSE[ ]	/* Else */
NPUSHB[ ]	/* 29 values pushed */
0 2 1 2 133 4 1 0 0 1 95 3 1 1 1 36 77 0 5 5 6 95 7 1 6 6 34 6 78
EIF[ ]	/* EndIf */
NPUSHB[ ]	/* 15 values pushed */
0 0 0 22 0 21 36 17 17 17 17 21 8 8 28
CALL[ ]	/* CallFunction */";
};
width = 370;
}
);
note = t;
unicode = 116;
},
{
glyphname = uni0163;
kernLeft = t;
kernRight = t;
layers = (
{
anchors = (
{
name = bottom;
pos = (115,-259);
},
{
name = top;
pos = (229,496);
},
{
name = topright;
pos = (349,992);
}
);
layerId = m01;
shapes = (
{
closed = 1;
nodes = (
(283,0,l),
(296,72,l),
(231,72,ls),
(193,72,o),
(161,96,o),
(161,126,qs),
(163,154,l),
(212,425,l),
(358,425,l),
(371,496,l),
(224,496,l),
(246,615,l),
(161,615,l),
(140,496,l),
(63,496,l),
(50,425,l),
(127,425,l),
(79,154,ls),
(75,131,o),
(75,108,qs),
(75,35,o),
(131,12,q),
(109,-113,l),
(158,-113,ls),
(219,-113,o),
(219,-149,qs),
(219,-177,o),
(179,-206,o),
(142,-206,qs),
(50,-206,l),
(41,-259,l),
(149,-259,ls),
(208,-259,o),
(288,-194,o),
(288,-140,qs),
(288,-102,o),
(226,-62,o),
(174,-63,q),
(185,1,l),
(205,0,l)
);
}
);
userData = {
assembly = "NPUSHB[ ]	/* 10 values pushed */
33 1 9 4 17 1 10 9 2 76
MPPEM[ ]	/* MeasurePixelPerEm */
PUSHB[ ]	/* 1 value pushed */
11
LT[ ]	/* LessThan */
IF[ ]	/* If */
NPUSHB[ ]	/* 45 values pushed */
0 6 5 5 6 112 0 0 0 3 2 0 3 105 0 2 0 1 2 1 99 8 1 4 4 5 95 7 1 5 5 36 77 0 9 9 10 95 11 1 10 10 34 10 78
ELSE[ ]	/* Else */
NPUSHB[ ]	/* 44 values pushed */
0 6 5 6 133 0 0 0 3 2 0 3 105 0 2 0 1 2 1 99 8 1 4 4 5 95 7 1 5 5 36 77 0 9 9 10 95 11 1 10 10 34 10 78
EIF[ ]	/* EndIf */
NPUSHB[ ]	/* 20 values pushed */
0 0 0 39 0 38 37 35 17 17 17 17 22 35 33 36 17 12 8 31
CALL[ ]	/* CallFunction */";
};
width = 370;
}
);
note = uni0163;
unicode = 355;
},
{
glyphname = u;
kernLeft = u;
layers = (
{
anchors = (
{
name = bottom;
pos = (243,0);
},
{
name = ogonek;
pos = (460,0);
},
{
name = top;
pos = (331,496);
},
{
name = topright;
pos = (597,496);
}
);
layerId = m01;
shapes = (
{
closed = 1;
nodes = (
(262,-12,o),
(362,42,o),
(394,90,q),
(384,0,l),
(460,0,l),
(547,496,l),
(463,496,l),
(416,230,ls),
(402,150,o),
(302,60,o),
(237,60,qs),
(132,60,o),
(132,167,qs),
(132,187,o),
(137,215,qs),
(186,496,l),
(102,496,l),
(51,206,ls),
(45,176,o),
(45,148,qs),
(45,71,o),
(130,-12,o),
(205,-12,qs)
);
}
);
userData = {
assembly = "PUSHB[ ]	/* 6 values pushed */
19 1 1 0 1 76
MPPEM[ ]	/* MeasurePixelPerEm */
PUSHB[ ]	/* 1 value pushed */
21
LT[ ]	/* LessThan */
IF[ ]	/* If */
NPUSHB[ ]	/* 19 values pushed */
2 1 0 0 36 77 0 1 1 3 98 5 4 2 3 3 34 3 78
ELSE[ ]	/* Else */
NPUSHB[ ]	/* 23 values pushed */
2 1 0 0 36 77 0 3 3 34 77 0 1 1 4 98 5 1 4 4 40 4 78
EIF[ ]	/* EndIf */
NPUSHB[ ]	/* 13 values pushed */
0 0 0 22 0 21 17 19 36 21 6 8 26
CALL[ ]	/* CallFunction */";
};
width = 573;
}
);
note = u;
unicode = 117;
},
{
glyphname = uogonek;
kernLeft = u;
layers = (
{
anchors = (
{
name = bottom;
pos = (243,0);
},
{
name = ogonek;
pos = (460,0);
},
{
name = top;
pos = (331,496);
},
{
name = topright;
pos = (597,496);
}
);
layerId = m01;
shapes = (
{
closed = 1;
nodes = (
(262,-12,o),
(362,42,o),
(394,90,q),
(386,18,l),
(312,-12,o),
(249,-84,o),
(249,-127,qs),
(249,-164,o),
(307,-203,o),
(352,-203,qs),
(391,-203,o),
(430,-190,q),
(439,-134,l),
(403,-149,o),
(372,-149,qs),
(348,-149,o),
(319,-128,o),
(319,-109,qs),
(319,-63,o),
(397,-28,qs),
(460,0,l),
(547,496,l),
(463,496,l),
(416,230,ls),
(402,150,o),
(302,60,o),
(237,60,qs),
(132,60,o),
(132,167,qs),
(132,187,o),
(137,215,qs),
(186,496,l),
(102,496,l),
(51,206,ls),
(45,176,o),
(45,148,qs),
(45,71,o),
(130,-12,o),
(205,-12,qs)
);
}
);
userData = {
assembly = "NPUSHB[ ]	/* 10 values pushed */
35 1 1 0 25 1 3 5 2 76
MPPEM[ ]	/* MeasurePixelPerEm */
PUSHB[ ]	/* 1 value pushed */
29
LT[ ]	/* LessThan */
IF[ ]	/* If */
NPUSHB[ ]	/* 28 values pushed */
2 1 0 0 36 77 0 1 1 5 98 6 1 5 5 40 77 0 3 3 4 97 0 4 4 38 4 78
ELSE[ ]	/* Else */
NPUSHB[ ]	/* 25 values pushed */
0 3 0 4 3 4 101 2 1 0 0 36 77 0 1 1 5 98 6 1 5 5 40 5 78
EIF[ ]	/* EndIf */
NPUSHB[ ]	/* 14 values pushed */
0 0 0 38 0 37 35 38 19 36 21 7 8 27
CALL[ ]	/* CallFunction */";
};
width = 573;
}
);
note = uogonek;
unicode = 371;
},
{
glyphname = v;
kernLeft = v;
kernRight = v;
layers = (
{
layerId = m01;
shapes = (
{
closed = 1;
nodes = (
(270,0,l),
(554,496,l),
(465,496,l),
(235,80,l),
(150,496,l),
(63,496,l),
(171,0,l)
);
}
);
userData = {
assembly = "NPUSHB[ ]	/* 24 values pushed */
2 1 2 0 1 76 1 1 0 0 36 77 0 2 2 34 2 78 17 18 16 3 8 25
CALL[ ]	/* CallFunction */";
};
width = 530;
}
);
note = v;
unicode = 118;
},
{
glyphname = w;
kernLeft = w;
kernRight = w;
layers = (
{
anchors = (
{
name = bottom;
pos = (329,0);
},
{
name = top;
pos = (417,496);
}
);
layerId = m01;
shapes = (
{
closed = 1;
nodes = (
(207,0,l),
(401,409,l),
(451,0,l),
(537,0,l),
(769,496,l),
(685,496,l),
(511,107,l),
(464,496,l),
(369,496,l),
(184,107,l),
(148,496,l),
(63,496,l),
(122,0,l)
);
}
);
userData = {
assembly = "NPUSHB[ ]	/* 30 values pushed */
10 5 2 3 3 0 1 76 2 1 2 0 0 36 77 4 1 3 3 34 3 78 18 17 18 18 16 5 8 27
CALL[ ]	/* CallFunction */";
};
width = 745;
}
);
note = w;
unicode = 119;
},
{
glyphname = x;
kernLeft = x;
kernRight = x;
layers = (
{
layerId = m01;
shapes = (
{
closed = 1;
nodes = (
(67,0,l),
(242,205,l),
(346,0,l),
(432,0,l),
(306,245,l),
(523,496,l),
(433,496,l),
(258,291,l),
(154,496,l),
(67,496,l),
(194,251,l),
(-24,0,l)
);
}
);
userData = {
assembly = "NPUSHB[ ]	/* 28 values pushed */
9 6 3 3 2 0 1 76 1 1 0 0 36 77 3 1 2 2 34 2 78 18 18 18 17 4 8 26
CALL[ ]	/* CallFunction */";
};
width = 499;
}
);
note = x;
unicode = 120;
},
{
glyphname = y;
kernLeft = y;
kernRight = y;
layers = (
{
anchors = (
{
name = bottom;
pos = (234,0);
},
{
name = top;
pos = (322,496);
}
);
layerId = m01;
shapes = (
{
closed = 1;
nodes = (
(129,-220,l),
(580,496,l),
(492,496,l),
(251,110,l),
(152,496,l),
(63,496,l),
(192,19,l),
(41,-220,l)
);
}
);
userData = {
assembly = "NPUSHB[ ]	/* 24 values pushed */
3 1 2 0 1 76 1 1 0 0 36 77 0 2 2 38 2 78 17 18 17 3 8 25
CALL[ ]	/* CallFunction */";
};
width = 555;
}
);
note = y;
unicode = 121;
},
{
glyphname = z;
kernLeft = z;
kernRight = z;
layers = (
{
anchors = (
{
name = bottom;
pos = (193,0);
},
{
name = top;
pos = (281,496);
}
);
layerId = m01;
shapes = (
{
closed = 1;
nodes = (
(371,0,l),
(384,70,l),
(104,70,l),
(453,427,l),
(466,496,l),
(100,496,l),
(87,426,l),
(357,426,l),
(9,69,l),
(-4,0,l)
);
}
);
userData = {
assembly = "NPUSHB[ ]	/* 28 values pushed */
0 0 0 1 95 0 1 1 36 77 0 2 2 3 95 0 3 3 34 3 78 17 18 17 17 4 8 26
CALL[ ]	/* CallFunction */";
};
width = 464;
}
);
note = z;
unicode = 122;
},
{
glyphname = uniA78C;
layers = (
{
layerId = m01;
shapes = (
{
closed = 1;
nodes = (
(157,339,l),
(236,700,l),
(145,700,l),
(96,339,l)
);
}
);
userData = {
assembly = "NPUSHB[ ]	/* 16 values pushed */
0 1 1 0 95 0 0 0 33 1 78 17 16 2 8 24
CALL[ ]	/* CallFunction */";
};
width = 221;
}
);
note = uniA78C;
unicode = 42892;
},
{
glyphname = fi;
layers = (
{
anchors = (
{
name = caret_1;
pos = (288,0);
}
);
layerId = m01;
shapes = (
{
closed = 1;
nodes = (
(136,0,l),
(211,425,l),
(333,425,l),
(346,496,l),
(223,496,l),
(235,560,ls),
(242,597,o),
(280,628,o),
(318,628,qs),
(354,628,l),
(367,700,l),
(318,700,ls),
(247,700,o),
(164,633,o),
(151,562,qs),
(139,496,l),
(65,496,l),
(53,425,l),
(127,425,l),
(52,0,l)
);
},
{
closed = 1;
nodes = (
(453,0,l),
(540,496,l),
(456,496,l),
(369,0,l)
);
},
{
closed = 1;
nodes = (
(552,606,o),
(586,639,o),
(586,663,qs),
(586,687,o),
(552,720,o),
(528,720,qs),
(503,720,o),
(470,688,o),
(470,663,qs),
(470,638,o),
(503,606,o),
(528,606,qs)
);
}
);
userData = {
assembly = "MPPEM[ ]	/* MeasurePixelPerEm */
PUSHB[ ]	/* 1 value pushed */
39
LT[ ]	/* LessThan */
IF[ ]	/* If */
NPUSHB[ ]	/* 41 values pushed */
0 3 3 2 97 0 2 2 33 77 11 1 10 10 9 97 0 9 9 41 77 5 1 0 0 1 95 7 4 2 1 1 36 77 8 1 6 6 34 6 78
ELSE[ ]	/* Else */
NPUSHB[ ]	/* 41 values pushed */
0 3 3 2 97 0 2 2 33 77 11 1 10 10 9 97 0 9 9 39 77 5 1 0 0 1 95 7 4 2 1 1 36 77 8 1 6 6 34 6 78
EIF[ ]	/* EndIf */
NPUSHB[ ]	/* 20 values pushed */
24 24 24 35 24 34 30 28 17 17 17 17 19 33 35 17 16 12 8 31
CALL[ ]	/* CallFunction */";
};
width = 575;
}
);
note = fi;
unicode = 64257;
},
{
glyphname = fl;
layers = (
{
anchors = (
{
name = caret_1;
pos = (279,0);
}
);
layerId = m01;
shapes = (
{
closed = 1;
nodes = (
(136,0,l),
(211,425,l),
(333,425,l),
(346,496,l),
(223,496,l),
(235,560,ls),
(242,597,o),
(280,628,o),
(318,628,qs),
(354,628,l),
(367,700,l),
(318,700,ls),
(247,700,o),
(164,633,o),
(151,562,qs),
(139,496,l),
(65,496,l),
(53,425,l),
(127,425,l),
(52,0,l)
);
},
{
closed = 1;
nodes = (
(443,0,l),
(567,700,l),
(483,700,l),
(359,0,l)
);
}
);
userData = {
assembly = "NPUSHB[ ]	/* 42 values pushed */
0 3 3 2 97 7 1 2 2 33 77 5 1 0 0 1 95 4 1 1 1 36 77 8 1 6 6 34 6 78 17 17 17 17 19 33 35 17 16 9 8 31
CALL[ ]	/* CallFunction */";
};
width = 557;
}
);
note = fl;
unicode = 64258;
},
{
glyphname = ordfeminine;
layers = (
{
layerId = m01;
shapes = (
{
closed = 1;
nodes = (
(245,346,o),
(312,389,o),
(331,421,q),
(337,355,o),
(412,355,q),
(421,406,l),
(403,406,o),
(389,421,o),
(389,436,qs),
(389,446,o),
(392,462,qs),
(411,568,ls),
(414,588,o),
(414,601,qs),
(414,655,o),
(347,710,o),
(289,710,qs),
(230,710,o),
(136,649,o),
(119,593,q),
(179,593,l),
(191,626,o),
(247,660,o),
(282,660,qs),
(316,660,o),
(354,625,o),
(354,592,qs),
(354,576,o),
(352,564,q),
(259,564,ls),
(185,564,o),
(86,500,o),
(86,439,qs),
(86,395,o),
(149,346,o),
(198,346,qs)
);
},
{
closed = 1;
nodes = (
(185,396,o),
(149,421,o),
(149,446,qs),
(149,483,o),
(209,518,o),
(255,518,qs),
(343,518,l),
(335,469,o),
(265,396,o),
(215,396,qs)
);
}
);
userData = {
assembly = "PUSHB[ ]	/* 6 values pushed */
32 1 4 7 1 76
MPPEM[ ]	/* MeasurePixelPerEm */
PUSHB[ ]	/* 1 value pushed */
9
LT[ ]	/* LessThan */
IF[ ]	/* If */
NPUSHB[ ]	/* 41 values pushed */
0 2 1 0 1 2 0 128 0 0 0 7 4 0 7 103 0 1 1 3 97 0 3 3 59 77 10 8 2 4 4 5 97 9 6 2 5 5 58 5 78
ELSE[ ]	/* Else */
MPPEM[ ]	/* MeasurePixelPerEm */
PUSHB[ ]	/* 1 value pushed */
10
LT[ ]	/* LessThan */
IF[ ]	/* If */
NPUSHB[ ]	/* 52 values pushed */
0 2 1 0 1 2 0 128 0 0 0 7 4 0 7 103 0 1 1 3 97 0 3 3 59 77 0 4 4 5 97 9 6 2 5 5 58 77 10 1 8 8 5 97 9 6 2 5 5 58 5 78
ELSE[ ]	/* Else */
MPPEM[ ]	/* MeasurePixelPerEm */
PUSHB[ ]	/* 1 value pushed */
12
LT[ ]	/* LessThan */
IF[ ]	/* If */
NPUSHB[ ]	/* 41 values pushed */
0 2 1 0 1 2 0 128 0 0 0 7 4 0 7 103 0 1 1 3 97 0 3 3 59 77 10 8 2 4 4 5 97 9 6 2 5 5 58 5 78
ELSE[ ]	/* Else */
MPPEM[ ]	/* MeasurePixelPerEm */
PUSHB[ ]	/* 1 value pushed */
13
LT[ ]	/* LessThan */
IF[ ]	/* If */
NPUSHB[ ]	/* 52 values pushed */
0 2 1 0 1 2 0 128 0 0 0 7 4 0 7 103 0 1 1 3 97 0 3 3 59 77 0 4 4 5 97 9 6 2 5 5 58 77 10 1 8 8 5 97 9 6 2 5 5 58 5 78
ELSE[ ]	/* Else */
MPPEM[ ]	/* MeasurePixelPerEm */
PUSHB[ ]	/* 1 value pushed */
24
LT[ ]	/* LessThan */
IF[ ]	/* If */
NPUSHB[ ]	/* 41 values pushed */
0 2 1 0 1 2 0 128 0 0 0 7 4 0 7 103 0 1 1 3 97 0 3 3 59 77 10 8 2 4 4 5 97 9 6 2 5 5 58 5 78
ELSE[ ]	/* Else */
MPPEM[ ]	/* MeasurePixelPerEm */
PUSHB[ ]	/* 1 value pushed */
27
LT[ ]	/* LessThan */
IF[ ]	/* If */
NPUSHB[ ]	/* 52 values pushed */
0 2 1 0 1 2 0 128 0 0 0 7 4 0 7 103 0 1 1 3 97 0 3 3 59 77 0 4 4 5 97 9 6 2 5 5 58 77 10 1 8 8 5 97 9 6 2 5 5 58 5 78
ELSE[ ]	/* Else */
NPUSHB[ ]	/* 49 values pushed */
0 2 1 0 1 2 0 128 0 0 0 7 4 0 7 103 0 1 1 3 97 0 3 3 59 77 0 4 4 5 97 0 5 5 58 77 10 1 8 8 6 97 9 1 6 6 58 6 78
EIF[ ]	/* EndIf */
EIF[ ]	/* EndIf */
EIF[ ]	/* EndIf */
EIF[ ]	/* EndIf */
EIF[ ]	/* EndIf */
EIF[ ]	/* EndIf */
NPUSHB[ ]	/* 23 values pushed */
36 36 0 0 36 45 36 44 40 38 0 35 0 34 17 25 34 18 36 36 11 10 28
CALL[ ]	/* CallFunction */";
};
width = 438;
}
);
note = ordfeminine;
unicode = 170;
},
{
glyphname = ordmasculine;
layers = (
{
layerId = m01;
shapes = (
{
closed = 1;
nodes = (
(284,348,o),
(378,405,o),
(432,503,o),
(432,563,qs),
(432,630,o),
(349,712,o),
(283,712,qs),
(227,712,o),
(133,656,o),
(78,559,o),
(78,499,qs),
(78,433,o),
(161,348,o),
(226,348,qs)
);
},
{
closed = 1;
nodes = (
(192,398,o),
(139,455,o),
(139,501,qs),
(139,546,o),
(175,620,o),
(238,662,o),
(276,662,qs),
(317,662,o),
(372,606,o),
(372,559,qs),
(372,514,o),
(336,440,o),
(273,398,o),
(234,398,qs)
);
}
);
userData = {
assembly = "NPUSHB[ ]	/* 41 values pushed */
0 2 2 0 97 0 0 0 59 77 5 1 3 3 1 97 4 1 1 1 58 1 78 14 14 0 0 14 27 14 26 21 19 0 13 0 12 37 6 10 23
CALL[ ]	/* CallFunction */";
};
width = 410;
}
);
note = ordmasculine;
unicode = 186;
},
{
glyphname = uni042F;
layers = (
{
layerId = m01;
shapes = (
{
closed = 1;
nodes = (
(-27,0,l),
(77,0,l),
(312,310,l),
(428,310,l),
(373,0,l),
(457,0,l),
(581,700,l),
(374,700,ls),
(248,700,o),
(101,584,o),
(101,475,qs),
(101,414,o),
(170,337,o),
(232,326,q)
);
},
{
closed = 1;
nodes = (
(251,381,o),
(188,435,o),
(188,483,qs),
(188,560,o),
(272,630,o),
(363,630,qs),
(484,630,l),
(440,381,l),
(319,381,ls)
);
}
);
userData = {
assembly = "NPUSHB[ ]	/* 52 values pushed */
13 1 2 5 1 76 3 1 1 2 1 134 0 0 0 4 5 0 4 103 6 1 5 2 2 5 87 6 1 5 5 2 95 0 2 5 2 79 14 14 14 22 14 21 35 17 17 17 36 7 6 27
CALL[ ]	/* CallFunction */";
};
width = 575;
}
);
note = uni042F;
unicode = (1071,1103);
},
{
glyphname = uni0394;
layers = (
{
layerId = m01;
shapes = (
{
closed = 1;
nodes = (
(-32,0,l),
(603,0,l),
(615,65,l),
(444,700,l),
(374,700,l),
(-20,65,l)
);
},
{
closed = 1;
nodes = (
(65,65,l),
(392,604,l),
(530,65,l)
);
}
);
userData = {
assembly = "MPPEM[ ]	/* MeasurePixelPerEm */
PUSHB[ ]	/* 1 value pushed */
42
LT[ ]	/* LessThan */
IF[ ]	/* If */
NPUSHB[ ]	/* 16 values pushed */
0 0 0 23 77 0 2 2 1 95 0 1 1 24 1 78
ELSE[ ]	/* Else */
NPUSHB[ ]	/* 16 values pushed */
0 0 2 0 133 0 2 2 1 95 0 1 1 24 1 78
EIF[ ]	/* EndIf */
PUSHB[ ]	/* 6 values pushed */
19 18 16 3 7 25
CALL[ ]	/* CallFunction */";
};
width = 695;
}
);
note = uni0394;
unicode = 916;
},
{
glyphname = Pi;
layers = (
{
layerId = m01;
shapes = (
{
closed = 1;
nodes = (
(165,0,l),
(242,430,l),
(469,430,l),
(393,0,l),
(477,0,l),
(553,430,l),
(632,430,l),
(644,496,l),
(90,496,l),
(78,430,l),
(158,430,l),
(81,0,l)
);
}
);
userData = {
assembly = "NPUSHB[ ]	/* 26 values pushed */
0 1 4 2 2 0 3 1 0 103 5 1 3 3 24 3 78 17 17 17 17 17 16 6 7 28
CALL[ ]	/* CallFunction */";
};
width = 646;
}
);
note = Pi;
unicode = 928;
},
{
glyphname = uni03A9;
layers = (
{
layerId = m01;
shapes = (
{
closed = 1;
nodes = (
(298,0,l),
(310,69,l),
(238,89,o),
(150,216,o),
(150,307,qs),
(150,398,o),
(234,548,o),
(382,636,o),
(473,636,qs),
(530,636,o),
(631,589,o),
(696,489,o),
(696,412,qs),
(696,345,o),
(640,202,o),
(523,89,o),
(437,69,q),
(424,0,l),
(699,0,l),
(712,66,l),
(568,66,l),
(628,96,o),
(725,202,o),
(782,345,o),
(782,425,qs),
(782,500,o),
(716,632,o),
(582,712,o),
(486,712,qs),
(374,712,o),
(181,606,o),
(65,420,o),
(65,306,qs),
(65,244,o),
(121,105,o),
(179,66,q),
(34,66,l),
(22,0,l)
);
}
);
userData = {
assembly = "NPUSHB[ ]	/* 38 values pushed */
35 1 0 4 1 76 0 4 4 1 97 0 1 1 23 77 2 1 0 0 3 95 5 1 3 3 24 3 78 23 40 17 23 38 16 6 7 28
CALL[ ]	/* CallFunction */";
};
width = 805;
}
);
note = uni03A9;
unicode = 937;
},
{
glyphname = uni03BC;
layers = (
{
layerId = m01;
shapes = (
{
closed = 1;
nodes = (
(90,-220,l),
(132,20,l),
(169,-12,o),
(235,-12,qs),
(291,-12,o),
(391,42,o),
(424,88,q),
(414,0,l),
(490,0,l),
(577,496,l),
(493,496,l),
(448,239,ls),
(433,155,o),
(333,60,o),
(267,60,qs),
(162,60,o),
(162,164,qs),
(162,183,o),
(167,215,qs),
(216,496,l),
(132,496,l),
(6,-220,l)
);
}
);
userData = {
assembly = "NPUSHB[ ]	/* 10 values pushed */
14 1 1 0 19 1 3 1 2 76
MPPEM[ ]	/* MeasurePixelPerEm */
PUSHB[ ]	/* 1 value pushed */
42
LT[ ]	/* LessThan */
IF[ ]	/* If */
NPUSHB[ ]	/* 27 values pushed */
2 1 0 1 0 133 0 3 3 24 77 0 1 1 4 97 0 4 4 24 77 0 5 5 25 5 78
ELSE[ ]	/* Else */
NPUSHB[ ]	/* 25 values pushed */
2 1 0 1 0 133 0 1 0 4 5 1 4 105 0 3 3 24 77 0 5 5 25 5 78
EIF[ ]	/* EndIf */
NPUSHB[ ]	/* 9 values pushed */
18 35 17 19 36 16 6 7 28
CALL[ ]	/* CallFunction */";
};
width = 583;
}
);
note = uni03BC;
unicode = 956;
},
{
glyphname = zero;
layers = (
{
layerId = m01;
shapes = (
{
closed = 1;
nodes = (
(378,-12,o),
(530,147,o),
(594,369,o),
(594,472,qs),
(594,585,o),
(492,712,o),
(383,712,qs),
(263,712,o),
(110,556,o),
(44,335,o),
(44,231,qs),
(44,117,o),
(146,-12,o),
(255,-12,qs)
);
},
{
closed = 1;
nodes = (
(198,63,o),
(130,155,o),
(130,242,qs),
(130,321,o),
(177,504,o),
(285,637,o),
(370,637,qs),
(439,637,o),
(507,545,o),
(507,460,qs),
(507,382,o),
(457,197,o),
(350,63,o),
(268,63,qs)
);
}
);
userData = {
assembly = "NPUSHB[ ]	/* 41 values pushed */
0 2 2 0 97 0 0 0 39 77 5 1 3 3 1 97 4 1 1 1 40 1 78 14 14 0 0 14 27 14 26 21 19 0 13 0 12 37 6 8 23
CALL[ ]	/* CallFunction */";
};
width = 600;
}
);
note = zero;
unicode = 48;
},
{
glyphname = one;
layers = (
{
layerId = m01;
shapes = (
{
closed = 1;
nodes = (
(519,0,l),
(531,69,l),
(353,69,l),
(465,700,l),
(421,700,l),
(155,606,l),
(142,532,l),
(367,605,l),
(272,69,l),
(57,69,l),
(45,0,l)
);
}
);
userData = {
assembly = "NPUSHB[ ]	/* 31 values pushed */
3 2 2 0 1 1 76 0 1 1 33 77 2 1 0 0 3 96 0 3 3 34 3 78 17 17 20 16 4 8 26
CALL[ ]	/* CallFunction */";
};
width = 600;
}
);
note = one;
unicode = 49;
},
{
glyphname = two;
layers = (
{
layerId = m01;
shapes = (
{
closed = 1;
nodes = (
(491,0,l),
(504,70,l),
(141,70,l),
(382,278,ls),
(444,331,o),
(515,401,o),
(562,489,o),
(562,540,qs),
(562,619,o),
(465,712,o),
(381,712,qs),
(315,712,o),
(205,657,o),
(132,558,o),
(121,492,q),
(202,492,l),
(213,557,o),
(303,640,o),
(367,640,qs),
(421,640,o),
(477,578,o),
(477,530,qs),
(477,479,o),
(398,384,o),
(325,321,qs),
(305,303,l),
(42,73,l),
(29,0,l)
);
}
);
userData = {
assembly = "NPUSHB[ ]	/* 37 values pushed */
0 1 0 3 0 1 3 128 0 0 0 2 97 0 2 2 39 77 0 3 3 4 95 0 4 4 34 4 78 17 23 35 18 39 5 8 27
CALL[ ]	/* CallFunction */";
};
width = 600;
}
);
note = two;
unicode = 50;
},
{
glyphname = three;
layers = (
{
layerId = m01;
shapes = (
{
closed = 1;
nodes = (
(346,-12,o),
(475,62,o),
(542,182,o),
(542,249,qs),
(542,303,o),
(490,381,o),
(405,420,o),
(356,420,qs),
(341,420,o),
(333,419,q),
(589,634,l),
(601,700,l),
(165,700,l),
(153,631,l),
(484,631,l),
(202,397,l),
(245,336,l),
(284,357,o),
(323,357,qs),
(387,357,o),
(460,298,o),
(460,243,qs),
(460,198,o),
(416,114,o),
(330,60,o),
(270,60,qs),
(203,60,o),
(127,129,o),
(127,184,qs),
(127,190,l),
(44,190,l),
(44,176,ls),
(44,88,o),
(157,-12,o),
(257,-12,qs)
);
}
);
userData = {
assembly = "NPUSHB[ ]	/* 63 values pushed */
18 1 2 5 17 1 0 2 2 76 0 0 2 1 2 0 1 128 0 5 0 2 0 5 2 105 0 3 3 4 95 0 4 4 33 77 0 1 1 6 97 7 1 6 6 40 6 78 0 0 0 34 0 33 35 17 19 37 35 19 8 8 28
CALL[ ]	/* CallFunction */";
};
width = 600;
}
);
note = three;
unicode = 51;
},
{
glyphname = four;
layers = (
{
layerId = m01;
shapes = (
{
closed = 1;
nodes = (
(425,0,l),
(452,150,l),
(554,150,l),
(567,224,l),
(465,224,l),
(500,423,l),
(421,423,l),
(386,224,l),
(129,224,l),
(450,700,l),
(365,700,l),
(36,215,l),
(25,150,l),
(369,150,l),
(342,0,l)
);
}
);
userData = {
assembly = "NPUSHB[ ]	/* 39 values pushed */
0 3 1 2 1 3 2 128 4 1 2 5 1 0 6 2 0 104 0 1 1 33 77 0 6 6 34 6 78 17 17 17 17 17 18 16 7 8 29
CALL[ ]	/* CallFunction */";
};
width = 600;
}
);
note = four;
unicode = 52;
},
{
glyphname = five;
layers = (
{
layerId = m01;
shapes = (
{
closed = 1;
nodes = (
(343,-12,o),
(475,63,o),
(552,197,o),
(552,280,qs),
(552,339,o),
(501,430,o),
(411,481,o),
(354,481,qs),
(255,481,o),
(184,414,q),
(262,627,l),
(565,627,l),
(578,700,l),
(211,700,l),
(83,316,l),
(163,316,l),
(186,355,o),
(275,410,o),
(336,410,qs),
(397,410,o),
(470,329,o),
(470,266,qs),
(470,215,o),
(424,120,o),
(335,60,o),
(274,60,qs),
(214,60,o),
(131,128,o),
(130,189,q),
(47,189,l),
(47,184,ls),
(47,131,o),
(96,42,o),
(194,-12,o),
(264,-12,qs)
);
}
);
userData = {
assembly = "PUSHB[ ]	/* 6 values pushed */
24 1 2 6 1 76
MPPEM[ ]	/* MeasurePixelPerEm */
PUSHB[ ]	/* 1 value pushed */
33
LT[ ]	/* LessThan */
IF[ ]	/* If */
NPUSHB[ ]	/* 47 values pushed */
0 3 2 0 2 3 0 128 0 0 1 2 0 1 126 0 5 5 4 95 0 4 4 33 77 0 2 2 6 97 0 6 6 36 77 0 1 1 7 97 8 1 7 7 40 7 78
ELSE[ ]	/* Else */
NPUSHB[ ]	/* 45 values pushed */
0 3 2 0 2 3 0 128 0 0 1 2 0 1 126 0 6 0 2 3 6 2 105 0 5 5 4 95 0 4 4 33 77 0 1 1 7 97 8 1 7 7 40 7 78
EIF[ ]	/* EndIf */
NPUSHB[ ]	/* 16 values pushed */
0 0 0 34 0 33 34 17 17 18 37 34 35 9 8 29
CALL[ ]	/* CallFunction */";
};
width = 600;
}
);
note = five;
unicode = 53;
},
{
glyphname = six;
layers = (
{
layerId = m01;
shapes = (
{
closed = 1;
nodes = (
(351,-12,o),
(470,56,o),
(542,178,o),
(542,253,qs),
(542,305,o),
(499,394,o),
(414,448,o),
(354,448,qs),
(231,448,o),
(154,336,q),
(182,475,o),
(299,639,o),
(386,639,qs),
(439,639,o),
(494,575,o),
(494,520,q),
(569,520,l),
(572,570,o),
(538,657,o),
(459,712,o),
(397,712,qs),
(316,712,o),
(166,599,o),
(71,380,o),
(71,230,qs),
(71,128,o),
(166,-12,o),
(282,-12,qs)
);
},
{
closed = 1;
nodes = (
(230,62,o),
(158,136,o),
(158,198,qs),
(158,247,o),
(203,328,o),
(282,375,o),
(331,375,qs),
(390,375,o),
(460,299,o),
(460,240,qs),
(460,193,o),
(418,111,o),
(341,62,o),
(290,62,qs)
);
}
);
userData = {
assembly = "NPUSHB[ ]	/* 66 values pushed */
17 1 6 5 1 76 0 1 2 3 2 1 3 128 0 3 0 5 6 3 5 105 0 2 2 0 97 0 0 0 39 77 8 1 6 6 4 97 7 1 4 4 40 4 78 28 28 0 0 28 41 28 40 35 33 0 27 0 26 35 34 19 37 9 8 26
CALL[ ]	/* CallFunction */";
};
width = 600;
}
);
note = six;
unicode = 54;
},
{
glyphname = seven;
layers = (
{
layerId = m01;
shapes = (
{
closed = 1;
nodes = (
(204,0,l),
(611,637,l),
(622,700,l),
(130,700,l),
(117,628,l),
(521,628,l),
(113,0,l)
);
}
);
userData = {
assembly = "NPUSHB[ ]	/* 22 values pushed */
0 0 0 1 95 0 1 1 33 77 0 2 2 34 2 78 18 17 16 3 8 25
CALL[ ]	/* CallFunction */";
};
width = 600;
}
);
note = seven;
unicode = 55;
},
{
glyphname = eight;
layers = (
{
layerId = m01;
shapes = (
{
closed = 1;
nodes = (
(340,-12,o),
(463,51,o),
(530,157,o),
(530,221,qs),
(530,275,o),
(477,357,o),
(422,373,q),
(480,394,o),
(569,480,o),
(569,550,qs),
(569,624,o),
(468,712,o),
(379,712,qs),
(306,712,o),
(192,657,o),
(128,562,o),
(128,504,qs),
(128,460,o),
(180,389,o),
(225,373,q),
(153,354,o),
(50,246,o),
(50,166,qs),
(50,104,o),
(114,24,o),
(211,-12,o),
(261,-12,qs)
);
},
{
closed = 1;
nodes = (
(209,62,o),
(135,122,o),
(135,176,qs),
(135,230,o),
(190,301,o),
(272,333,o),
(314,333,qs),
(373,333,o),
(447,276,o),
(447,218,qs),
(447,170,o),
(399,99,o),
(319,62,o),
(272,62,qs)
);
},
{
closed = 1;
nodes = (
(282,403,o),
(213,453,o),
(213,505,qs),
(213,566,o),
(301,640,o),
(367,640,qs),
(483,640,o),
(483,540,qs),
(483,496,o),
(440,434,o),
(372,403,o),
(334,403,qs)
);
}
);
userData = {
assembly = "NPUSHB[ ]	/* 65 values pushed */
19 6 2 2 5 1 76 8 1 5 0 2 3 5 2 105 0 4 4 0 97 0 0 0 39 77 7 1 3 3 1 97 6 1 1 1 40 1 78 41 41 27 27 0 0 41 52 41 51 47 45 27 40 27 39 34 32 0 26 0 25 44 9 8 23
CALL[ ]	/* CallFunction */";
};
width = 600;
}
);
note = eight;
unicode = 56;
},
{
glyphname = nine;
layers = (
{
layerId = m01;
shapes = (
{
closed = 1;
nodes = (
(320,-12,o),
(470,101,o),
(565,320,o),
(565,470,qs),
(565,572,o),
(470,712,o),
(354,712,qs),
(285,712,o),
(166,644,o),
(94,522,o),
(94,447,qs),
(94,395,o),
(137,306,o),
(222,252,o),
(282,252,qs),
(405,252,o),
(482,364,q),
(454,225,o),
(337,61,o),
(250,61,qs),
(197,61,o),
(142,125,o),
(142,180,q),
(67,180,l),
(64,130,o),
(98,43,o),
(177,-12,o),
(239,-12,qs)
);
},
{
closed = 1;
nodes = (
(246,325,o),
(176,401,o),
(176,460,qs),
(176,507,o),
(218,589,o),
(295,638,o),
(346,638,qs),
(406,638,o),
(478,564,o),
(478,502,qs),
(478,453,o),
(433,372,o),
(354,325,o),
(305,325,qs)
);
}
);
userData = {
assembly = "NPUSHB[ ]	/* 66 values pushed */
10 1 6 5 1 76 0 0 2 1 2 0 1 128 8 1 6 0 2 0 6 2 105 0 5 5 3 97 0 3 3 39 77 0 1 1 4 97 7 1 4 4 40 4 78 28 28 0 0 28 41 28 40 35 33 0 27 0 26 38 35 34 19 9 8 26
CALL[ ]	/* CallFunction */";
};
width = 600;
}
);
note = nine;
unicode = 57;
},
{
glyphname = uni24EA;
layers = (
{
layerId = m01;
shapes = (
{
closed = 1;
nodes = (
(511,-12,o),
(678,85,o),
(775,252,o),
(775,350,qs),
(775,448,o),
(678,615,o),
(511,712,o),
(413,712,qs),
(315,712,o),
(148,615,o),
(51,448,o),
(51,350,qs),
(51,252,o),
(148,85,o),
(315,-12,o),
(413,-12,qs)
);
},
{
closed = 1;
nodes = (
(331,46,o),
(192,128,o),
(110,267,o),
(110,350,qs),
(110,433,o),
(192,572,o),
(331,654,o),
(413,654,qs),
(496,654,o),
(635,572,o),
(717,433,o),
(717,350,qs),
(717,267,o),
(635,128,o),
(496,46,o),
(413,46,qs)
);
},
{
closed = 1;
nodes = (
(484,165,o),
(516,215,qs),
(548,265,o),
(548,350,qs),
(548,435,o),
(516,485,qs),
(484,535,o),
(414,535,qs),
(344,535,o),
(312,484,qs),
(279,435,o),
(279,350,qs),
(279,266,o),
(312,216,qs),
(344,165,o),
(414,165,qs)
);
},
{
closed = 1;
nodes = (
(380,223,o),
(362,256,qs),
(345,292,o),
(345,350,qs),
(345,408,o),
(362,444,qs),
(380,477,o),
(414,477,qs),
(449,477,o),
(465,444,qs),
(482,408,o),
(482,350,qs),
(482,292,o),
(465,256,qs),
(449,223,o),
(414,223,qs)
);
}
);
userData = {
assembly = "NPUSHB[ ]	/* 75 values pushed */
0 4 0 6 7 4 6 105 11 1 7 10 1 5 3 7 5 105 0 2 2 0 97 0 0 0 39 77 9 1 3 3 1 97 8 1 1 1 40 1 78 48 48 32 32 16 16 0 0 48 63 48 62 56 54 32 47 32 46 40 38 16 31 16 30 24 22 0 15 0 14 38 12 8 23
CALL[ ]	/* CallFunction */";
};
width = 790;
}
);
note = uni24EA;
unicode = 9450;
},
{
glyphname = uni2780;
layers = (
{
layerId = m01;
shapes = (
{
closed = 1;
nodes = (
(511,-12,o),
(678,85,o),
(775,252,o),
(775,350,qs),
(775,448,o),
(678,615,o),
(511,712,o),
(413,712,qs),
(315,712,o),
(148,615,o),
(51,448,o),
(51,350,qs),
(51,252,o),
(148,85,o),
(315,-12,o),
(413,-12,qs)
);
},
{
closed = 1;
nodes = (
(331,46,o),
(192,128,o),
(110,267,o),
(110,350,qs),
(110,433,o),
(192,572,o),
(331,654,o),
(413,654,qs),
(496,654,o),
(635,572,o),
(717,433,o),
(717,350,qs),
(717,267,o),
(635,128,o),
(496,46,o),
(413,46,qs)
);
},
{
closed = 1;
nodes = (
(539,176,l),
(539,231,l),
(458,231,l),
(458,533,l),
(423,533,l),
(303,489,l),
(303,439,l),
(396,460,l),
(396,231,l),
(300,231,l),
(300,176,l)
);
}
);
userData = {
assembly = "NPUSHB[ ]	/* 74 values pushed */
36 35 34 3 4 5 1 76 0 5 2 4 2 5 4 128 6 1 4 0 7 3 4 7 104 0 2 2 0 97 0 0 0 39 77 9 1 3 3 1 97 8 1 1 1 40 1 78 16 16 0 0 42 41 40 39 38 37 33 32 16 31 16 30 24 22 0 15 0 14 38 10 8 23
CALL[ ]	/* CallFunction */";
};
width = 790;
}
);
note = uni2780;
unicode = 10112;
},
{
glyphname = uni2781;
layers = (
{
layerId = m01;
shapes = (
{
closed = 1;
nodes = (
(511,-12,o),
(677,85,o),
(775,252,o),
(775,350,qs),
(775,448,o),
(677,615,o),
(511,712,o),
(413,712,qs),
(315,712,o),
(148,615,o),
(51,448,o),
(51,350,qs),
(51,252,o),
(148,85,o),
(315,-12,o),
(413,-12,qs)
);
},
{
closed = 1;
nodes = (
(330,46,o),
(190,128,o),
(109,268,o),
(109,350,qs),
(109,432,o),
(190,572,o),
(330,654,o),
(413,654,qs),
(495,654,o),
(634,572,o),
(716,433,o),
(716,350,qs),
(716,267,o),
(634,128,o),
(495,46,o),
(413,46,qs)
);
},
{
closed = 1;
nodes = (
(538,176,l),
(538,231,l),
(379,231,l),
(455,309,ls),
(489,341,o),
(530,399,o),
(530,432,qs),
(530,478,o),
(471,540,o),
(414,540,qs),
(359,540,o),
(293,477,o),
(292,421,q),
(356,421,l),
(356,449,o),
(385,484,o),
(413,484,qs),
(437,484,o),
(466,455,o),
(466,431,qs),
(466,416,o),
(445,382,o),
(414,349,o),
(401,336,qs),
(292,223,l),
(292,176,l)
);
}
);
userData = {
assembly = "NPUSHB[ ]	/* 81 values pushed */
32 1 8 7 1 76 0 5 4 7 4 5 7 128 0 6 0 4 5 6 4 105 0 7 0 8 3 7 8 103 0 2 2 0 97 0 0 0 39 77 10 1 3 3 1 97 9 1 1 1 40 1 78 16 16 0 0 57 56 55 54 48 46 44 43 41 39 16 31 16 30 24 22 0 15 0 14 38 11 8 23
CALL[ ]	/* CallFunction */";
};
width = 790;
}
);
note = uni2781;
unicode = 10113;
},
{
glyphname = uni2782;
layers = (
{
layerId = m01;
shapes = (
{
closed = 1;
nodes = (
(511,-12,o),
(678,85,o),
(775,252,o),
(775,350,qs),
(775,448,o),
(678,615,o),
(511,712,o),
(413,712,qs),
(315,712,o),
(148,615,o),
(51,448,o),
(51,350,qs),
(51,252,o),
(148,85,o),
(315,-12,o),
(413,-12,qs)
);
},
{
closed = 1;
nodes = (
(330,46,o),
(191,128,o),
(109,267,o),
(109,350,qs),
(109,433,o),
(191,572,o),
(330,654,o),
(413,654,qs),
(495,654,o),
(634,572,o),
(716,433,o),
(716,350,qs),
(716,267,o),
(634,128,o),
(495,46,o),
(413,46,qs)
);
},
{
closed = 1;
nodes = (
(474,158,o),
(542,227,o),
(542,277,qs),
(542,320,o),
(490,382,o),
(439,386,q),
(530,468,l),
(530,522,l),
(296,522,l),
(296,467,l),
(449,467,l),
(341,368,l),
(377,326,l),
(396,337,o),
(415,337,qs),
(442,337,o),
(479,306,o),
(479,277,qs),
(479,249,o),
(446,214,o),
(414,214,qs),
(386,214,o),
(349,248,o),
(349,275,q),
(285,275,l),
(287,218,o),
(358,158,o),
(414,158,qs)
);
}
);
userData = {
assembly = "NPUSHB[ ]	/* 15 values pushed */
52 1 7 8 53 47 2 6 7 46 1 4 6 3 76
MPPEM[ ]	/* MeasurePixelPerEm */
PUSHB[ ]	/* 1 value pushed */
9
LT[ ]	/* LessThan */
IF[ ]	/* If */
NPUSHB[ ]	/* 54 values pushed */
0 6 7 4 7 6 114 0 4 5 7 4 5 126 0 8 0 7 6 8 7 103 0 5 12 1 9 3 5 9 105 0 2 2 0 97 0 0 0 39 77 11 1 3 3 1 98 10 1 1 1 40 1 78
ELSE[ ]	/* Else */
NPUSHB[ ]	/* 55 values pushed */
0 6 7 4 7 6 4 128 0 4 5 7 4 5 126 0 8 0 7 6 8 7 103 0 5 12 1 9 3 5 9 105 0 2 2 0 97 0 0 0 39 77 11 1 3 3 1 98 10 1 1 1 40 1 78
EIF[ ]	/* EndIf */
NPUSHB[ ]	/* 34 values pushed */
32 32 16 16 0 0 32 59 32 58 51 50 49 48 45 43 39 37 35 34 16 31 16 30 24 22 0 15 0 14 38 13 8 23
CALL[ ]	/* CallFunction */";
};
width = 790;
}
);
note = uni2782;
unicode = 10114;
},
{
glyphname = uni2783;
layers = (
{
layerId = m01;
shapes = (
{
closed = 1;
nodes = (
(511,-12,o),
(678,85,o),
(775,252,o),
(775,350,qs),
(775,448,o),
(678,615,o),
(511,712,o),
(413,712,qs),
(315,712,o),
(148,615,o),
(51,448,o),
(51,350,qs),
(51,252,o),
(148,85,o),
(315,-12,o),
(413,-12,qs)
);
},
{
closed = 1;
nodes = (
(494,176,l),
(494,242,l),
(536,242,l),
(536,299,l),
(494,299,l),
(494,392,l),
(433,392,l),
(433,299,l),
(334,299,l),
(450,533,l),
(386,533,l),
(265,294,l),
(265,242,l),
(429,242,l),
(429,176,l)
);
},
{
closed = 1;
nodes = (
(330,46,o),
(191,128,o),
(109,267,o),
(109,350,qs),
(109,433,o),
(191,572,o),
(330,654,o),
(413,654,qs),
(495,654,o),
(634,572,o),
(716,433,o),
(716,350,qs),
(716,267,o),
(634,128,o),
(495,46,o),
(413,46,qs)
);
}
);
userData = {
assembly = "PUSHB[ ]	/* 6 values pushed */
18 1 2 4 1 76
MPPEM[ ]	/* MeasurePixelPerEm */
PUSHB[ ]	/* 1 value pushed */
13
LT[ ]	/* LessThan */
IF[ ]	/* If */
NPUSHB[ ]	/* 54 values pushed */
0 3 9 5 9 3 5 128 0 5 4 4 5 112 0 8 2 10 2 8 114 6 1 4 7 1 2 8 4 2 104 0 9 9 0 97 0 0 0 39 77 12 1 10 10 1 97 11 1 1 1 40 1 78
ELSE[ ]	/* Else */
MPPEM[ ]	/* MeasurePixelPerEm */
PUSHB[ ]	/* 1 value pushed */
19
LT[ ]	/* LessThan */
IF[ ]	/* If */
NPUSHB[ ]	/* 55 values pushed */
0 3 9 5 9 3 5 128 0 5 4 9 5 4 126 0 8 2 10 2 8 114 6 1 4 7 1 2 8 4 2 104 0 9 9 0 97 0 0 0 39 77 12 1 10 10 1 97 11 1 1 1 40 1 78
ELSE[ ]	/* Else */
NPUSHB[ ]	/* 56 values pushed */
0 3 9 5 9 3 5 128 0 5 4 9 5 4 126 0 8 2 10 2 8 10 128 6 1 4 7 1 2 8 4 2 104 0 9 9 0 97 0 0 0 39 77 12 1 10 10 1 97 11 1 1 1 40 1 78
EIF[ ]	/* EndIf */
EIF[ ]	/* EndIf */
NPUSHB[ ]	/* 32 values pushed */
31 31 0 0 31 46 31 45 39 37 30 29 28 27 26 25 24 23 22 21 20 19 17 16 0 15 0 14 38 13 8 23
CALL[ ]	/* CallFunction */";
};
width = 790;
}
);
note = uni2783;
unicode = 10115;
},
{
glyphname = uni2784;
layers = (
{
layerId = m01;
shapes = (
{
closed = 1;
nodes = (
(511,-12,o),
(678,85,o),
(775,252,o),
(775,350,qs),
(775,448,o),
(678,615,o),
(511,712,o),
(413,712,qs),
(315,712,o),
(148,615,o),
(51,448,o),
(51,350,qs),
(51,252,o),
(148,85,o),
(315,-12,o),
(413,-12,qs)
);
},
{
closed = 1;
nodes = (
(330,46,o),
(191,128,o),
(109,267,o),
(109,350,qs),
(109,433,o),
(191,572,o),
(330,654,o),
(413,654,qs),
(496,654,o),
(635,572,o),
(717,433,o),
(717,350,qs),
(717,267,o),
(635,128,o),
(496,46,o),
(413,46,qs)
);
},
{
closed = 1;
nodes = (
(473,160,o),
(544,232,o),
(544,290,qs),
(544,343,o),
(483,413,o),
(428,413,qs),
(407,413,o),
(367,398,o),
(354,384,q),
(371,467,l),
(520,467,l),
(520,524,l),
(321,524,l),
(291,320,l),
(354,320,l),
(362,338,o),
(397,359,o),
(418,359,qs),
(447,359,o),
(481,320,o),
(481,289,qs),
(481,259,o),
(445,216,o),
(417,216,qs),
(391,216,o),
(355,243,o),
(350,267,q),
(286,267,l),
(288,220,o),
(362,160,o),
(417,160,qs)
);
}
);
userData = {
assembly = "PUSHB[ ]	/* 6 values pushed */
53 1 6 10 1 76
MPPEM[ ]	/* MeasurePixelPerEm */
PUSHB[ ]	/* 1 value pushed */
9
LT[ ]	/* LessThan */
IF[ ]	/* If */
NPUSHB[ ]	/* 62 values pushed */
0 7 6 4 9 7 114 0 4 5 6 4 5 126 0 8 0 9 10 8 9 103 0 10 0 6 7 10 6 105 0 5 14 1 11 3 5 11 105 0 2 2 0 97 0 0 0 39 77 13 1 3 3 1 98 12 1 1 1 40 1 78
ELSE[ ]	/* Else */
NPUSHB[ ]	/* 63 values pushed */
0 7 6 4 6 7 4 128 0 4 5 6 4 5 126 0 8 0 9 10 8 9 103 0 10 0 6 7 10 6 105 0 5 14 1 11 3 5 11 105 0 2 2 0 97 0 0 0 39 77 13 1 3 3 1 98 12 1 1 1 40 1 78
EIF[ ]	/* EndIf */
NPUSHB[ ]	/* 38 values pushed */
32 32 16 16 0 0 32 62 32 61 57 55 52 51 50 49 48 47 45 43 39 37 35 34 16 31 16 30 24 22 0 15 0 14 38 15 8 23
CALL[ ]	/* CallFunction */";
};
width = 790;
}
);
note = uni2784;
unicode = 10116;
},
{
glyphname = uni2785;
layers = (
{
layerId = m01;
shapes = (
{
closed = 1;
nodes = (
(511,-12,o),
(678,85,o),
(775,252,o),
(775,350,qs),
(775,448,o),
(678,615,o),
(511,712,o),
(413,712,qs),
(315,712,o),
(148,615,o),
(51,448,o),
(51,350,qs),
(51,252,o),
(148,85,o),
(315,-12,o),
(413,-12,qs)
);
},
{
closed = 1;
nodes = (
(331,46,o),
(192,128,o),
(110,267,o),
(110,350,qs),
(110,433,o),
(192,572,o),
(331,654,o),
(413,654,qs),
(496,654,o),
(635,572,o),
(717,433,o),
(717,350,qs),
(717,267,o),
(635,128,o),
(496,46,o),
(413,46,qs)
);
},
{
closed = 1;
nodes = (
(389,221,o),
(354,258,o),
(354,285,qs),
(354,311,o),
(390,347,o),
(415,347,qs),
(442,347,o),
(476,311,o),
(476,284,qs),
(476,256,o),
(440,221,o),
(416,221,qs)
);
},
{
closed = 1;
nodes = (
(472,165,o),
(538,237,o),
(538,286,qs),
(538,335,o),
(477,402,o),
(430,402,qs),
(403,402,o),
(357,375,o),
(346,354,q),
(346,406,o),
(378,481,o),
(417,481,qs),
(462,481,o),
(471,432,q),
(531,432,l),
(529,473,o),
(468,535,o),
(417,535,qs),
(348,535,o),
(282,420,o),
(282,338,qs),
(282,265,o),
(348,165,o),
(419,165,qs)
);
}
);
userData = {
assembly = "NPUSHB[ ]	/* 103 values pushed */
58 1 4 9 1 76 0 7 8 9 8 7 9 128 0 6 0 8 7 6 8 105 0 9 0 4 5 9 4 105 13 1 5 14 1 10 3 5 10 105 0 2 2 0 97 0 0 0 39 77 12 1 3 3 1 97 11 1 1 1 40 1 78 44 44 32 32 16 16 0 0 44 67 44 66 62 60 56 54 53 52 50 48 32 43 32 42 38 36 16 31 16 30 24 22 0 15 0 14 38 15 8 23
CALL[ ]	/* CallFunction */";
};
width = 790;
}
);
note = uni2785;
unicode = 10117;
},
{
glyphname = uni2786;
layers = (
{
layerId = m01;
shapes = (
{
closed = 1;
nodes = (
(511,-12,o),
(678,85,o),
(775,252,o),
(775,350,qs),
(775,448,o),
(678,615,o),
(511,712,o),
(413,712,qs),
(315,712,o),
(148,615,o),
(51,448,o),
(51,350,qs),
(51,252,o),
(148,85,o),
(315,-12,o),
(413,-12,qs)
);
},
{
closed = 1;
nodes = (
(404,167,l),
(547,478,l),
(547,524,l),
(285,524,l),
(285,469,l),
(478,469,l),
(336,167,l)
);
},
{
closed = 1;
nodes = (
(331,46,o),
(192,128,o),
(110,267,o),
(110,350,qs),
(110,433,o),
(192,572,o),
(331,654,o),
(413,654,qs),
(496,654,o),
(635,572,o),
(717,433,o),
(717,350,qs),
(717,267,o),
(635,128,o),
(496,46,o),
(413,46,qs)
);
}
);
userData = {
assembly = "NPUSHB[ ]	/* 69 values pushed */
20 1 2 3 1 76 0 4 2 6 2 4 6 128 0 3 0 2 4 3 2 103 0 5 5 0 97 0 0 0 39 77 8 1 6 6 1 97 7 1 1 1 40 1 78 23 23 0 0 23 38 23 37 31 29 22 21 19 18 17 16 0 15 0 14 38 9 8 23
CALL[ ]	/* CallFunction */";
};
width = 790;
}
);
note = uni2786;
unicode = 10118;
},
{
glyphname = uni2787;
layers = (
{
layerId = m01;
shapes = (
{
closed = 1;
nodes = (
(511,-12,o),
(678,85,o),
(775,252,o),
(775,350,qs),
(775,448,o),
(678,615,o),
(511,712,o),
(413,712,qs),
(315,712,o),
(149,615,o),
(51,448,o),
(51,350,qs),
(51,252,o),
(149,85,o),
(315,-12,o),
(413,-12,qs)
);
},
{
closed = 1;
nodes = (
(384,220,o),
(353,249,o),
(353,276,qs),
(353,306,o),
(387,334,o),
(414,334,qs),
(441,334,o),
(474,305,o),
(474,276,qs),
(474,249,o),
(441,220,o),
(414,220,qs)
);
},
{
closed = 1;
nodes = (
(331,46,o),
(192,128,o),
(110,268,o),
(110,350,qs),
(110,432,o),
(192,572,o),
(331,654,o),
(413,654,qs),
(496,654,o),
(636,572,o),
(717,432,o),
(717,350,qs),
(717,268,o),
(636,128,o),
(496,46,o),
(413,46,qs)
);
},
{
closed = 1;
nodes = (
(465,165,o),
(538,221,o),
(538,271,qs),
(538,303,o),
(507,353,o),
(479,363,q),
(505,375,o),
(530,417,o),
(530,439,qs),
(530,482,o),
(464,535,o),
(413,535,qs),
(361,535,o),
(297,483,o),
(297,439,qs),
(297,387,o),
(348,363,q),
(320,354,o),
(288,302,o),
(288,271,qs),
(288,222,o),
(362,165,o),
(413,165,qs)
);
},
{
closed = 1;
nodes = (
(389,383,o),
(362,410,o),
(362,432,qs),
(362,482,o),
(413,482,qs),
(437,482,o),
(465,456,o),
(465,432,qs),
(465,411,o),
(440,383,o),
(413,383,qs)
);
}
);
userData = {
assembly = "NPUSHB[ ]	/* 99 values pushed */
60 49 2 2 9 1 76 0 6 0 8 9 6 8 105 14 1 9 0 2 3 9 2 105 11 1 3 13 1 7 5 3 7 105 0 4 4 0 97 0 0 0 39 77 12 1 5 5 1 97 10 1 1 1 40 1 78 67 67 44 44 28 28 16 16 0 0 67 77 67 76 73 71 44 66 44 65 55 53 28 43 28 42 36 34 16 27 16 26 22 20 0 15 0 14 38 15 8 23
CALL[ ]	/* CallFunction */";
};
width = 790;
}
);
note = uni2787;
unicode = 10119;
},
{
glyphname = uni2788;
layers = (
{
layerId = m01;
shapes = (
{
closed = 1;
nodes = (
(511,-12,o),
(678,85,o),
(775,252,o),
(775,350,qs),
(775,448,o),
(678,615,o),
(511,712,o),
(413,712,qs),
(315,712,o),
(148,615,o),
(51,448,o),
(51,350,qs),
(51,252,o),
(148,85,o),
(315,-12,o),
(413,-12,qs)
);
},
{
closed = 1;
nodes = (
(330,46,o),
(191,128,o),
(109,267,o),
(109,350,qs),
(109,433,o),
(191,572,o),
(330,654,o),
(413,654,qs),
(495,654,o),
(634,572,o),
(716,433,o),
(716,350,qs),
(716,267,o),
(634,128,o),
(495,46,o),
(413,46,qs)
);
},
{
closed = 1;
nodes = (
(478,165,o),
(545,279,o),
(545,362,qs),
(545,432,o),
(480,535,o),
(407,535,qs),
(355,535,o),
(288,463,o),
(288,414,qs),
(288,364,o),
(351,298,o),
(396,298,qs),
(425,298,o),
(469,326,o),
(481,346,q),
(480,294,o),
(448,219,o),
(410,219,qs),
(365,219,o),
(355,268,q),
(295,268,l),
(300,222,o),
(360,165,o),
(409,165,qs)
);
},
{
closed = 1;
nodes = (
(384,353,o),
(351,388,o),
(351,416,qs),
(351,443,o),
(384,479,o),
(411,479,qs),
(438,479,o),
(472,443,o),
(472,415,qs),
(472,389,o),
(438,353,o),
(412,353,qs)
);
}
);
userData = {
assembly = "NPUSHB[ ]	/* 103 values pushed */
40 1 6 10 1 76 0 4 6 5 6 4 5 128 0 7 0 9 10 7 9 105 14 1 10 0 6 4 10 6 105 0 5 13 1 8 3 5 8 105 0 2 2 0 97 0 0 0 39 77 12 1 3 3 1 98 11 1 1 1 40 1 78 56 56 32 32 16 16 0 0 56 67 56 66 62 60 32 55 32 54 50 48 44 42 38 36 35 34 16 31 16 30 24 22 0 15 0 14 38 15 8 23
CALL[ ]	/* CallFunction */";
};
width = 790;
}
);
note = uni2788;
unicode = 10120;
},
{
glyphname = uni278A;
layers = (
{
layerId = m01;
shapes = (
{
closed = 1;
nodes = (
(511,-12,o),
(678,85,o),
(775,252,o),
(775,350,qs),
(775,448,o),
(678,615,o),
(511,712,o),
(413,712,qs),
(315,712,o),
(148,615,o),
(51,448,o),
(51,350,qs),
(51,252,o),
(148,85,o),
(315,-12,o),
(413,-12,qs)
);
},
{
closed = 1;
nodes = (
(299,231,l),
(395,231,l),
(395,460,l),
(302,439,l),
(302,489,l),
(423,533,l),
(457,533,l),
(457,231,l),
(539,231,l),
(539,176,l),
(299,176,l)
);
}
);
userData = {
assembly = "NPUSHB[ ]	/* 62 values pushed */
23 22 21 3 2 3 1 76 4 1 2 3 5 3 2 5 128 0 3 3 0 97 0 0 0 39 77 7 1 5 5 1 97 6 1 1 1 40 1 78 16 16 0 0 16 26 16 26 25 24 20 19 18 17 0 15 0 14 38 8 8 23
CALL[ ]	/* CallFunction */";
};
width = 790;
}
);
note = uni278A;
unicode = 10122;
},
{
glyphname = uni278B;
layers = (
{
layerId = m01;
shapes = (
{
closed = 1;
nodes = (
(511,-12,o),
(678,85,o),
(775,252,o),
(775,350,qs),
(775,448,o),
(678,615,o),
(511,712,o),
(413,712,qs),
(315,712,o),
(148,615,o),
(51,448,o),
(51,350,qs),
(51,252,o),
(148,85,o),
(315,-12,o),
(413,-12,qs)
);
},
{
closed = 1;
nodes = (
(292,223,l),
(401,336,ls),
(414,349,o),
(445,382,o),
(466,416,o),
(466,431,qs),
(466,455,o),
(437,484,o),
(413,484,qs),
(385,484,o),
(356,449,o),
(356,421,q),
(292,421,l),
(293,477,o),
(359,540,o),
(414,540,qs),
(471,540,o),
(530,478,o),
(530,432,qs),
(530,399,o),
(489,341,o),
(455,309,qs),
(379,231,l),
(538,231,l),
(538,176,l),
(292,176,l)
);
}
);
userData = {
assembly = "PUSHB[ ]	/* 6 values pushed */
40 1 6 2 1 76
MPPEM[ ]	/* MeasurePixelPerEm */
PUSHB[ ]	/* 1 value pushed */
41
LT[ ]	/* LessThan */
IF[ ]	/* If */
NPUSHB[ ]	/* 41 values pushed */
0 4 5 2 5 4 2 128 0 3 3 0 97 0 0 0 39 77 0 2 2 5 97 0 5 5 36 77 8 1 6 6 1 98 7 1 1 1 40 1 78
ELSE[ ]	/* Else */
NPUSHB[ ]	/* 39 values pushed */
0 4 5 2 5 4 2 128 0 5 0 2 6 5 2 103 0 3 3 0 97 0 0 0 39 77 8 1 6 6 1 98 7 1 1 1 40 1 78
EIF[ ]	/* EndIf */
NPUSHB[ ]	/* 24 values pushed */
16 16 0 0 16 41 16 41 33 31 29 28 26 24 18 17 0 15 0 14 38 9 8 23
CALL[ ]	/* CallFunction */";
};
width = 790;
}
);
note = uni278B;
unicode = 10123;
},
{
glyphname = uni278C;
layers = (
{
layerId = m01;
shapes = (
{
closed = 1;
nodes = (
(511,-12,o),
(678,85,o),
(775,252,o),
(775,350,qs),
(775,448,o),
(678,615,o),
(511,712,o),
(413,712,qs),
(315,712,o),
(148,615,o),
(51,448,o),
(51,350,qs),
(51,252,o),
(148,85,o),
(315,-12,o),
(413,-12,qs)
);
},
{
closed = 1;
nodes = (
(358,158,o),
(287,218,o),
(285,275,q),
(349,275,l),
(349,248,o),
(386,214,o),
(414,214,qs),
(446,214,o),
(479,249,o),
(479,277,qs),
(479,306,o),
(442,337,o),
(415,337,qs),
(396,337,o),
(377,326,q),
(341,368,l),
(449,467,l),
(296,467,l),
(296,522,l),
(530,522,l),
(530,468,l),
(439,386,l),
(490,382,o),
(542,320,o),
(542,277,qs),
(542,227,o),
(474,158,o),
(414,158,qs)
);
}
);
userData = {
assembly = "NPUSHB[ ]	/* 80 values pushed */
22 1 3 2 27 21 2 4 3 28 1 6 4 3 76 0 3 0 6 5 3 6 103 0 4 0 5 7 4 5 105 0 2 2 0 97 0 0 0 39 77 9 1 7 7 1 97 8 1 1 1 40 1 78 16 16 0 0 16 43 16 42 40 39 37 35 31 29 26 25 24 23 0 15 0 14 38 10 8 23
CALL[ ]	/* CallFunction */";
};
width = 790;
}
);
note = uni278C;
unicode = 10124;
},
{
glyphname = uni278D;
layers = (
{
layerId = m01;
shapes = (
{
closed = 1;
nodes = (
(511,-12,o),
(678,85,o),
(775,252,o),
(775,350,qs),
(775,448,o),
(678,615,o),
(511,712,o),
(413,712,qs),
(315,712,o),
(148,615,o),
(51,448,o),
(51,350,qs),
(51,252,o),
(148,85,o),
(315,-12,o),
(413,-12,qs)
);
},
{
closed = 1;
nodes = (
(429,242,l),
(266,242,l),
(266,294,l),
(386,533,l),
(450,533,l),
(335,299,l),
(434,299,l),
(434,392,l),
(495,392,l),
(495,299,l),
(536,299,l),
(536,242,l),
(495,242,l),
(495,176,l),
(429,176,l)
);
}
);
userData = {
assembly = "PUSHB[ ]	/* 6 values pushed */
27 1 2 3 1 76
MPPEM[ ]	/* MeasurePixelPerEm */
PUSHB[ ]	/* 1 value pushed */
9
LT[ ]	/* LessThan */
IF[ ]	/* If */
NPUSHB[ ]	/* 45 values pushed */
0 4 6 3 6 4 114 5 1 3 2 6 3 2 126 7 1 2 8 8 2 112 0 6 6 0 97 0 0 0 39 77 10 1 8 8 1 98 9 1 1 1 40 1 78
ELSE[ ]	/* Else */
MPPEM[ ]	/* MeasurePixelPerEm */
PUSHB[ ]	/* 1 value pushed */
19
LT[ ]	/* LessThan */
IF[ ]	/* If */
NPUSHB[ ]	/* 46 values pushed */
0 4 6 3 6 4 3 128 5 1 3 2 6 3 2 126 7 1 2 8 8 2 112 0 6 6 0 97 0 0 0 39 77 10 1 8 8 1 98 9 1 1 1 40 1 78
ELSE[ ]	/* Else */
NPUSHB[ ]	/* 47 values pushed */
0 4 6 3 6 4 3 128 5 1 3 2 6 3 2 126 7 1 2 8 6 2 8 126 0 6 6 0 97 0 0 0 39 77 10 1 8 8 1 98 9 1 1 1 40 1 78
EIF[ ]	/* EndIf */
EIF[ ]	/* EndIf */
NPUSHB[ ]	/* 28 values pushed */
16 16 0 0 16 30 16 30 29 28 26 25 24 23 22 21 20 19 18 17 0 15 0 14 38 11 8 23
CALL[ ]	/* CallFunction */";
};
width = 790;
}
);
note = uni278D;
unicode = 10125;
},
{
glyphname = uni278E;
layers = (
{
layerId = m01;
shapes = (
{
closed = 1;
nodes = (
(511,-12,o),
(678,85,o),
(775,252,o),
(775,350,qs),
(775,448,o),
(678,615,o),
(511,712,o),
(413,712,qs),
(315,712,o),
(149,615,o),
(51,448,o),
(51,350,qs),
(51,252,o),
(149,85,o),
(315,-12,o),
(413,-12,qs)
);
},
{
closed = 1;
nodes = (
(362,160,o),
(288,220,o),
(286,267,q),
(350,267,l),
(355,243,o),
(391,216,o),
(417,216,qs),
(445,216,o),
(481,259,o),
(481,289,qs),
(481,320,o),
(447,359,o),
(418,359,qs),
(397,359,o),
(362,338,o),
(354,320,q),
(291,320,l),
(321,524,l),
(520,524,l),
(520,467,l),
(371,467,l),
(354,384,l),
(367,398,o),
(407,413,o),
(428,413,qs),
(483,413,o),
(544,343,o),
(544,290,qs),
(544,232,o),
(473,160,o),
(417,160,qs)
);
}
);
userData = {
assembly = "NPUSHB[ ]	/* 83 values pushed */
24 1 6 2 1 76 0 3 0 2 6 3 2 105 0 5 0 8 7 5 8 103 0 6 0 7 9 6 7 105 0 4 4 0 97 0 0 0 39 77 11 1 9 9 1 97 10 1 1 1 40 1 78 16 16 0 0 16 46 16 45 43 42 40 38 34 32 30 29 28 27 26 25 22 20 0 15 0 14 38 12 8 23
CALL[ ]	/* CallFunction */";
};
width = 790;
}
);
note = uni278E;
unicode = 10126;
},
{
glyphname = uni278F;
layers = (
{
layerId = m01;
shapes = (
{
closed = 1;
nodes = (
(511,-12,o),
(678,85,o),
(775,252,o),
(775,350,qs),
(775,448,o),
(678,615,o),
(511,712,o),
(413,712,qs),
(315,712,o),
(148,615,o),
(51,448,o),
(51,350,qs),
(51,252,o),
(148,85,o),
(315,-12,o),
(413,-12,qs)
);
},
{
closed = 1;
nodes = (
(440,221,o),
(476,256,o),
(476,284,qs),
(476,311,o),
(442,347,o),
(415,347,qs),
(390,347,o),
(354,311,o),
(354,285,qs),
(354,258,o),
(389,221,o),
(416,221,qs)
);
},
{
closed = 1;
nodes = (
(348,165,o),
(282,265,o),
(282,338,qs),
(282,420,o),
(348,535,o),
(417,535,qs),
(468,535,o),
(529,473,o),
(531,432,q),
(471,432,l),
(462,481,o),
(417,481,qs),
(378,481,o),
(346,406,o),
(346,354,q),
(357,375,o),
(403,402,o),
(430,402,qs),
(477,402,o),
(538,335,o),
(538,286,qs),
(538,237,o),
(472,165,o),
(419,165,qs)
);
}
);
userData = {
assembly = "PUSHB[ ]	/* 6 values pushed */
36 1 2 4 1 76
MPPEM[ ]	/* MeasurePixelPerEm */
PUSHB[ ]	/* 1 value pushed */
25
LT[ ]	/* LessThan */
IF[ ]	/* If */
NPUSHB[ ]	/* 49 values pushed */
0 6 5 4 5 6 114 0 2 10 1 3 8 2 3 105 0 7 7 0 97 0 0 0 39 77 0 4 4 5 97 0 5 5 36 77 11 1 8 8 1 97 9 1 1 1 40 1 78
ELSE[ ]	/* Else */
MPPEM[ ]	/* MeasurePixelPerEm */
PUSHB[ ]	/* 1 value pushed */
33
LT[ ]	/* LessThan */
IF[ ]	/* If */
NPUSHB[ ]	/* 50 values pushed */
0 6 5 4 5 6 4 128 0 2 10 1 3 8 2 3 105 0 7 7 0 97 0 0 0 39 77 0 4 4 5 97 0 5 5 36 77 11 1 8 8 1 97 9 1 1 1 40 1 78
ELSE[ ]	/* Else */
NPUSHB[ ]	/* 48 values pushed */
0 6 5 4 5 6 4 128 0 5 0 4 2 5 4 105 0 2 10 1 3 8 2 3 105 0 7 7 0 97 0 0 0 39 77 11 1 8 8 1 97 9 1 1 1 40 1 78
EIF[ ]	/* EndIf */
EIF[ ]	/* EndIf */
NPUSHB[ ]	/* 32 values pushed */
28 28 16 16 0 0 28 51 28 50 46 44 42 41 40 38 34 32 16 27 16 26 22 20 0 15 0 14 38 12 8 23
CALL[ ]	/* CallFunction */";
};
width = 790;
}
);
note = uni278F;
unicode = 10127;
},
{
glyphname = uni2790;
layers = (
{
layerId = m01;
shapes = (
{
closed = 1;
nodes = (
(511,-12,o),
(678,85,o),
(775,252,o),
(775,350,qs),
(775,448,o),
(678,615,o),
(511,712,o),
(413,712,qs),
(315,712,o),
(148,615,o),
(51,448,o),
(51,350,qs),
(51,252,o),
(148,85,o),
(315,-12,o),
(413,-12,qs)
);
},
{
closed = 1;
nodes = (
(477,469,l),
(285,469,l),
(285,524,l),
(546,524,l),
(546,478,l),
(403,167,l),
(335,167,l)
);
}
);
userData = {
assembly = "NPUSHB[ ]	/* 57 values pushed */
17 1 3 2 1 76 0 3 2 4 2 3 4 128 0 2 2 0 97 0 0 0 39 77 6 1 4 4 1 98 5 1 1 1 40 1 78 16 16 0 0 16 22 16 22 21 20 19 18 0 15 0 14 38 7 8 23
CALL[ ]	/* CallFunction */";
};
width = 790;
}
);
note = uni2790;
unicode = 10128;
},
{
glyphname = uni2791;
layers = (
{
layerId = m01;
shapes = (
{
closed = 1;
nodes = (
(511,-12,o),
(678,85,o),
(775,252,o),
(775,350,qs),
(775,448,o),
(678,615,o),
(511,712,o),
(413,712,qs),
(315,712,o),
(148,615,o),
(51,448,o),
(51,350,qs),
(51,252,o),
(148,85,o),
(315,-12,o),
(413,-12,qs)
);
},
{
closed = 1;
nodes = (
(362,165,o),
(288,222,o),
(288,271,qs),
(288,302,o),
(320,354,o),
(348,363,q),
(297,387,o),
(297,439,qs),
(297,483,o),
(361,535,o),
(413,535,qs),
(464,535,o),
(530,482,o),
(530,439,qs),
(530,417,o),
(505,375,o),
(479,363,q),
(507,353,o),
(538,303,o),
(538,271,qs),
(538,221,o),
(465,165,o),
(413,165,qs)
);
},
{
closed = 1;
nodes = (
(441,220,o),
(474,249,o),
(474,276,qs),
(474,305,o),
(441,334,o),
(414,334,qs),
(387,334,o),
(353,306,o),
(353,276,qs),
(353,249,o),
(384,220,o),
(414,220,qs)
);
},
{
closed = 1;
nodes = (
(440,383,o),
(465,411,o),
(465,432,qs),
(465,456,o),
(437,482,o),
(413,482,qs),
(362,482,o),
(362,432,qs),
(362,410,o),
(389,383,o),
(413,383,qs)
);
}
);
userData = {
assembly = "PUSHB[ ]	/* 7 values pushed */
32 21 2 4 7 1 76
MPPEM[ ]	/* MeasurePixelPerEm */
PUSHB[ ]	/* 1 value pushed */
35
LT[ ]	/* LessThan */
IF[ ]	/* If */
NPUSHB[ ]	/* 43 values pushed */
0 4 10 1 5 3 4 5 105 0 2 2 0 97 0 0 0 39 77 11 1 7 7 6 97 0 6 6 36 77 9 1 3 3 1 97 8 1 1 1 40 1 78
ELSE[ ]	/* Else */
NPUSHB[ ]	/* 41 values pushed */
0 6 11 1 7 4 6 7 105 0 4 10 1 5 3 4 5 105 0 2 2 0 97 0 0 0 39 77 9 1 3 3 1 97 8 1 1 1 40 1 78
EIF[ ]	/* EndIf */
NPUSHB[ ]	/* 34 values pushed */
51 51 39 39 16 16 0 0 51 61 51 60 56 54 39 50 39 49 45 43 16 38 16 37 28 26 0 15 0 14 38 12 8 23
CALL[ ]	/* CallFunction */";
};
width = 790;
}
);
note = uni2791;
unicode = 10129;
},
{
glyphname = uni2792;
layers = (
{
layerId = m01;
shapes = (
{
closed = 1;
nodes = (
(511,-12,o),
(678,85,o),
(775,252,o),
(775,350,qs),
(775,448,o),
(678,615,o),
(511,712,o),
(413,712,qs),
(315,712,o),
(148,615,o),
(51,448,o),
(51,350,qs),
(51,252,o),
(148,85,o),
(315,-12,o),
(413,-12,qs)
);
},
{
closed = 1;
nodes = (
(360,165,o),
(300,222,o),
(295,268,q),
(355,268,l),
(365,219,o),
(410,219,qs),
(448,219,o),
(480,294,o),
(481,346,q),
(469,326,o),
(425,298,o),
(396,298,qs),
(351,298,o),
(288,364,o),
(288,414,qs),
(288,463,o),
(355,535,o),
(407,535,qs),
(480,535,o),
(545,432,o),
(545,362,qs),
(545,279,o),
(478,165,o),
(409,165,qs)
);
},
{
closed = 1;
nodes = (
(438,353,o),
(472,389,o),
(472,415,qs),
(472,443,o),
(438,479,o),
(411,479,qs),
(384,479,o),
(351,443,o),
(351,416,qs),
(351,388,o),
(384,353,o),
(412,353,qs)
);
}
);
userData = {
assembly = "PUSHB[ ]	/* 6 values pushed */
30 1 3 8 1 76
MPPEM[ ]	/* MeasurePixelPerEm */
PUSHB[ ]	/* 1 value pushed */
25
LT[ ]	/* LessThan */
IF[ ]	/* If */
NPUSHB[ ]	/* 49 values pushed */
0 5 3 4 4 5 114 0 3 0 4 6 3 4 105 0 2 2 0 97 0 0 0 39 77 11 1 8 8 7 97 0 7 7 36 77 10 1 6 6 1 97 9 1 1 1 40 1 78
ELSE[ ]	/* Else */
MPPEM[ ]	/* MeasurePixelPerEm */
PUSHB[ ]	/* 1 value pushed */
29
LT[ ]	/* LessThan */
IF[ ]	/* If */
NPUSHB[ ]	/* 50 values pushed */
0 5 3 4 3 5 4 128 0 3 0 4 6 3 4 105 0 2 2 0 97 0 0 0 39 77 11 1 8 8 7 97 0 7 7 36 77 10 1 6 6 1 97 9 1 1 1 40 1 78
ELSE[ ]	/* Else */
NPUSHB[ ]	/* 48 values pushed */
0 5 3 4 3 5 4 128 0 7 11 1 8 3 7 8 105 0 3 0 4 6 3 4 105 0 2 2 0 97 0 0 0 39 77 10 1 6 6 1 97 9 1 1 1 40 1 78
EIF[ ]	/* EndIf */
EIF[ ]	/* EndIf */
NPUSHB[ ]	/* 32 values pushed */
40 40 16 16 0 0 40 51 40 50 46 44 16 39 16 38 36 35 34 32 28 26 22 20 0 15 0 14 38 12 8 23
CALL[ ]	/* CallFunction */";
};
width = 790;
}
);
note = uni2792;
unicode = 10130;
},
{
glyphname = uni24EA.solid;
layers = (
{
layerId = m01;
shapes = (
{
closed = 1;
nodes = (
(511,-12,o),
(678,85,o),
(775,252,o),
(775,350,qs),
(775,448,o),
(678,615,o),
(511,712,o),
(413,712,qs),
(315,712,o),
(148,615,o),
(51,448,o),
(51,350,qs),
(51,252,o),
(148,85,o),
(315,-12,o),
(413,-12,qs)
);
},
{
closed = 1;
nodes = (
(344,165,o),
(311,216,qs),
(278,266,o),
(278,350,qs),
(278,435,o),
(311,484,qs),
(344,535,o),
(413,535,qs),
(483,535,o),
(515,485,qs),
(548,436,o),
(548,350,qs),
(548,265,o),
(515,215,qs),
(483,165,o),
(413,165,qs)
);
},
{
closed = 1;
nodes = (
(448,223,o),
(464,256,qs),
(481,289,o),
(481,350,qs),
(481,411,o),
(464,444,qs),
(448,477,o),
(413,477,qs),
(379,477,o),
(362,444,qs),
(345,411,o),
(345,350,qs),
(345,289,o),
(362,256,qs),
(379,223,o),
(413,223,qs)
);
}
);
userData = {
assembly = "MPPEM[ ]	/* MeasurePixelPerEm */
PUSHB[ ]	/* 1 value pushed */
27
LT[ ]	/* LessThan */
IF[ ]	/* If */
NPUSHB[ ]	/* 34 values pushed */
0 2 2 0 97 0 0 0 39 77 8 1 5 5 4 97 0 4 4 36 77 7 1 3 3 1 97 6 1 1 1 40 1 78
ELSE[ ]	/* Else */
NPUSHB[ ]	/* 32 values pushed */
0 4 8 1 5 3 4 5 105 0 2 2 0 97 0 0 0 39 77 7 1 3 3 1 97 6 1 1 1 40 1 78
EIF[ ]	/* EndIf */
NPUSHB[ ]	/* 26 values pushed */
32 32 16 16 0 0 32 47 32 46 40 38 16 31 16 30 24 22 0 15 0 14 38 9 8 23
CALL[ ]	/* CallFunction */";
};
width = 790;
}
);
note = uni24EA.solid;
},
{
glyphname = zero.dnom;
layers = (
{
layerId = m01;
shapes = (
{
closed = 1;
nodes = (
(180,-5,o),
(256,76,o),
(288,188,o),
(288,238,qs),
(288,295,o),
(237,358,o),
(182,358,qs),
(121,358,o),
(44,278,o),
(12,167,o),
(12,117,qs),
(12,60,o),
(63,-5,o),
(118,-5,qs)
);
},
{
closed = 1;
nodes = (
(78,52,o),
(78,125,qs),
(78,156,o),
(96,238,o),
(138,301,o),
(172,301,qs),
(197,301,o),
(222,264,o),
(222,229,qs),
(222,197,o),
(204,115,o),
(162,52,o),
(128,52,qs)
);
}
);
userData = {
assembly = "NPUSHB[ ]	/* 39 values pushed */
0 0 0 2 3 0 2 105 5 1 3 3 1 97 4 1 1 1 34 1 78 14 14 0 0 14 26 14 25 21 19 0 13 0 12 37 6 8 23
CALL[ ]	/* CallFunction */";
};
width = 325;
}
);
note = zero.dnom;
},
{
glyphname = one.dnom;
layers = (
{
layerId = m01;
shapes = (
{
closed = 1;
nodes = (
(237,0,l),
(247,55,l),
(164,55,l),
(217,353,l),
(183,353,l),
(56,309,l),
(47,260,l),
(143,281,l),
(103,55,l),
(8,55,l),
(-2,0,l)
);
}
);
userData = {
assembly = "NPUSHB[ ]	/* 31 values pushed */
3 2 2 0 1 1 76 0 1 0 1 133 2 1 0 0 3 96 0 3 3 34 3 78 17 17 20 16 4 8 26
CALL[ ]	/* CallFunction */";
};
width = 316;
}
);
note = one.dnom;
},
{
glyphname = two.dnom;
layers = (
{
layerId = m01;
shapes = (
{
closed = 1;
nodes = (
(232,0,l),
(242,55,l),
(85,55,l),
(165,123,ls),
(207,159,o),
(241,192,o),
(271,241,o),
(271,270,qs),
(271,308,o),
(221,358,o),
(173,358,qs),
(120,358,o),
(45,297,o),
(33,242,q),
(96,242,l),
(101,268,o),
(136,304,o),
(162,304,qs),
(184,304,o),
(207,280,o),
(207,262,qs),
(207,237,o),
(163,189,o),
(112,145,qs),
(-2,47,l),
(-10,0,l)
);
}
);
userData = {
assembly = "NPUSHB[ ]	/* 35 values pushed */
0 1 0 3 0 1 3 128 0 2 0 0 1 2 0 105 0 3 3 4 95 0 4 4 34 4 78 17 23 34 18 38 5 8 27
CALL[ ]	/* CallFunction */";
};
width = 311;
}
);
note = two.dnom;
},
{
glyphname = three.dnom;
layers = (
{
layerId = m01;
shapes = (
{
closed = 1;
nodes = (
(163,-5,o),
(230,36,o),
(264,100,o),
(264,134,qs),
(264,169,o),
(222,215,o),
(181,219,q),
(284,300,l),
(294,353,l),
(64,353,l),
(54,298,l),
(205,298,l),
(80,202,l),
(108,160,l),
(130,170,o),
(147,170,qs),
(172,170,o),
(201,147,o),
(201,125,qs),
(201,94,o),
(161,50,o),
(126,50,qs),
(100,50,o),
(72,76,o),
(72,97,qs),
(72,105,o),
(73,110,q),
(10,110,l),
(8,94,o),
(8,87,qs),
(8,43,o),
(65,-5,o),
(116,-5,qs)
);
}
);
userData = {
assembly = "NPUSHB[ ]	/* 16 values pushed */
25 19 2 2 3 18 1 0 2 7 2 2 1 0 3 76
MPPEM[ ]	/* MeasurePixelPerEm */
PUSHB[ ]	/* 1 value pushed */
9
LT[ ]	/* LessThan */
IF[ ]	/* If */
NPUSHB[ ]	/* 33 values pushed */
0 2 3 0 3 2 114 0 0 1 1 0 112 0 4 0 3 2 4 3 103 0 1 1 5 98 6 1 5 5 34 5 78
ELSE[ ]	/* Else */
MPPEM[ ]	/* MeasurePixelPerEm */
PUSHB[ ]	/* 1 value pushed */
21
LT[ ]	/* LessThan */
IF[ ]	/* If */
NPUSHB[ ]	/* 34 values pushed */
0 2 3 0 3 2 0 128 0 0 1 1 0 112 0 4 0 3 2 4 3 103 0 1 1 5 98 6 1 5 5 34 5 78
ELSE[ ]	/* Else */
NPUSHB[ ]	/* 35 values pushed */
0 2 3 0 3 2 0 128 0 0 1 3 0 1 126 0 4 0 3 2 4 3 103 0 1 1 5 98 6 1 5 5 34 5 78
EIF[ ]	/* EndIf */
EIF[ ]	/* EndIf */
NPUSHB[ ]	/* 14 values pushed */
0 0 0 32 0 31 17 19 36 36 20 7 8 27
CALL[ ]	/* CallFunction */";
};
width = 320;
}
);
note = three.dnom;
},
{
glyphname = four.dnom;
layers = (
{
layerId = m01;
shapes = (
{
closed = 1;
nodes = (
(203,0,l),
(215,66,l),
(256,66,l),
(266,122,l),
(225,122,l),
(241,213,l),
(181,213,l),
(165,122,l),
(68,122,l),
(223,353,l),
(159,353,l),
(-2,117,l),
(-11,66,l),
(151,66,l),
(139,0,l)
);
}
);
userData = {
assembly = "MPPEM[ ]	/* MeasurePixelPerEm */
PUSHB[ ]	/* 1 value pushed */
13
LT[ ]	/* LessThan */
IF[ ]	/* If */
NPUSHB[ ]	/* 27 values pushed */
0 1 3 1 133 0 3 2 2 3 112 4 1 2 5 1 0 6 2 0 104 0 6 6 34 6 78
ELSE[ ]	/* Else */
NPUSHB[ ]	/* 26 values pushed */
0 1 3 1 133 0 3 2 3 133 4 1 2 5 1 0 6 2 0 104 0 6 6 34 6 78
EIF[ ]	/* EndIf */
NPUSHB[ ]	/* 10 values pushed */
17 17 17 17 17 18 16 7 8 29
CALL[ ]	/* CallFunction */";
};
width = 304;
}
);
note = four.dnom;
},
{
glyphname = five.dnom;
layers = (
{
layerId = m01;
shapes = (
{
closed = 1;
nodes = (
(152,-5,o),
(222,36,o),
(262,106,o),
(262,147,qs),
(262,189,o),
(213,243,o),
(167,243,qs),
(144,243,o),
(103,228,o),
(89,215,q),
(120,297,l),
(267,297,l),
(277,353,l),
(82,353,l),
(16,152,l),
(78,152,l),
(88,169,o),
(125,191,o),
(147,191,qs),
(171,191,o),
(199,162,o),
(199,137,qs),
(199,103,o),
(155,50,o),
(121,50,qs),
(96,50,o),
(66,78,o),
(65,100,q),
(2,100,l),
(-4,57,o),
(53,-5,o),
(111,-5,qs)
);
}
);
userData = {
assembly = "PUSHB[ ]	/* 6 values pushed */
21 1 2 6 1 76
MPPEM[ ]	/* MeasurePixelPerEm */
PUSHB[ ]	/* 1 value pushed */
25
LT[ ]	/* LessThan */
IF[ ]	/* If */
NPUSHB[ ]	/* 42 values pushed */
0 3 2 0 2 3 0 128 0 0 1 1 0 112 0 4 0 5 6 4 5 103 0 6 0 2 3 6 2 105 0 1 1 7 98 8 1 7 7 34 7 78
ELSE[ ]	/* Else */
NPUSHB[ ]	/* 43 values pushed */
0 3 2 0 2 3 0 128 0 0 1 2 0 1 126 0 4 0 5 6 4 5 103 0 6 0 2 3 6 2 105 0 1 1 7 98 8 1 7 7 34 7 78
EIF[ ]	/* EndIf */
NPUSHB[ ]	/* 16 values pushed */
0 0 0 31 0 30 35 17 17 18 36 34 18 9 8 29
CALL[ ]	/* CallFunction */";
};
width = 312;
}
);
note = five.dnom;
},
{
glyphname = six.dnom;
layers = (
{
layerId = m01;
shapes = (
{
closed = 1;
nodes = (
(159,-5,o),
(224,36,o),
(261,102,o),
(261,136,qs),
(261,175,o),
(214,228,o),
(173,228,qs),
(147,228,o),
(97,201,o),
(82,180,q),
(94,242,o),
(141,305,o),
(173,305,qs),
(217,305,o),
(219,257,q),
(278,257,l),
(280,302,o),
(229,358,o),
(183,358,qs),
(129,358,o),
(51,283,o),
(12,171,o),
(12,117,qs),
(12,61,o),
(65,-5,o),
(121,-5,qs)
);
},
{
closed = 1;
nodes = (
(105,50,o),
(77,78,o),
(77,100,qs),
(77,129,o),
(120,173,o),
(148,173,qs),
(171,173,o),
(198,147,o),
(198,125,qs),
(198,95,o),
(158,50,o),
(127,50,qs)
);
}
);
userData = {
assembly = "PUSHB[ ]	/* 6 values pushed */
15 1 5 3 1 76
MPPEM[ ]	/* MeasurePixelPerEm */
PUSHB[ ]	/* 1 value pushed */
27
LT[ ]	/* LessThan */
IF[ ]	/* If */
NPUSHB[ ]	/* 36 values pushed */
0 1 2 3 2 1 114 0 0 0 2 1 0 2 105 0 3 0 5 6 3 5 105 8 1 6 6 4 97 7 1 4 4 34 4 78
ELSE[ ]	/* Else */
NPUSHB[ ]	/* 37 values pushed */
0 1 2 3 2 1 3 128 0 0 0 2 1 0 2 105 0 3 0 5 6 3 5 105 8 1 6 6 4 97 7 1 4 4 34 4 78
EIF[ ]	/* EndIf */
NPUSHB[ ]	/* 21 values pushed */
26 26 0 0 26 37 26 36 32 30 0 25 0 24 36 33 18 37 9 8 26
CALL[ ]	/* CallFunction */";
};
width = 313;
}
);
note = six.dnom;
},
{
glyphname = seven.dnom;
layers = (
{
layerId = m01;
shapes = (
{
closed = 1;
nodes = (
(103,0,l),
(298,307,l),
(307,353,l),
(49,353,l),
(39,298,l),
(229,298,l),
(36,0,l)
);
}
);
userData = {
assembly = "NPUSHB[ ]	/* 20 values pushed */
0 1 0 0 2 1 0 103 0 2 2 34 2 78 18 17 16 3 8 25
CALL[ ]	/* CallFunction */";
};
width = 318;
}
);
note = seven.dnom;
},
{
glyphname = eight.dnom;
layers = (
{
layerId = m01;
shapes = (
{
closed = 1;
nodes = (
(175,-5,o),
(253,65,o),
(253,115,qs),
(253,169,o),
(205,189,q),
(271,220,o),
(271,276,qs),
(271,313,o),
(219,358,o),
(173,358,qs),
(116,358,o),
(39,300,o),
(39,252,qs),
(39,231,o),
(61,199,o),
(81,189,q),
(46,177,o),
(3,121,o),
(3,86,qs),
(3,44,o),
(60,-5,o),
(112,-5,qs)
);
},
{
closed = 1;
nodes = (
(95,48,o),
(65,74,o),
(65,96,qs),
(65,128,o),
(111,160,o),
(138,160,qs),
(162,160,o),
(191,136,o),
(191,113,qs),
(191,82,o),
(146,48,o),
(120,48,qs)
);
},
{
closed = 1;
nodes = (
(127,208,o),
(101,230,o),
(101,250,qs),
(101,274,o),
(137,305,o),
(163,305,qs),
(184,305,o),
(208,283,o),
(208,264,qs),
(208,240,o),
(172,208,o),
(148,208,qs)
);
}
);
userData = {
assembly = "NPUSHB[ ]	/* 63 values pushed */
16 5 2 2 5 1 76 0 0 0 4 5 0 4 105 8 1 5 0 2 3 5 2 105 7 1 3 3 1 97 6 1 1 1 34 1 78 34 34 22 22 0 0 34 45 34 44 40 38 22 33 22 32 28 26 0 21 0 20 42 9 8 23
CALL[ ]	/* CallFunction */";
};
width = 308;
}
);
note = eight.dnom;
},
{
glyphname = nine.dnom;
layers = (
{
layerId = m01;
shapes = (
{
closed = 1;
nodes = (
(158,-5,o),
(236,72,o),
(276,185,o),
(276,237,qs),
(276,292,o),
(222,358,o),
(166,358,qs),
(128,358,o),
(64,317,o),
(26,252,o),
(26,218,qs),
(26,179,o),
(73,125,o),
(114,125,qs),
(141,125,o),
(191,152,o),
(206,173,q),
(194,111,o),
(147,48,o),
(115,48,qs),
(71,48,o),
(69,96,q),
(10,96,l),
(8,51,o),
(58,-5,o),
(104,-5,qs)
);
},
{
closed = 1;
nodes = (
(117,180,o),
(90,206,o),
(90,228,qs),
(90,258,o),
(130,303,o),
(161,303,qs),
(184,303,o),
(211,276,o),
(211,253,qs),
(211,224,o),
(168,180,o),
(140,180,qs)
);
}
);
userData = {
assembly = "PUSHB[ ]	/* 6 values pushed */
8 1 2 6 1 76
MPPEM[ ]	/* MeasurePixelPerEm */
PUSHB[ ]	/* 1 value pushed */
27
LT[ ]	/* LessThan */
IF[ ]	/* If */
NPUSHB[ ]	/* 36 values pushed */
0 0 2 1 1 0 114 0 3 0 5 6 3 5 105 8 1 6 0 2 0 6 2 105 0 1 1 4 98 7 1 4 4 34 4 78
ELSE[ ]	/* Else */
NPUSHB[ ]	/* 37 values pushed */
0 0 2 1 2 0 1 128 0 3 0 5 6 3 5 105 8 1 6 0 2 0 6 2 105 0 1 1 4 98 7 1 4 4 34 4 78
EIF[ ]	/* EndIf */
NPUSHB[ ]	/* 21 values pushed */
26 26 0 0 26 37 26 36 32 30 0 25 0 24 37 36 33 18 9 8 26
CALL[ ]	/* CallFunction */";
};
width = 312;
}
);
note = nine.dnom;
},
{
glyphname = zero.numr;
layers = (
{
layerId = m01;
shapes = (
{
closed = 1;
nodes = (
(241,342,o),
(317,423,o),
(349,535,o),
(349,585,qs),
(349,642,o),
(298,705,o),
(243,705,qs),
(182,705,o),
(105,625,o),
(73,514,o),
(73,464,qs),
(73,407,o),
(124,342,o),
(179,342,qs)
);
},
{
closed = 1;
nodes = (
(139,399,o),
(139,472,qs),
(139,503,o),
(157,586,o),
(199,648,o),
(233,648,qs),
(283,648,o),
(283,575,qs),
(283,543,o),
(265,461,o),
(222,399,o),
(189,399,qs)
);
}
);
userData = {
assembly = "NPUSHB[ ]	/* 38 values pushed */
5 1 3 4 1 1 3 1 101 0 2 2 0 97 0 0 0 33 2 78 14 14 0 0 14 25 14 24 20 18 0 13 0 12 37 6 8 23
CALL[ ]	/* CallFunction */";
};
width = 325;
}
);
note = zero.numr;
},
{
glyphname = one.numr;
layers = (
{
layerId = m01;
shapes = (
{
closed = 1;
nodes = (
(298,347,l),
(308,402,l),
(225,402,l),
(278,700,l),
(244,700,l),
(117,656,l),
(108,607,l),
(204,628,l),
(164,402,l),
(69,402,l),
(59,347,l)
);
}
);
userData = {
assembly = "NPUSHB[ ]	/* 28 values pushed */
3 2 2 0 1 1 76 2 1 0 0 3 0 3 100 0 1 1 33 1 78 17 17 20 16 4 8 26
CALL[ ]	/* CallFunction */";
};
width = 316;
}
);
note = one.numr;
},
{
glyphname = two.numr;
layers = (
{
layerId = m01;
shapes = (
{
closed = 1;
nodes = (
(293,347,l),
(303,402,l),
(146,402,l),
(226,470,ls),
(268,506,o),
(302,539,o),
(332,588,o),
(332,617,qs),
(332,655,o),
(282,705,o),
(234,705,qs),
(181,705,o),
(106,644,o),
(94,589,q),
(157,589,l),
(162,615,o),
(197,651,o),
(223,651,qs),
(245,651,o),
(268,627,o),
(268,609,qs),
(268,584,o),
(224,536,o),
(173,492,qs),
(59,394,l),
(51,347,l)
);
}
);
userData = {
assembly = "NPUSHB[ ]	/* 34 values pushed */
0 1 0 3 0 1 3 128 0 3 0 4 3 4 99 0 0 0 2 97 0 2 2 33 0 78 17 23 34 18 38 5 8 27
CALL[ ]	/* CallFunction */";
};
width = 311;
}
);
note = two.numr;
},
{
glyphname = three.numr;
layers = (
{
layerId = m01;
shapes = (
{
closed = 1;
nodes = (
(224,342,o),
(291,383,o),
(325,447,o),
(325,481,qs),
(325,516,o),
(283,562,o),
(242,566,q),
(345,647,l),
(355,700,l),
(125,700,l),
(115,645,l),
(266,645,l),
(141,549,l),
(169,507,l),
(191,517,o),
(208,517,qs),
(233,517,o),
(262,494,o),
(262,472,qs),
(262,441,o),
(222,397,o),
(187,397,qs),
(161,397,o),
(133,423,o),
(133,444,qs),
(133,452,o),
(134,457,q),
(71,457,l),
(69,441,o),
(69,434,qs),
(69,390,o),
(126,342,o),
(177,342,qs)
);
}
);
userData = {
assembly = "NPUSHB[ ]	/* 16 values pushed */
25 19 2 2 3 18 1 0 2 7 2 2 1 0 3 76
MPPEM[ ]	/* MeasurePixelPerEm */
PUSHB[ ]	/* 1 value pushed */
9
LT[ ]	/* LessThan */
IF[ ]	/* If */
NPUSHB[ ]	/* 32 values pushed */
0 2 3 0 3 2 114 0 0 1 1 0 112 0 1 6 1 5 1 5 102 0 3 3 4 95 0 4 4 33 3 78
ELSE[ ]	/* Else */
MPPEM[ ]	/* MeasurePixelPerEm */
PUSHB[ ]	/* 1 value pushed */
21
LT[ ]	/* LessThan */
IF[ ]	/* If */
NPUSHB[ ]	/* 33 values pushed */
0 2 3 0 3 2 0 128 0 0 1 1 0 112 0 1 6 1 5 1 5 102 0 3 3 4 95 0 4 4 33 3 78
ELSE[ ]	/* Else */
NPUSHB[ ]	/* 34 values pushed */
0 2 3 0 3 2 0 128 0 0 1 3 0 1 126 0 1 6 1 5 1 5 102 0 3 3 4 95 0 4 4 33 3 78
EIF[ ]	/* EndIf */
EIF[ ]	/* EndIf */
NPUSHB[ ]	/* 14 values pushed */
0 0 0 32 0 31 17 19 36 36 20 7 8 27
CALL[ ]	/* CallFunction */";
};
width = 320;
}
);
note = three.numr;
},
{
glyphname = four.numr;
layers = (
{
layerId = m01;
shapes = (
{
closed = 1;
nodes = (
(264,347,l),
(276,413,l),
(317,413,l),
(327,469,l),
(286,469,l),
(302,560,l),
(242,560,l),
(226,469,l),
(129,469,l),
(284,700,l),
(220,700,l),
(59,464,l),
(50,413,l),
(212,413,l),
(200,347,l)
);
}
);
userData = {
assembly = "MPPEM[ ]	/* MeasurePixelPerEm */
PUSHB[ ]	/* 1 value pushed */
13
LT[ ]	/* LessThan */
IF[ ]	/* If */
NPUSHB[ ]	/* 29 values pushed */
0 3 1 2 2 3 114 0 6 0 0 6 113 4 1 2 5 1 0 6 2 0 104 0 1 1 33 1 78
ELSE[ ]	/* Else */
MPPEM[ ]	/* MeasurePixelPerEm */
PUSHB[ ]	/* 1 value pushed */
19
LT[ ]	/* LessThan */
IF[ ]	/* If */
NPUSHB[ ]	/* 30 values pushed */
0 3 1 2 1 3 2 128 0 6 0 0 6 113 4 1 2 5 1 0 6 2 0 104 0 1 1 33 1 78
ELSE[ ]	/* Else */
NPUSHB[ ]	/* 29 values pushed */
0 3 1 2 1 3 2 128 0 6 0 6 134 4 1 2 5 1 0 6 2 0 104 0 1 1 33 1 78
EIF[ ]	/* EndIf */
EIF[ ]	/* EndIf */
NPUSHB[ ]	/* 10 values pushed */
17 17 17 17 17 18 16 7 8 29
CALL[ ]	/* CallFunction */";
};
width = 304;
}
);
note = four.numr;
},
{
glyphname = five.numr;
layers = (
{
layerId = m01;
shapes = (
{
closed = 1;
nodes = (
(215,342,o),
(283,384,o),
(323,453,o),
(323,494,qs),
(323,536,o),
(274,590,o),
(228,590,qs),
(205,590,o),
(164,575,o),
(150,562,q),
(181,644,l),
(328,644,l),
(338,700,l),
(143,700,l),
(77,499,l),
(139,499,l),
(149,516,o),
(186,538,o),
(208,538,qs),
(232,538,o),
(260,509,o),
(260,484,qs),
(260,450,o),
(216,397,o),
(182,397,qs),
(157,397,o),
(127,425,o),
(126,447,q),
(63,447,l),
(58,404,o),
(115,342,o),
(173,342,qs)
);
}
);
userData = {
assembly = "PUSHB[ ]	/* 6 values pushed */
21 1 2 6 1 76
MPPEM[ ]	/* MeasurePixelPerEm */
PUSHB[ ]	/* 1 value pushed */
25
LT[ ]	/* LessThan */
IF[ ]	/* If */
NPUSHB[ ]	/* 41 values pushed */
0 3 2 0 2 3 0 128 0 0 1 1 0 112 0 6 0 2 3 6 2 105 0 1 8 1 7 1 7 102 0 5 5 4 95 0 4 4 33 5 78
ELSE[ ]	/* Else */
NPUSHB[ ]	/* 42 values pushed */
0 3 2 0 2 3 0 128 0 0 1 2 0 1 126 0 6 0 2 3 6 2 105 0 1 8 1 7 1 7 102 0 5 5 4 95 0 4 4 33 5 78
EIF[ ]	/* EndIf */
NPUSHB[ ]	/* 16 values pushed */
0 0 0 31 0 30 35 17 17 18 36 34 18 9 8 29
CALL[ ]	/* CallFunction */";
};
width = 312;
}
);
note = five.numr;
},
{
glyphname = six.numr;
layers = (
{
layerId = m01;
shapes = (
{
closed = 1;
nodes = (
(220,342,o),
(284,383,o),
(322,448,o),
(322,482,qs),
(322,521,o),
(275,575,o),
(234,575,qs),
(207,575,o),
(157,548,o),
(142,527,q),
(154,589,o),
(201,652,o),
(233,652,qs),
(277,652,o),
(279,604,q),
(338,604,l),
(340,649,o),
(290,705,o),
(244,705,qs),
(190,705,o),
(112,628,o),
(72,515,o),
(72,463,qs),
(72,408,o),
(126,342,o),
(182,342,qs)
);
},
{
closed = 1;
nodes = (
(165,397,o),
(137,425,o),
(137,447,qs),
(137,476,o),
(180,520,o),
(208,520,qs),
(231,520,o),
(258,494,o),
(258,472,qs),
(258,442,o),
(218,397,o),
(187,397,qs)
);
}
);
userData = {
assembly = "PUSHB[ ]	/* 6 values pushed */
15 1 5 3 1 76
MPPEM[ ]	/* MeasurePixelPerEm */
PUSHB[ ]	/* 1 value pushed */
27
LT[ ]	/* LessThan */
IF[ ]	/* If */
NPUSHB[ ]	/* 35 values pushed */
0 1 2 3 2 1 114 0 3 0 5 6 3 5 105 8 1 6 7 1 4 6 4 101 0 2 2 0 97 0 0 0 33 2 78
ELSE[ ]	/* Else */
NPUSHB[ ]	/* 36 values pushed */
0 1 2 3 2 1 3 128 0 3 0 5 6 3 5 105 8 1 6 7 1 4 6 4 101 0 2 2 0 97 0 0 0 33 2 78
EIF[ ]	/* EndIf */
NPUSHB[ ]	/* 21 values pushed */
26 26 0 0 26 37 26 36 32 30 0 25 0 24 36 33 18 37 9 8 26
CALL[ ]	/* CallFunction */";
};
width = 313;
}
);
note = six.numr;
},
{
glyphname = seven.numr;
layers = (
{
layerId = m01;
shapes = (
{
closed = 1;
nodes = (
(164,347,l),
(360,654,l),
(368,700,l),
(110,700,l),
(100,645,l),
(290,645,l),
(97,347,l)
);
}
);
userData = {
assembly = "NPUSHB[ ]	/* 22 values pushed */
0 2 0 2 134 0 0 0 1 95 0 1 1 33 0 78 18 17 16 3 8 25
CALL[ ]	/* CallFunction */";
};
width = 318;
}
);
note = seven.numr;
},
{
glyphname = eight.numr;
layers = (
{
layerId = m01;
shapes = (
{
closed = 1;
nodes = (
(236,342,o),
(314,412,o),
(314,462,qs),
(314,516,o),
(266,536,q),
(332,567,o),
(332,623,qs),
(332,660,o),
(280,705,o),
(234,705,qs),
(177,705,o),
(100,647,o),
(100,599,qs),
(100,578,o),
(122,546,o),
(142,536,q),
(107,524,o),
(64,468,o),
(64,433,qs),
(64,391,o),
(121,342,o),
(173,342,qs)
);
},
{
closed = 1;
nodes = (
(156,395,o),
(126,421,o),
(126,443,qs),
(126,475,o),
(172,507,o),
(199,507,qs),
(223,507,o),
(252,483,o),
(252,460,qs),
(252,429,o),
(207,395,o),
(181,395,qs)
);
},
{
closed = 1;
nodes = (
(188,555,o),
(162,577,o),
(162,597,qs),
(162,621,o),
(198,652,o),
(224,652,qs),
(245,652,o),
(269,630,o),
(269,611,qs),
(269,587,o),
(233,555,o),
(209,555,qs)
);
}
);
userData = {
assembly = "NPUSHB[ ]	/* 62 values pushed */
16 5 2 2 5 1 76 8 1 5 0 2 3 5 2 105 7 1 3 6 1 1 3 1 101 0 4 4 0 97 0 0 0 33 4 78 34 34 22 22 0 0 34 45 34 44 40 38 22 33 22 32 28 26 0 21 0 20 42 9 8 23
CALL[ ]	/* CallFunction */";
};
width = 308;
}
);
note = eight.numr;
},
{
glyphname = nine.numr;
layers = (
{
layerId = m01;
shapes = (
{
closed = 1;
nodes = (
(220,342,o),
(298,417,o),
(337,529,o),
(337,583,qs),
(337,639,o),
(284,705,o),
(228,705,qs),
(190,705,o),
(125,664,o),
(88,598,o),
(88,563,qs),
(88,524,o),
(135,472,o),
(175,472,qs),
(202,472,o),
(252,499,o),
(267,520,q),
(255,458,o),
(208,395,o),
(176,395,qs),
(132,395,o),
(130,443,q),
(71,443,l),
(69,398,o),
(120,342,o),
(166,342,qs)
);
},
{
closed = 1;
nodes = (
(178,527,o),
(151,553,o),
(151,575,qs),
(151,605,o),
(191,650,o),
(222,650,qs),
(245,650,o),
(272,623,o),
(272,600,qs),
(272,571,o),
(229,527,o),
(201,527,qs)
);
}
);
userData = {
assembly = "PUSHB[ ]	/* 6 values pushed */
8 1 2 6 1 76
MPPEM[ ]	/* MeasurePixelPerEm */
PUSHB[ ]	/* 1 value pushed */
27
LT[ ]	/* LessThan */
IF[ ]	/* If */
NPUSHB[ ]	/* 37 values pushed */
0 0 2 1 1 0 114 0 1 7 1 4 1 4 102 0 5 5 3 97 0 3 3 33 77 0 2 2 6 97 8 1 6 6 42 2 78
ELSE[ ]	/* Else */
NPUSHB[ ]	/* 36 values pushed */
0 0 2 1 2 0 1 128 8 1 6 0 2 0 6 2 105 0 1 7 1 4 1 4 102 0 5 5 3 97 0 3 3 33 5 78
EIF[ ]	/* EndIf */
NPUSHB[ ]	/* 21 values pushed */
26 26 0 0 26 37 26 36 32 30 0 25 0 24 37 36 33 18 9 8 26
CALL[ ]	/* CallFunction */";
};
width = 313;
}
);
note = nine.numr;
},
{
glyphname = fraction;
layers = (
{
layerId = m01;
shapes = (
{
closed = 1;
nodes = (
(19,0,l),
(663,700,l),
(592,700,l),
(-51,0,l)
);
}
);
userData = {
assembly = "NPUSHB[ ]	/* 16 values pushed */
0 0 0 33 77 0 1 1 34 1 78 17 16 2 8 24
CALL[ ]	/* CallFunction */";
};
width = 571;
}
);
note = fraction;
unicode = 8260;
},
{
glyphname = onehalf;
layers = (
{
layerId = m01;
shapes = (
{
closed = 1;
nodes = (
(124,0,l),
(768,700,l),
(697,700,l),
(54,0,l)
);
},
{
closed = 1;
nodes = (
(296,347,l),
(306,402,l),
(223,402,l),
(276,700,l),
(242,700,l),
(115,657,l),
(106,607,l),
(202,628,l),
(162,402,l),
(67,402,l),
(57,347,l)
);
},
{
closed = 1;
nodes = (
(676,0,l),
(686,55,l),
(529,55,l),
(609,123,ls),
(651,159,o),
(685,192,o),
(715,241,o),
(715,270,qs),
(715,308,o),
(665,358,o),
(617,358,qs),
(564,358,o),
(489,297,o),
(477,242,q),
(540,242,l),
(545,268,o),
(580,304,o),
(606,304,qs),
(628,304,o),
(651,280,o),
(651,262,qs),
(651,237,o),
(607,189,o),
(556,145,qs),
(442,47,l),
(434,0,l)
);
}
);
userData = {
assembly = "PUSHB[ ]	/* 2 values pushed */
6 100
WCVTP[ ]	/* WriteCVTInPixels */
NPUSHB[ ]	/* 71 values pushed */
7 6 2 2 0 1 76 3 1 0 2 0 133 0 7 6 9 6 7 9 128 4 1 2 0 5 6 2 5 104 0 8 0 6 7 8 6 105 0 9 1 1 9 87 0 9 9 1 95 10 1 1 9 1 79 40 39 38 37 34 18 39 17 17 20 17 17 16 11 8 31
CALL[ ]	/* CallFunction */
PUSHB[ ]	/* 2 values pushed */
6 0
WCVTP[ ]	/* WriteCVTInPixels */";
};
width = 765;
}
);
note = onehalf;
unicode = 189;
},
{
glyphname = onequarter;
layers = (
{
layerId = m01;
shapes = (
{
closed = 1;
nodes = (
(124,0,l),
(768,700,l),
(697,700,l),
(54,0,l)
);
},
{
closed = 1;
nodes = (
(296,347,l),
(306,402,l),
(223,402,l),
(276,700,l),
(242,700,l),
(115,657,l),
(106,607,l),
(202,628,l),
(162,402,l),
(67,402,l),
(57,347,l)
);
},
{
closed = 1;
nodes = (
(634,0,l),
(646,66,l),
(687,66,l),
(697,122,l),
(656,122,l),
(672,213,l),
(612,213,l),
(596,122,l),
(499,122,l),
(654,353,l),
(590,353,l),
(429,117,l),
(420,66,l),
(582,66,l),
(570,0,l)
);
}
);
userData = {
assembly = "PUSHB[ ]	/* 2 values pushed */
6 100
WCVTP[ ]	/* WriteCVTInPixels */
PUSHB[ ]	/* 7 values pushed */
7 6 2 2 0 1 76
MPPEM[ ]	/* MeasurePixelPerEm */
PUSHB[ ]	/* 1 value pushed */
13
LT[ ]	/* LessThan */
IF[ ]	/* If */
NPUSHB[ ]	/* 56 values pushed */
3 1 0 2 0 133 0 7 2 5 2 7 5 128 0 9 5 8 8 9 114 12 1 1 6 6 1 113 4 1 2 0 5 9 2 5 104 10 1 8 6 6 8 87 10 1 8 8 6 96 11 1 6 8 6 80
ELSE[ ]	/* Else */
MPPEM[ ]	/* MeasurePixelPerEm */
PUSHB[ ]	/* 1 value pushed */
19
LT[ ]	/* LessThan */
IF[ ]	/* If */
NPUSHB[ ]	/* 57 values pushed */
3 1 0 2 0 133 0 7 2 5 2 7 5 128 0 9 5 8 5 9 8 128 12 1 1 6 6 1 113 4 1 2 0 5 9 2 5 104 10 1 8 6 6 8 87 10 1 8 8 6 96 11 1 6 8 6 80
ELSE[ ]	/* Else */
NPUSHB[ ]	/* 56 values pushed */
3 1 0 2 0 133 0 7 2 5 2 7 5 128 0 9 5 8 5 9 8 128 12 1 1 6 1 134 4 1 2 0 5 9 2 5 104 10 1 8 6 6 8 87 10 1 8 8 6 96 11 1 6 8 6 80
EIF[ ]	/* EndIf */
EIF[ ]	/* EndIf */
NPUSHB[ ]	/* 20 values pushed */
29 28 27 26 25 24 23 22 17 18 17 17 17 20 17 17 16 13 8 31
CALL[ ]	/* CallFunction */
PUSHB[ ]	/* 2 values pushed */
6 0
WCVTP[ ]	/* WriteCVTInPixels */";
};
width = 759;
}
);
note = onequarter;
unicode = 188;
},
{
glyphname = threequarters;
layers = (
{
layerId = m01;
shapes = (
{
closed = 1;
nodes = (
(123,0,l),
(767,700,l),
(696,700,l),
(53,0,l)
);
},
{
closed = 1;
nodes = (
(633,0,l),
(645,66,l),
(686,66,l),
(696,122,l),
(655,122,l),
(671,213,l),
(611,213,l),
(595,122,l),
(498,122,l),
(653,353,l),
(589,353,l),
(428,117,l),
(419,66,l),
(581,66,l),
(569,0,l)
);
},
{
closed = 1;
nodes = (
(230,342,o),
(297,383,o),
(331,447,o),
(331,481,qs),
(331,516,o),
(289,562,o),
(248,566,q),
(351,647,l),
(361,700,l),
(131,700,l),
(121,645,l),
(272,645,l),
(147,549,l),
(175,507,l),
(197,517,o),
(214,517,qs),
(239,517,o),
(268,494,o),
(268,472,qs),
(268,441,o),
(228,397,o),
(193,397,qs),
(167,397,o),
(139,423,o),
(139,444,qs),
(139,452,o),
(140,457,q),
(77,457,l),
(75,441,o),
(75,434,qs),
(75,390,o),
(132,342,o),
(183,342,qs)
);
}
);
userData = {
assembly = "PUSHB[ ]	/* 2 values pushed */
6 100
WCVTP[ ]	/* WriteCVTInPixels */
NPUSHB[ ]	/* 16 values pushed */
44 38 2 11 12 37 1 9 11 26 21 2 10 9 3 76
MPPEM[ ]	/* MeasurePixelPerEm */
PUSHB[ ]	/* 1 value pushed */
9
LT[ ]	/* LessThan */
IF[ ]	/* If */
NPUSHB[ ]	/* 72 values pushed */
0 11 12 9 12 11 114 0 9 10 10 9 112 0 3 10 14 10 3 14 128 0 5 14 4 4 5 114 8 1 1 2 2 1 113 13 1 0 0 12 11 0 12 103 0 10 15 1 14 5 10 14 106 6 1 4 2 2 4 87 6 1 4 4 2 96 7 1 2 4 2 80
ELSE[ ]	/* Else */
MPPEM[ ]	/* MeasurePixelPerEm */
PUSHB[ ]	/* 1 value pushed */
13
LT[ ]	/* LessThan */
IF[ ]	/* If */
NPUSHB[ ]	/* 73 values pushed */
0 11 12 9 12 11 9 128 0 9 10 10 9 112 0 3 10 14 10 3 14 128 0 5 14 4 4 5 114 8 1 1 2 2 1 113 13 1 0 0 12 11 0 12 103 0 10 15 1 14 5 10 14 106 6 1 4 2 2 4 87 6 1 4 4 2 96 7 1 2 4 2 80
ELSE[ ]	/* Else */
MPPEM[ ]	/* MeasurePixelPerEm */
PUSHB[ ]	/* 1 value pushed */
19
LT[ ]	/* LessThan */
IF[ ]	/* If */
NPUSHB[ ]	/* 74 values pushed */
0 11 12 9 12 11 9 128 0 9 10 10 9 112 0 3 10 14 10 3 14 128 0 5 14 4 14 5 4 128 8 1 1 2 2 1 113 13 1 0 0 12 11 0 12 103 0 10 15 1 14 5 10 14 106 6 1 4 2 2 4 87 6 1 4 4 2 96 7 1 2 4 2 80
ELSE[ ]	/* Else */
MPPEM[ ]	/* MeasurePixelPerEm */
PUSHB[ ]	/* 1 value pushed */
21
LT[ ]	/* LessThan */
IF[ ]	/* If */
NPUSHB[ ]	/* 73 values pushed */
0 11 12 9 12 11 9 128 0 9 10 10 9 112 0 3 10 14 10 3 14 128 0 5 14 4 14 5 4 128 8 1 1 2 1 134 13 1 0 0 12 11 0 12 103 0 10 15 1 14 5 10 14 106 6 1 4 2 2 4 87 6 1 4 4 2 96 7 1 2 4 2 80
ELSE[ ]	/* Else */
NPUSHB[ ]	/* 74 values pushed */
0 11 12 9 12 11 9 128 0 9 10 12 9 10 126 0 3 10 14 10 3 14 128 0 5 14 4 14 5 4 128 8 1 1 2 1 134 13 1 0 0 12 11 0 12 103 0 10 15 1 14 5 10 14 106 6 1 4 2 2 4 87 6 1 4 4 2 96 7 1 2 4 2 80
EIF[ ]	/* EndIf */
EIF[ ]	/* EndIf */
EIF[ ]	/* EndIf */
EIF[ ]	/* EndIf */
NPUSHB[ ]	/* 28 values pushed */
19 19 19 51 19 50 42 41 40 39 36 34 30 28 24 23 17 17 17 17 17 18 17 17 16 16 8 31
CALL[ ]	/* CallFunction */
PUSHB[ ]	/* 2 values pushed */
6 0
WCVTP[ ]	/* WriteCVTInPixels */";
};
width = 758;
}
);
note = threequarters;
unicode = 190;
},
{
glyphname = oneeighth;
layers = (
{
layerId = m01;
shapes = (
{
closed = 1;
nodes = (
(124,0,l),
(768,700,l),
(697,700,l),
(54,0,l)
);
},
{
closed = 1;
nodes = (
(296,347,l),
(306,402,l),
(223,402,l),
(276,700,l),
(242,700,l),
(115,657,l),
(106,607,l),
(202,628,l),
(162,402,l),
(67,402,l),
(57,347,l)
);
},
{
closed = 1;
nodes = (
(536,48,o),
(506,74,o),
(506,96,qs),
(506,128,o),
(552,160,o),
(579,160,qs),
(603,160,o),
(632,136,o),
(632,113,qs),
(632,82,o),
(587,48,o),
(561,48,qs)
);
},
{
closed = 1;
nodes = (
(616,-5,o),
(694,65,o),
(694,115,qs),
(694,169,o),
(646,189,q),
(712,220,o),
(712,276,qs),
(712,313,o),
(660,358,o),
(614,358,qs),
(557,358,o),
(480,300,o),
(480,252,qs),
(480,231,o),
(502,199,o),
(522,189,q),
(487,177,o),
(444,121,o),
(444,86,qs),
(444,44,o),
(501,-5,o),
(553,-5,qs)
);
},
{
closed = 1;
nodes = (
(568,208,o),
(542,230,o),
(542,250,qs),
(542,274,o),
(578,305,o),
(604,305,qs),
(625,305,o),
(649,283,o),
(649,264,qs),
(649,240,o),
(613,208,o),
(589,208,qs)
);
}
);
userData = {
assembly = "NPUSHB[ ]	/* 12 values pushed */
7 6 2 2 0 43 32 2 6 11 2 76
MPPEM[ ]	/* MeasurePixelPerEm */
PUSHB[ ]	/* 1 value pushed */
46
LT[ ]	/* LessThan */
IF[ ]	/* If */
NPUSHB[ ]	/* 46 values pushed */
4 1 2 0 5 10 2 5 104 0 8 0 10 11 8 10 105 14 1 11 0 6 7 11 6 105 3 1 0 0 33 77 12 1 7 7 1 97 13 9 2 1 1 34 1 78
ELSE[ ]	/* Else */
NPUSHB[ ]	/* 50 values pushed */
4 1 2 0 5 10 2 5 104 0 8 0 10 11 8 10 105 14 1 11 0 6 7 11 6 105 3 1 0 0 33 77 0 1 1 34 77 12 1 7 7 9 97 13 1 9 9 34 9 78
EIF[ ]	/* EndIf */
NPUSHB[ ]	/* 32 values pushed */
49 49 27 27 15 15 49 60 49 59 55 53 27 48 27 47 39 37 15 26 15 25 37 17 17 20 17 17 16 15 8 29
CALL[ ]	/* CallFunction */";
};
width = 762;
}
);
note = oneeighth;
unicode = 8539;
},
{
glyphname = threeeighths;
layers = (
{
layerId = m01;
shapes = (
{
closed = 1;
nodes = (
(124,0,l),
(768,700,l),
(697,700,l),
(54,0,l)
);
},
{
closed = 1;
nodes = (
(230,342,o),
(297,383,o),
(331,447,o),
(331,481,qs),
(331,516,o),
(289,562,o),
(248,566,q),
(351,647,l),
(361,700,l),
(131,700,l),
(121,645,l),
(272,645,l),
(147,549,l),
(175,507,l),
(197,517,o),
(214,517,qs),
(239,517,o),
(268,494,o),
(268,472,qs),
(268,441,o),
(228,397,o),
(193,397,qs),
(167,397,o),
(139,423,o),
(139,444,qs),
(139,452,o),
(140,457,q),
(77,457,l),
(75,441,o),
(75,434,qs),
(75,390,o),
(132,342,o),
(183,342,qs)
);
},
{
closed = 1;
nodes = (
(616,-5,o),
(694,65,o),
(694,115,qs),
(694,169,o),
(646,189,q),
(712,220,o),
(712,276,qs),
(712,313,o),
(660,358,o),
(614,358,qs),
(557,358,o),
(480,300,o),
(480,252,qs),
(480,231,o),
(502,199,o),
(522,189,q),
(487,177,o),
(444,121,o),
(444,86,qs),
(444,44,o),
(501,-5,o),
(553,-5,qs)
);
},
{
closed = 1;
nodes = (
(536,48,o),
(506,74,o),
(506,96,qs),
(506,128,o),
(552,160,o),
(579,160,qs),
(603,160,o),
(632,136,o),
(632,113,qs),
(632,82,o),
(587,48,o),
(561,48,qs)
);
},
{
closed = 1;
nodes = (
(568,208,o),
(542,230,o),
(542,250,qs),
(542,274,o),
(578,305,o),
(604,305,qs),
(625,305,o),
(649,283,o),
(649,264,qs),
(649,240,o),
(613,208,o),
(589,208,qs)
);
}
);
userData = {
assembly = "NPUSHB[ ]	/* 21 values pushed */
29 23 2 4 5 22 1 2 4 11 6 2 3 2 53 42 2 10 13 4 76
MPPEM[ ]	/* MeasurePixelPerEm */
PUSHB[ ]	/* 1 value pushed */
9
LT[ ]	/* LessThan */
IF[ ]	/* If */
NPUSHB[ ]	/* 64 values pushed */
0 4 5 2 5 4 114 0 2 3 3 2 112 0 3 14 1 7 12 3 7 106 0 8 0 12 13 8 12 105 17 1 13 0 10 11 13 10 105 0 5 5 0 95 6 1 0 0 33 77 16 1 11 11 1 97 15 9 2 1 1 34 1 78
ELSE[ ]	/* Else */
MPPEM[ ]	/* MeasurePixelPerEm */
PUSHB[ ]	/* 1 value pushed */
21
LT[ ]	/* LessThan */
IF[ ]	/* If */
NPUSHB[ ]	/* 65 values pushed */
0 4 5 2 5 4 2 128 0 2 3 3 2 112 0 3 14 1 7 12 3 7 106 0 8 0 12 13 8 12 105 17 1 13 0 10 11 13 10 105 0 5 5 0 95 6 1 0 0 33 77 16 1 11 11 1 97 15 9 2 1 1 34 1 78
ELSE[ ]	/* Else */
MPPEM[ ]	/* MeasurePixelPerEm */
PUSHB[ ]	/* 1 value pushed */
46
LT[ ]	/* LessThan */
IF[ ]	/* If */
NPUSHB[ ]	/* 66 values pushed */
0 4 5 2 5 4 2 128 0 2 3 5 2 3 126 0 3 14 1 7 12 3 7 106 0 8 0 12 13 8 12 105 17 1 13 0 10 11 13 10 105 0 5 5 0 95 6 1 0 0 33 77 16 1 11 11 1 97 15 9 2 1 1 34 1 78
ELSE[ ]	/* Else */
NPUSHB[ ]	/* 70 values pushed */
0 4 5 2 5 4 2 128 0 2 3 5 2 3 126 0 3 14 1 7 12 3 7 106 0 8 0 12 13 8 12 105 17 1 13 0 10 11 13 10 105 0 5 5 0 95 6 1 0 0 33 77 0 1 1 34 77 16 1 11 11 9 97 15 1 9 9 34 9 78
EIF[ ]	/* EndIf */
EIF[ ]	/* EndIf */
EIF[ ]	/* EndIf */
NPUSHB[ ]	/* 40 values pushed */
71 71 59 59 37 37 4 4 71 82 71 81 77 75 59 70 59 69 65 63 37 58 37 57 49 47 4 36 4 35 17 19 36 36 21 17 16 18 8 29
CALL[ ]	/* CallFunction */";
};
width = 762;
}
);
note = threeeighths;
unicode = 8540;
},
{
glyphname = fiveeighths;
layers = (
{
layerId = m01;
shapes = (
{
closed = 1;
nodes = (
(128,0,l),
(772,700,l),
(701,700,l),
(58,0,l)
);
},
{
closed = 1;
nodes = (
(231,342,o),
(299,384,o),
(339,453,o),
(339,494,qs),
(339,536,o),
(290,590,o),
(244,590,qs),
(221,590,o),
(180,575,o),
(166,562,q),
(197,644,l),
(344,644,l),
(354,700,l),
(159,700,l),
(93,499,l),
(155,499,l),
(165,516,o),
(202,538,o),
(224,538,qs),
(248,538,o),
(276,509,o),
(276,484,qs),
(276,450,o),
(232,397,o),
(198,397,qs),
(173,397,o),
(143,425,o),
(142,447,q),
(79,447,l),
(74,404,o),
(131,342,o),
(189,342,qs)
);
},
{
closed = 1;
nodes = (
(620,-5,o),
(698,65,o),
(698,115,qs),
(698,169,o),
(650,189,q),
(716,220,o),
(716,276,qs),
(716,313,o),
(664,358,o),
(618,358,qs),
(561,358,o),
(484,300,o),
(484,252,qs),
(484,231,o),
(506,199,o),
(526,189,q),
(491,177,o),
(448,121,o),
(448,86,qs),
(448,44,o),
(505,-5,o),
(557,-5,qs)
);
},
{
closed = 1;
nodes = (
(540,48,o),
(510,74,o),
(510,96,qs),
(510,128,o),
(556,160,o),
(583,160,qs),
(607,160,o),
(636,136,o),
(636,113,qs),
(636,82,o),
(591,48,o),
(565,48,qs)
);
},
{
closed = 1;
nodes = (
(572,208,o),
(546,230,o),
(546,250,qs),
(546,274,o),
(582,305,o),
(608,305,qs),
(629,305,o),
(653,283,o),
(653,264,qs),
(653,240,o),
(617,208,o),
(593,208,qs)
);
}
);
userData = {
assembly = "NPUSHB[ ]	/* 11 values pushed */
25 1 4 8 52 41 2 12 15 2 76
MPPEM[ ]	/* MeasurePixelPerEm */
PUSHB[ ]	/* 1 value pushed */
25
LT[ ]	/* LessThan */
IF[ ]	/* If */
NPUSHB[ ]	/* 73 values pushed */
0 5 4 2 4 5 2 128 0 2 3 3 2 112 0 8 0 4 5 8 4 105 0 3 16 1 9 14 3 9 106 0 10 0 14 15 10 14 105 19 1 15 0 12 13 15 12 105 0 7 7 0 95 6 1 0 0 33 77 18 1 13 13 1 97 17 11 2 1 1 34 1 78
ELSE[ ]	/* Else */
MPPEM[ ]	/* MeasurePixelPerEm */
PUSHB[ ]	/* 1 value pushed */
46
LT[ ]	/* LessThan */
IF[ ]	/* If */
NPUSHB[ ]	/* 74 values pushed */
0 5 4 2 4 5 2 128 0 2 3 4 2 3 126 0 8 0 4 5 8 4 105 0 3 16 1 9 14 3 9 106 0 10 0 14 15 10 14 105 19 1 15 0 12 13 15 12 105 0 7 7 0 95 6 1 0 0 33 77 18 1 13 13 1 97 17 11 2 1 1 34 1 78
ELSE[ ]	/* Else */
NPUSHB[ ]	/* 78 values pushed */
0 5 4 2 4 5 2 128 0 2 3 4 2 3 126 0 8 0 4 5 8 4 105 0 3 16 1 9 14 3 9 106 0 10 0 14 15 10 14 105 19 1 15 0 12 13 15 12 105 0 7 7 0 95 6 1 0 0 33 77 0 1 1 34 77 18 1 13 13 11 97 17 1 11 11 34 11 78
EIF[ ]	/* EndIf */
EIF[ ]	/* EndIf */
NPUSHB[ ]	/* 42 values pushed */
70 70 58 58 36 36 4 4 70 81 70 80 76 74 58 69 58 68 64 62 36 57 36 56 48 46 4 35 4 34 35 17 17 18 36 34 19 17 16 20 8 31
CALL[ ]	/* CallFunction */";
};
width = 766;
}
);
note = fiveeighths;
unicode = 8541;
},
{
glyphname = seveneighths;
layers = (
{
layerId = m01;
shapes = (
{
closed = 1;
nodes = (
(94,0,l),
(738,700,l),
(667,700,l),
(24,0,l)
);
},
{
closed = 1;
nodes = (
(193,347,l),
(389,654,l),
(397,700,l),
(139,700,l),
(129,645,l),
(319,645,l),
(126,347,l)
);
},
{
closed = 1;
nodes = (
(596,-5,o),
(674,65,o),
(674,115,qs),
(674,169,o),
(626,189,q),
(692,220,o),
(692,276,qs),
(692,313,o),
(640,358,o),
(594,358,qs),
(537,358,o),
(460,300,o),
(460,252,qs),
(460,231,o),
(482,199,o),
(502,189,q),
(467,177,o),
(424,121,o),
(424,86,qs),
(424,44,o),
(481,-5,o),
(533,-5,qs)
);
},
{
closed = 1;
nodes = (
(516,48,o),
(486,74,o),
(486,96,qs),
(486,128,o),
(532,160,o),
(559,160,qs),
(583,160,o),
(612,136,o),
(612,113,qs),
(612,82,o),
(567,48,o),
(541,48,qs)
);
},
{
closed = 1;
nodes = (
(548,208,o),
(522,230,o),
(522,250,qs),
(522,274,o),
(558,305,o),
(584,305,qs),
(605,305,o),
(629,283,o),
(629,264,qs),
(629,240,o),
(593,208,o),
(569,208,qs)
);
}
);
userData = {
assembly = "PUSHB[ ]	/* 7 values pushed */
27 16 2 7 10 1 76
MPPEM[ ]	/* MeasurePixelPerEm */
PUSHB[ ]	/* 1 value pushed */
46
LT[ ]	/* LessThan */
IF[ ]	/* If */
NPUSHB[ ]	/* 50 values pushed */
0 4 5 9 5 4 9 128 0 5 0 9 10 5 9 105 13 1 10 0 7 8 10 7 105 0 2 2 0 95 3 1 0 0 33 77 12 1 8 8 1 97 11 6 2 1 1 34 1 78
ELSE[ ]	/* Else */
NPUSHB[ ]	/* 54 values pushed */
0 4 5 9 5 4 9 128 0 5 0 9 10 5 9 105 13 1 10 0 7 8 10 7 105 0 2 2 0 95 3 1 0 0 33 77 0 1 1 34 77 12 1 8 8 6 97 11 1 6 6 34 6 78
EIF[ ]	/* EndIf */
NPUSHB[ ]	/* 31 values pushed */
45 45 33 33 11 11 45 56 45 55 51 49 33 44 33 43 39 37 11 32 11 31 43 18 17 17 17 16 14 8 28
CALL[ ]	/* CallFunction */";
};
width = 742;
}
);
note = seveneighths;
unicode = 8542;
},
{
glyphname = uni2080;
layers = (
{
layerId = m01;
shapes = (
{
closed = 1;
nodes = (
(180,-5,o),
(256,76,o),
(288,188,o),
(288,238,qs),
(288,295,o),
(237,358,o),
(182,358,qs),
(121,358,o),
(44,278,o),
(12,167,o),
(12,117,qs),
(12,60,o),
(63,-5,o),
(118,-5,qs)
);
},
{
closed = 1;
nodes = (
(78,52,o),
(78,125,qs),
(78,156,o),
(96,238,o),
(138,301,o),
(172,301,qs),
(197,301,o),
(222,264,o),
(222,229,qs),
(222,197,o),
(204,115,o),
(162,52,o),
(128,52,qs)
);
}
);
userData = {
assembly = "NPUSHB[ ]	/* 41 values pushed */
0 2 2 0 97 0 0 0 51 77 5 1 3 3 1 97 4 1 1 1 52 1 78 14 14 0 0 14 26 14 25 21 19 0 13 0 12 37 6 9 23
CALL[ ]	/* CallFunction */";
};
width = 325;
}
);
note = uni2080;
unicode = 8320;
},
{
glyphname = uni2081;
layers = (
{
layerId = m01;
shapes = (
{
closed = 1;
nodes = (
(237,0,l),
(247,55,l),
(164,55,l),
(217,353,l),
(183,353,l),
(56,309,l),
(47,260,l),
(143,281,l),
(103,55,l),
(8,55,l),
(-2,0,l)
);
}
);
userData = {
assembly = "NPUSHB[ ]	/* 31 values pushed */
3 2 2 0 1 1 76 0 1 1 49 77 2 1 0 0 3 96 0 3 3 50 3 78 17 17 20 16 4 9 26
CALL[ ]	/* CallFunction */";
};
width = 316;
}
);
note = uni2081;
unicode = 8321;
},
{
glyphname = uni2082;
layers = (
{
layerId = m01;
shapes = (
{
closed = 1;
nodes = (
(232,0,l),
(242,55,l),
(85,55,l),
(165,123,ls),
(207,159,o),
(241,192,o),
(271,241,o),
(271,270,qs),
(271,308,o),
(221,358,o),
(173,358,qs),
(120,358,o),
(45,297,o),
(33,242,q),
(96,242,l),
(101,268,o),
(136,304,o),
(162,304,qs),
(184,304,o),
(207,280,o),
(207,262,qs),
(207,237,o),
(163,189,o),
(112,145,qs),
(-2,47,l),
(-10,0,l)
);
}
);
userData = {
assembly = "NPUSHB[ ]	/* 37 values pushed */
0 1 0 3 0 1 3 128 0 0 0 2 97 0 2 2 51 77 0 3 3 4 95 0 4 4 50 4 78 17 23 34 18 38 5 9 27
CALL[ ]	/* CallFunction */";
};
width = 311;
}
);
note = uni2082;
unicode = 8322;
},
{
glyphname = uni2083;
layers = (
{
layerId = m01;
shapes = (
{
closed = 1;
nodes = (
(163,-5,o),
(230,36,o),
(264,100,o),
(264,134,qs),
(264,169,o),
(222,215,o),
(181,219,q),
(284,300,l),
(294,353,l),
(64,353,l),
(54,298,l),
(205,298,l),
(80,202,l),
(108,160,l),
(130,170,o),
(147,170,qs),
(172,170,o),
(201,147,o),
(201,125,qs),
(201,94,o),
(161,50,o),
(126,50,qs),
(100,50,o),
(72,76,o),
(72,97,qs),
(72,105,o),
(73,110,q),
(10,110,l),
(8,94,o),
(8,87,qs),
(8,43,o),
(65,-5,o),
(116,-5,qs)
);
}
);
userData = {
assembly = "NPUSHB[ ]	/* 16 values pushed */
25 19 2 2 3 18 1 0 2 7 2 2 1 0 3 76
MPPEM[ ]	/* MeasurePixelPerEm */
PUSHB[ ]	/* 1 value pushed */
10
LT[ ]	/* LessThan */
IF[ ]	/* If */
NPUSHB[ ]	/* 35 values pushed */
0 2 3 0 3 2 114 0 0 1 1 0 112 0 3 3 4 95 0 4 4 49 77 0 1 1 5 98 6 1 5 5 52 5 78
ELSE[ ]	/* Else */
MPPEM[ ]	/* MeasurePixelPerEm */
PUSHB[ ]	/* 1 value pushed */
21
LT[ ]	/* LessThan */
IF[ ]	/* If */
NPUSHB[ ]	/* 36 values pushed */
0 2 3 0 3 2 0 128 0 0 1 1 0 112 0 3 3 4 95 0 4 4 49 77 0 1 1 5 98 6 1 5 5 52 5 78
ELSE[ ]	/* Else */
NPUSHB[ ]	/* 37 values pushed */
0 2 3 0 3 2 0 128 0 0 1 3 0 1 126 0 3 3 4 95 0 4 4 49 77 0 1 1 5 98 6 1 5 5 52 5 78
EIF[ ]	/* EndIf */
EIF[ ]	/* EndIf */
NPUSHB[ ]	/* 14 values pushed */
0 0 0 32 0 31 17 19 36 36 20 7 9 27
CALL[ ]	/* CallFunction */";
};
width = 320;
}
);
note = uni2083;
unicode = 8323;
},
{
glyphname = uni2084;
layers = (
{
layerId = m01;
shapes = (
{
closed = 1;
nodes = (
(203,0,l),
(215,66,l),
(256,66,l),
(266,122,l),
(225,122,l),
(241,213,l),
(181,213,l),
(165,122,l),
(68,122,l),
(223,353,l),
(159,353,l),
(-2,117,l),
(-11,66,l),
(151,66,l),
(139,0,l)
);
}
);
userData = {
assembly = "MPPEM[ ]	/* MeasurePixelPerEm */
PUSHB[ ]	/* 1 value pushed */
14
LT[ ]	/* LessThan */
IF[ ]	/* If */
NPUSHB[ ]	/* 28 values pushed */
0 3 1 2 2 3 114 4 1 2 5 1 0 6 2 0 104 0 1 1 49 77 0 6 6 50 6 78
ELSE[ ]	/* Else */
NPUSHB[ ]	/* 29 values pushed */
0 3 1 2 1 3 2 128 4 1 2 5 1 0 6 2 0 104 0 1 1 49 77 0 6 6 50 6 78
EIF[ ]	/* EndIf */
NPUSHB[ ]	/* 10 values pushed */
17 17 17 17 17 18 16 7 9 29
CALL[ ]	/* CallFunction */";
};
width = 304;
}
);
note = uni2084;
unicode = 8324;
},
{
glyphname = uni2085;
layers = (
{
layerId = m01;
shapes = (
{
closed = 1;
nodes = (
(152,-5,o),
(222,36,o),
(262,106,o),
(262,147,qs),
(262,189,o),
(213,243,o),
(167,243,qs),
(144,243,o),
(103,228,o),
(89,215,q),
(120,297,l),
(267,297,l),
(277,353,l),
(82,353,l),
(16,152,l),
(78,152,l),
(88,169,o),
(125,191,o),
(147,191,qs),
(171,191,o),
(199,162,o),
(199,137,qs),
(199,103,o),
(155,50,o),
(121,50,qs),
(96,50,o),
(66,78,o),
(65,100,q),
(2,100,l),
(-4,57,o),
(53,-5,o),
(111,-5,qs)
);
}
);
userData = {
assembly = "PUSHB[ ]	/* 6 values pushed */
21 1 2 6 1 76
MPPEM[ ]	/* MeasurePixelPerEm */
PUSHB[ ]	/* 1 value pushed */
25
LT[ ]	/* LessThan */
IF[ ]	/* If */
NPUSHB[ ]	/* 44 values pushed */
0 3 2 0 2 3 0 128 0 0 1 1 0 112 0 6 0 2 3 6 2 105 0 5 5 4 95 0 4 4 49 77 0 1 1 7 98 8 1 7 7 52 7 78
ELSE[ ]	/* Else */
NPUSHB[ ]	/* 45 values pushed */
0 3 2 0 2 3 0 128 0 0 1 2 0 1 126 0 6 0 2 3 6 2 105 0 5 5 4 95 0 4 4 49 77 0 1 1 7 98 8 1 7 7 52 7 78
EIF[ ]	/* EndIf */
NPUSHB[ ]	/* 16 values pushed */
0 0 0 31 0 30 35 17 17 18 36 34 18 9 9 29
CALL[ ]	/* CallFunction */";
};
width = 312;
}
);
note = uni2085;
unicode = 8325;
},
{
glyphname = uni2086;
layers = (
{
layerId = m01;
shapes = (
{
closed = 1;
nodes = (
(159,-5,o),
(224,36,o),
(261,102,o),
(261,136,qs),
(261,175,o),
(214,228,o),
(173,228,qs),
(147,228,o),
(97,201,o),
(82,180,q),
(94,242,o),
(141,305,o),
(173,305,qs),
(217,305,o),
(219,257,q),
(278,257,l),
(280,302,o),
(229,358,o),
(183,358,qs),
(129,358,o),
(51,283,o),
(12,171,o),
(12,117,qs),
(12,61,o),
(65,-5,o),
(121,-5,qs)
);
},
{
closed = 1;
nodes = (
(105,50,o),
(77,78,o),
(77,100,qs),
(77,129,o),
(120,173,o),
(148,173,qs),
(171,173,o),
(198,147,o),
(198,125,qs),
(198,95,o),
(158,50,o),
(127,50,qs)
);
}
);
userData = {
assembly = "PUSHB[ ]	/* 6 values pushed */
15 1 5 3 1 76
MPPEM[ ]	/* MeasurePixelPerEm */
PUSHB[ ]	/* 1 value pushed */
26
LT[ ]	/* LessThan */
IF[ ]	/* If */
NPUSHB[ ]	/* 38 values pushed */
0 1 2 3 2 1 114 0 3 0 5 6 3 5 105 0 2 2 0 97 0 0 0 51 77 8 1 6 6 4 97 7 1 4 4 52 4 78
ELSE[ ]	/* Else */
NPUSHB[ ]	/* 39 values pushed */
0 1 2 3 2 1 3 128 0 3 0 5 6 3 5 105 0 2 2 0 97 0 0 0 51 77 8 1 6 6 4 97 7 1 4 4 52 4 78
EIF[ ]	/* EndIf */
NPUSHB[ ]	/* 21 values pushed */
26 26 0 0 26 37 26 36 32 30 0 25 0 24 36 33 18 37 9 9 26
CALL[ ]	/* CallFunction */";
};
width = 313;
}
);
note = uni2086;
unicode = 8326;
},
{
glyphname = uni2087;
layers = (
{
layerId = m01;
shapes = (
{
closed = 1;
nodes = (
(103,0,l),
(298,307,l),
(307,353,l),
(49,353,l),
(39,298,l),
(229,298,l),
(36,0,l)
);
}
);
userData = {
assembly = "NPUSHB[ ]	/* 22 values pushed */
0 0 0 1 95 0 1 1 49 77 0 2 2 50 2 78 18 17 16 3 9 25
CALL[ ]	/* CallFunction */";
};
width = 318;
}
);
note = uni2087;
unicode = 8327;
},
{
glyphname = uni2088;
layers = (
{
layerId = m01;
shapes = (
{
closed = 1;
nodes = (
(175,-5,o),
(253,65,o),
(253,115,qs),
(253,169,o),
(205,189,q),
(271,220,o),
(271,276,qs),
(271,313,o),
(219,358,o),
(173,358,qs),
(116,358,o),
(39,300,o),
(39,252,qs),
(39,231,o),
(61,199,o),
(81,189,q),
(46,177,o),
(3,121,o),
(3,86,qs),
(3,44,o),
(60,-5,o),
(112,-5,qs)
);
},
{
closed = 1;
nodes = (
(95,48,o),
(65,74,o),
(65,96,qs),
(65,128,o),
(111,160,o),
(138,160,qs),
(162,160,o),
(191,136,o),
(191,113,qs),
(191,82,o),
(146,48,o),
(120,48,qs)
);
},
{
closed = 1;
nodes = (
(127,208,o),
(101,230,o),
(101,250,qs),
(101,274,o),
(137,305,o),
(163,305,qs),
(184,305,o),
(208,283,o),
(208,264,qs),
(208,240,o),
(172,208,o),
(148,208,qs)
);
}
);
userData = {
assembly = "NPUSHB[ ]	/* 65 values pushed */
16 5 2 2 5 1 76 8 1 5 0 2 3 5 2 105 0 4 4 0 97 0 0 0 51 77 7 1 3 3 1 97 6 1 1 1 52 1 78 34 34 22 22 0 0 34 45 34 44 40 38 22 33 22 32 28 26 0 21 0 20 42 9 9 23
CALL[ ]	/* CallFunction */";
};
width = 308;
}
);
note = uni2088;
unicode = 8328;
},
{
glyphname = uni2089;
layers = (
{
layerId = m01;
shapes = (
{
closed = 1;
nodes = (
(158,-5,o),
(236,72,o),
(276,185,o),
(276,237,qs),
(276,292,o),
(222,358,o),
(166,358,qs),
(128,358,o),
(64,317,o),
(26,252,o),
(26,218,qs),
(26,179,o),
(73,125,o),
(114,125,qs),
(141,125,o),
(191,152,o),
(206,173,q),
(194,111,o),
(147,48,o),
(115,48,qs),
(71,48,o),
(69,96,q),
(10,96,l),
(8,51,o),
(58,-5,o),
(104,-5,qs)
);
},
{
closed = 1;
nodes = (
(117,180,o),
(90,206,o),
(90,228,qs),
(90,258,o),
(130,303,o),
(161,303,qs),
(184,303,o),
(211,276,o),
(211,253,qs),
(211,224,o),
(168,180,o),
(140,180,qs)
);
}
);
userData = {
assembly = "PUSHB[ ]	/* 6 values pushed */
8 1 2 6 1 76
MPPEM[ ]	/* MeasurePixelPerEm */
PUSHB[ ]	/* 1 value pushed */
26
LT[ ]	/* LessThan */
IF[ ]	/* If */
NPUSHB[ ]	/* 38 values pushed */
0 0 2 1 1 0 114 8 1 6 0 2 0 6 2 105 0 5 5 3 97 0 3 3 51 77 0 1 1 4 98 7 1 4 4 52 4 78
ELSE[ ]	/* Else */
NPUSHB[ ]	/* 39 values pushed */
0 0 2 1 2 0 1 128 8 1 6 0 2 0 6 2 105 0 5 5 3 97 0 3 3 51 77 0 1 1 4 98 7 1 4 4 52 4 78
EIF[ ]	/* EndIf */
NPUSHB[ ]	/* 21 values pushed */
26 26 0 0 26 37 26 36 32 30 0 25 0 24 37 36 33 18 9 9 26
CALL[ ]	/* CallFunction */";
};
width = 312;
}
);
note = uni2089;
unicode = 8329;
},
{
glyphname = uni2070;
layers = (
{
layerId = m01;
shapes = (
{
closed = 1;
nodes = (
(241,342,o),
(317,423,o),
(349,535,o),
(349,585,qs),
(349,642,o),
(298,705,o),
(243,705,qs),
(182,705,o),
(105,625,o),
(73,514,o),
(73,464,qs),
(73,407,o),
(124,342,o),
(179,342,qs)
);
},
{
closed = 1;
nodes = (
(139,399,o),
(139,472,qs),
(139,503,o),
(157,586,o),
(199,648,o),
(233,648,qs),
(283,648,o),
(283,575,qs),
(283,543,o),
(265,461,o),
(222,399,o),
(189,399,qs)
);
}
);
userData = {
assembly = "NPUSHB[ ]	/* 41 values pushed */
0 2 2 0 97 0 0 0 59 77 5 1 3 3 1 97 4 1 1 1 60 1 78 14 14 0 0 14 25 14 24 20 18 0 13 0 12 37 6 10 23
CALL[ ]	/* CallFunction */";
};
width = 325;
}
);
note = uni2070;
unicode = 8304;
},
{
glyphname = uni00B9;
layers = (
{
layerId = m01;
shapes = (
{
closed = 1;
nodes = (
(298,347,l),
(308,402,l),
(225,402,l),
(278,700,l),
(244,700,l),
(117,656,l),
(108,607,l),
(204,628,l),
(164,402,l),
(69,402,l),
(59,347,l)
);
}
);
userData = {
assembly = "NPUSHB[ ]	/* 31 values pushed */
3 2 2 0 1 1 76 0 1 1 57 77 2 1 0 0 3 96 0 3 3 58 3 78 17 17 20 16 4 10 26
CALL[ ]	/* CallFunction */";
};
width = 316;
}
);
note = uni00B9;
unicode = 185;
},
{
glyphname = uni00B2;
layers = (
{
layerId = m01;
shapes = (
{
closed = 1;
nodes = (
(293,347,l),
(303,402,l),
(146,402,l),
(226,470,ls),
(268,506,o),
(302,539,o),
(332,588,o),
(332,617,qs),
(332,655,o),
(282,705,o),
(234,705,qs),
(181,705,o),
(106,644,o),
(94,589,q),
(157,589,l),
(162,615,o),
(197,651,o),
(223,651,qs),
(245,651,o),
(268,627,o),
(268,609,qs),
(268,584,o),
(224,536,o),
(173,492,qs),
(59,394,l),
(51,347,l)
);
}
);
userData = {
assembly = "NPUSHB[ ]	/* 37 values pushed */
0 1 0 3 0 1 3 128 0 0 0 2 97 0 2 2 59 77 0 3 3 4 95 0 4 4 58 4 78 17 23 34 18 38 5 10 27
CALL[ ]	/* CallFunction */";
};
width = 311;
}
);
note = uni00B2;
unicode = 178;
},
{
glyphname = uni00B3;
layers = (
{
layerId = m01;
shapes = (
{
closed = 1;
nodes = (
(224,342,o),
(291,383,o),
(325,447,o),
(325,481,qs),
(325,516,o),
(283,562,o),
(242,566,q),
(345,647,l),
(355,700,l),
(125,700,l),
(115,645,l),
(266,645,l),
(141,549,l),
(169,507,l),
(191,517,o),
(208,517,qs),
(233,517,o),
(262,494,o),
(262,472,qs),
(262,441,o),
(222,397,o),
(187,397,qs),
(161,397,o),
(133,423,o),
(133,444,qs),
(133,452,o),
(134,457,q),
(71,457,l),
(69,441,o),
(69,434,qs),
(69,390,o),
(126,342,o),
(177,342,qs)
);
}
);
userData = {
assembly = "NPUSHB[ ]	/* 16 values pushed */
25 19 2 2 3 18 1 0 2 7 2 2 1 0 3 76
MPPEM[ ]	/* MeasurePixelPerEm */
PUSHB[ ]	/* 1 value pushed */
10
LT[ ]	/* LessThan */
IF[ ]	/* If */
NPUSHB[ ]	/* 35 values pushed */
0 2 3 0 3 2 114 0 0 1 1 0 112 0 3 3 4 95 0 4 4 57 77 0 1 1 5 98 6 1 5 5 60 5 78
ELSE[ ]	/* Else */
MPPEM[ ]	/* MeasurePixelPerEm */
PUSHB[ ]	/* 1 value pushed */
21
LT[ ]	/* LessThan */
IF[ ]	/* If */
NPUSHB[ ]	/* 36 values pushed */
0 2 3 0 3 2 0 128 0 0 1 1 0 112 0 3 3 4 95 0 4 4 57 77 0 1 1 5 98 6 1 5 5 60 5 78
ELSE[ ]	/* Else */
NPUSHB[ ]	/* 37 values pushed */
0 2 3 0 3 2 0 128 0 0 1 3 0 1 126 0 3 3 4 95 0 4 4 57 77 0 1 1 5 98 6 1 5 5 60 5 78
EIF[ ]	/* EndIf */
EIF[ ]	/* EndIf */
NPUSHB[ ]	/* 14 values pushed */
0 0 0 32 0 31 17 19 36 36 20 7 10 27
CALL[ ]	/* CallFunction */";
};
width = 320;
}
);
note = uni00B3;
unicode = 179;
},
{
glyphname = uni2074;
layers = (
{
layerId = m01;
shapes = (
{
closed = 1;
nodes = (
(264,347,l),
(276,413,l),
(317,413,l),
(327,469,l),
(286,469,l),
(302,560,l),
(242,560,l),
(226,469,l),
(129,469,l),
(284,700,l),
(220,700,l),
(59,464,l),
(50,413,l),
(212,413,l),
(200,347,l)
);
}
);
userData = {
assembly = "MPPEM[ ]	/* MeasurePixelPerEm */
PUSHB[ ]	/* 1 value pushed */
14
LT[ ]	/* LessThan */
IF[ ]	/* If */
NPUSHB[ ]	/* 28 values pushed */
0 3 1 2 2 3 114 4 1 2 5 1 0 6 2 0 104 0 1 1 57 77 0 6 6 58 6 78
ELSE[ ]	/* Else */
NPUSHB[ ]	/* 29 values pushed */
0 3 1 2 1 3 2 128 4 1 2 5 1 0 6 2 0 104 0 1 1 57 77 0 6 6 58 6 78
EIF[ ]	/* EndIf */
NPUSHB[ ]	/* 10 values pushed */
17 17 17 17 17 18 16 7 10 29
CALL[ ]	/* CallFunction */";
};
width = 304;
}
);
note = uni2074;
unicode = 8308;
},
{
glyphname = uni2075;
layers = (
{
layerId = m01;
shapes = (
{
closed = 1;
nodes = (
(215,342,o),
(283,384,o),
(323,453,o),
(323,494,qs),
(323,536,o),
(274,590,o),
(228,590,qs),
(205,590,o),
(164,575,o),
(150,562,q),
(181,644,l),
(328,644,l),
(338,700,l),
(143,700,l),
(77,499,l),
(139,499,l),
(149,516,o),
(186,538,o),
(208,538,qs),
(232,538,o),
(260,509,o),
(260,484,qs),
(260,450,o),
(216,397,o),
(182,397,qs),
(157,397,o),
(127,425,o),
(126,447,q),
(63,447,l),
(58,404,o),
(115,342,o),
(173,342,qs)
);
}
);
userData = {
assembly = "PUSHB[ ]	/* 6 values pushed */
21 1 2 6 1 76
MPPEM[ ]	/* MeasurePixelPerEm */
PUSHB[ ]	/* 1 value pushed */
25
LT[ ]	/* LessThan */
IF[ ]	/* If */
NPUSHB[ ]	/* 44 values pushed */
0 3 2 0 2 3 0 128 0 0 1 1 0 112 0 6 0 2 3 6 2 105 0 5 5 4 95 0 4 4 57 77 0 1 1 7 98 8 1 7 7 60 7 78
ELSE[ ]	/* Else */
NPUSHB[ ]	/* 45 values pushed */
0 3 2 0 2 3 0 128 0 0 1 2 0 1 126 0 6 0 2 3 6 2 105 0 5 5 4 95 0 4 4 57 77 0 1 1 7 98 8 1 7 7 60 7 78
EIF[ ]	/* EndIf */
NPUSHB[ ]	/* 16 values pushed */
0 0 0 31 0 30 35 17 17 18 36 34 18 9 10 29
CALL[ ]	/* CallFunction */";
};
width = 312;
}
);
note = uni2075;
unicode = 8309;
},
{
glyphname = uni2076;
layers = (
{
layerId = m01;
shapes = (
{
closed = 1;
nodes = (
(220,342,o),
(284,383,o),
(322,448,o),
(322,482,qs),
(322,521,o),
(275,575,o),
(234,575,qs),
(207,575,o),
(157,548,o),
(142,527,q),
(154,589,o),
(201,652,o),
(233,652,qs),
(277,652,o),
(279,604,q),
(338,604,l),
(340,649,o),
(290,705,o),
(244,705,qs),
(190,705,o),
(112,628,o),
(72,515,o),
(72,463,qs),
(72,408,o),
(126,342,o),
(182,342,qs)
);
},
{
closed = 1;
nodes = (
(165,397,o),
(137,425,o),
(137,447,qs),
(137,476,o),
(180,520,o),
(208,520,qs),
(231,520,o),
(258,494,o),
(258,472,qs),
(258,442,o),
(218,397,o),
(187,397,qs)
);
}
);
userData = {
assembly = "PUSHB[ ]	/* 6 values pushed */
15 1 5 3 1 76
MPPEM[ ]	/* MeasurePixelPerEm */
PUSHB[ ]	/* 1 value pushed */
26
LT[ ]	/* LessThan */
IF[ ]	/* If */
NPUSHB[ ]	/* 38 values pushed */
0 1 2 3 2 1 114 0 3 0 5 6 3 5 105 0 2 2 0 97 0 0 0 59 77 8 1 6 6 4 97 7 1 4 4 60 4 78
ELSE[ ]	/* Else */
NPUSHB[ ]	/* 39 values pushed */
0 1 2 3 2 1 3 128 0 3 0 5 6 3 5 105 0 2 2 0 97 0 0 0 59 77 8 1 6 6 4 97 7 1 4 4 60 4 78
EIF[ ]	/* EndIf */
NPUSHB[ ]	/* 21 values pushed */
26 26 0 0 26 37 26 36 32 30 0 25 0 24 36 33 18 37 9 10 26
CALL[ ]	/* CallFunction */";
};
width = 313;
}
);
note = uni2076;
unicode = 8310;
},
{
glyphname = uni2077;
layers = (
{
layerId = m01;
shapes = (
{
closed = 1;
nodes = (
(164,347,l),
(360,654,l),
(368,700,l),
(110,700,l),
(100,645,l),
(290,645,l),
(97,347,l)
);
}
);
userData = {
assembly = "NPUSHB[ ]	/* 22 values pushed */
0 0 0 1 95 0 1 1 57 77 0 2 2 58 2 78 18 17 16 3 10 25
CALL[ ]	/* CallFunction */";
};
width = 318;
}
);
note = uni2077;
unicode = 8311;
},
{
glyphname = uni2078;
layers = (
{
layerId = m01;
shapes = (
{
closed = 1;
nodes = (
(236,342,o),
(314,412,o),
(314,462,qs),
(314,516,o),
(266,536,q),
(332,567,o),
(332,623,qs),
(332,660,o),
(280,705,o),
(234,705,qs),
(177,705,o),
(100,647,o),
(100,599,qs),
(100,578,o),
(122,546,o),
(142,536,q),
(107,524,o),
(64,468,o),
(64,433,qs),
(64,391,o),
(121,342,o),
(173,342,qs)
);
},
{
closed = 1;
nodes = (
(156,395,o),
(126,421,o),
(126,443,qs),
(126,475,o),
(172,507,o),
(199,507,qs),
(223,507,o),
(252,483,o),
(252,460,qs),
(252,429,o),
(207,395,o),
(181,395,qs)
);
},
{
closed = 1;
nodes = (
(188,555,o),
(162,577,o),
(162,597,qs),
(162,621,o),
(198,652,o),
(224,652,qs),
(245,652,o),
(269,630,o),
(269,611,qs),
(269,587,o),
(233,555,o),
(209,555,qs)
);
}
);
userData = {
assembly = "NPUSHB[ ]	/* 65 values pushed */
16 5 2 2 5 1 76 8 1 5 0 2 3 5 2 105 0 4 4 0 97 0 0 0 59 77 7 1 3 3 1 97 6 1 1 1 60 1 78 34 34 22 22 0 0 34 45 34 44 40 38 22 33 22 32 28 26 0 21 0 20 42 9 10 23
CALL[ ]	/* CallFunction */";
};
width = 308;
}
);
note = uni2078;
unicode = 8312;
},
{
glyphname = uni2079;
layers = (
{
layerId = m01;
shapes = (
{
closed = 1;
nodes = (
(220,342,o),
(298,417,o),
(337,529,o),
(337,583,qs),
(337,639,o),
(284,705,o),
(228,705,qs),
(190,705,o),
(125,664,o),
(88,598,o),
(88,563,qs),
(88,524,o),
(135,472,o),
(175,472,qs),
(202,472,o),
(252,499,o),
(267,520,q),
(255,458,o),
(208,395,o),
(176,395,qs),
(132,395,o),
(130,443,q),
(71,443,l),
(69,398,o),
(120,342,o),
(166,342,qs)
);
},
{
closed = 1;
nodes = (
(178,527,o),
(151,553,o),
(151,575,qs),
(151,605,o),
(191,650,o),
(222,650,qs),
(245,650,o),
(272,623,o),
(272,600,qs),
(272,571,o),
(229,527,o),
(201,527,qs)
);
}
);
userData = {
assembly = "PUSHB[ ]	/* 6 values pushed */
8 1 2 6 1 76
MPPEM[ ]	/* MeasurePixelPerEm */
PUSHB[ ]	/* 1 value pushed */
26
LT[ ]	/* LessThan */
IF[ ]	/* If */
NPUSHB[ ]	/* 38 values pushed */
0 0 2 1 1 0 114 8 1 6 0 2 0 6 2 105 0 5 5 3 97 0 3 3 59 77 0 1 1 4 98 7 1 4 4 60 4 78
ELSE[ ]	/* Else */
NPUSHB[ ]	/* 39 values pushed */
0 0 2 1 2 0 1 128 8 1 6 0 2 0 6 2 105 0 5 5 3 97 0 3 3 59 77 0 1 1 4 98 7 1 4 4 60 4 78
EIF[ ]	/* EndIf */
NPUSHB[ ]	/* 21 values pushed */
26 26 0 0 26 37 26 36 32 30 0 25 0 24 37 36 33 18 9 10 26
CALL[ ]	/* CallFunction */";
};
width = 313;
}
);
note = uni2079;
unicode = 8313;
},
{
glyphname = period;
kernLeft = period;
kernRight = period;
layers = (
{
layerId = m01;
shapes = (
{
closed = 1;
nodes = (
(89,-5,o),
(121,28,o),
(121,52,qs),
(121,76,o),
(89,109,o),
(64,109,qs),
(39,109,o),
(6,76,o),
(6,52,qs),
(6,28,o),
(39,-5,o),
(64,-5,qs)
);
}
);
userData = {
assembly = "NPUSHB[ ]	/* 22 values pushed */
0 0 0 1 97 2 1 1 1 34 1 78 0 0 0 11 0 10 36 3 8 23
CALL[ ]	/* CallFunction */";
};
width = 196;
}
);
note = period;
unicode = 46;
},
{
glyphname = comma;
kernLeft = comma;
kernRight = comma;
layers = (
{
layerId = m01;
shapes = (
{
closed = 1;
nodes = (
(-6,-119,l),
(120,102,l),
(33,102,l),
(-64,-119,l)
);
}
);
userData = {
assembly = "NPUSHB[ ]	/* 14 values pushed */
0 0 1 0 133 0 1 1 118 17 16 2 8 24
CALL[ ]	/* CallFunction */";
};
width = 178;
}
);
note = comma;
unicode = 44;
},
{
glyphname = colon;
kernLeft = colon;
kernRight = colon;
layers = (
{
layerId = m01;
shapes = (
{
closed = 1;
nodes = (
(159,394,o),
(191,427,o),
(191,451,qs),
(191,475,o),
(159,508,o),
(134,508,qs),
(109,508,o),
(76,475,o),
(76,451,qs),
(76,427,o),
(109,394,o),
(134,394,qs)
);
},
{
closed = 1;
nodes = (
(89,-5,o),
(121,28,o),
(121,52,qs),
(121,76,o),
(89,109,o),
(64,109,qs),
(39,109,o),
(6,76,o),
(6,52,qs),
(6,28,o),
(39,-5,o),
(64,-5,qs)
);
}
);
userData = {
assembly = "NPUSHB[ ]	/* 41 values pushed */
4 1 1 1 0 97 0 0 0 42 77 0 2 2 3 97 5 1 3 3 34 3 78 12 12 0 0 12 23 12 22 18 16 0 11 0 10 36 6 8 23
CALL[ ]	/* CallFunction */";
};
width = 199;
}
);
note = colon;
unicode = 58;
},
{
glyphname = semicolon;
kernLeft = semicolon;
kernRight = semicolon;
layers = (
{
layerId = m01;
shapes = (
{
closed = 1;
nodes = (
(12,-119,l),
(138,102,l),
(51,102,l),
(-46,-119,l)
);
},
{
closed = 1;
nodes = (
(185,393,o),
(217,426,o),
(217,450,qs),
(217,474,o),
(185,507,o),
(160,507,qs),
(135,507,o),
(102,474,o),
(102,450,qs),
(102,426,o),
(135,393,o),
(160,393,qs)
);
}
);
userData = {
assembly = "NPUSHB[ ]	/* 36 values pushed */
0 0 3 1 3 0 1 128 0 1 1 132 4 1 3 3 2 97 0 2 2 42 3 78 4 4 4 15 4 14 37 17 16 5 8 25
CALL[ ]	/* CallFunction */";
};
width = 225;
}
);
note = semicolon;
unicode = 59;
},
{
glyphname = ellipsis;
kernLeft = period;
kernRight = period;
layers = (
{
layerId = m01;
shapes = (
{
closed = 1;
nodes = (
(457,-5,o),
(489,28,o),
(489,52,qs),
(489,76,o),
(457,109,o),
(432,109,qs),
(407,109,o),
(374,76,o),
(374,52,qs),
(374,28,o),
(407,-5,o),
(432,-5,qs)
);
},
{
closed = 1;
nodes = (
(89,-5,o),
(121,28,o),
(121,52,qs),
(121,76,o),
(89,109,o),
(64,109,qs),
(39,109,o),
(6,76,o),
(6,52,qs),
(6,28,o),
(39,-5,o),
(64,-5,qs)
);
},
{
closed = 1;
nodes = (
(273,-5,o),
(305,28,o),
(305,52,qs),
(305,76,o),
(273,109,o),
(248,109,qs),
(223,109,o),
(190,76,o),
(190,52,qs),
(190,28,o),
(223,-5,o),
(248,-5,qs)
);
}
);
userData = {
assembly = "NPUSHB[ ]	/* 44 values pushed */
4 2 2 0 0 1 97 8 5 7 3 6 5 1 1 34 1 78 24 24 12 12 0 0 24 35 24 34 30 28 12 23 12 22 18 16 0 11 0 10 36 9 8 23
CALL[ ]	/* CallFunction */";
};
width = 565;
}
);
note = ellipsis;
unicode = 8230;
},
{
glyphname = exclam;
layers = (
{
layerId = m01;
shapes = (
{
closed = 1;
nodes = (
(142,194,l),
(242,700,l),
(151,700,l),
(71,194,l)
);
},
{
closed = 1;
nodes = (
(115,-5,o),
(148,28,o),
(148,52,qs),
(148,76,o),
(115,109,o),
(91,109,qs),
(66,109,o),
(33,76,o),
(33,52,qs),
(33,28,o),
(66,-5,o),
(91,-5,qs)
);
}
);
userData = {
assembly = "NPUSHB[ ]	/* 37 values pushed */
0 1 0 2 0 1 2 128 0 0 0 33 77 0 2 2 3 97 4 1 3 3 34 3 78 4 4 4 15 4 14 37 17 16 5 8 25
CALL[ ]	/* CallFunction */";
};
width = 250;
}
);
note = exclam;
unicode = 33;
},
{
glyphname = exclamdown;
kernLeft = exclamdown;
kernRight = exclamdown;
layers = (
{
layerId = m01;
shapes = (
{
closed = 1;
nodes = (
(110,-143,l),
(190,363,l),
(119,363,l),
(19,-143,l)
);
},
{
closed = 1;
nodes = (
(195,448,o),
(228,481,o),
(228,505,qs),
(228,529,o),
(195,562,o),
(170,562,qs),
(146,562,o),
(113,529,o),
(113,505,qs),
(113,481,o),
(146,448,o),
(170,448,qs)
);
}
);
userData = {
assembly = "NPUSHB[ ]	/* 41 values pushed */
0 0 3 1 3 0 1 128 0 1 1 132 0 2 3 3 2 89 0 2 2 3 97 4 1 3 2 3 81 4 4 4 15 4 14 37 17 16 5 8 25
CALL[ ]	/* CallFunction */";
};
width = 250;
}
);
note = exclamdown;
unicode = 161;
},
{
glyphname = question;
kernLeft = question;
kernRight = question;
layers = (
{
layerId = m01;
shapes = (
{
closed = 1;
nodes = (
(209,196,l),
(231,299,l),
(316,299,o),
(379,327,qs),
(445,354,o),
(516,462,o),
(516,538,qs),
(516,618,o),
(413,712,o),
(327,712,qs),
(260,712,o),
(209,687,qs),
(154,662,o),
(84,571,o),
(74,512,q),
(153,512,l),
(164,571,o),
(251,641,o),
(315,641,qs),
(370,641,o),
(434,580,o),
(434,530,qs),
(434,464,o),
(403,427,qs),
(345,357,o),
(191,357,qs),
(162,357,l),
(137,196,l)
);
},
{
closed = 1;
nodes = (
(178,-5,o),
(210,28,o),
(210,52,qs),
(210,76,o),
(178,109,o),
(153,109,qs),
(128,109,o),
(95,76,o),
(95,52,qs),
(95,28,o),
(128,-5,o),
(153,-5,qs)
);
}
);
userData = {
assembly = "MPPEM[ ]	/* MeasurePixelPerEm */
PUSHB[ ]	/* 1 value pushed */
13
LT[ ]	/* LessThan */
IF[ ]	/* If */
NPUSHB[ ]	/* 45 values pushed */
0 2 1 0 1 2 0 128 0 5 4 6 4 5 114 0 0 0 4 5 0 4 105 0 1 1 3 97 0 3 3 39 77 0 6 6 7 97 8 1 7 7 34 7 78
ELSE[ ]	/* Else */
NPUSHB[ ]	/* 46 values pushed */
0 2 1 0 1 2 0 128 0 5 4 6 4 5 6 128 0 0 0 4 5 0 4 105 0 1 1 3 97 0 3 3 39 77 0 6 6 7 97 8 1 7 7 34 7 78
EIF[ ]	/* EndIf */
NPUSHB[ ]	/* 16 values pushed */
28 28 28 39 28 38 37 17 22 36 18 37 32 9 8 29
CALL[ ]	/* CallFunction */";
};
width = 516;
}
);
note = question;
unicode = 63;
},
{
glyphname = questiondown;
kernLeft = questiondown;
kernRight = questiondown;
layers = (
{
layerId = m01;
shapes = (
{
closed = 1;
nodes = (
(256,-164,o),
(364,-119,o),
(440,-28,o),
(451,36,q),
(372,36,l),
(361,-23,o),
(274,-93,o),
(210,-93,qs),
(155,-93,o),
(91,-32,o),
(91,18,qs),
(91,105,o),
(210,191,o),
(334,191,qs),
(363,191,l),
(388,352,l),
(316,352,l),
(294,249,l),
(222,249,o),
(93,203,o),
(9,96,o),
(9,10,qs),
(9,-70,o),
(112,-164,o),
(198,-164,qs)
);
},
{
closed = 1;
nodes = (
(397,439,o),
(430,472,o),
(430,496,qs),
(430,520,o),
(397,553,o),
(372,553,qs),
(347,553,o),
(315,520,o),
(315,496,qs),
(315,472,o),
(347,439,o),
(372,439,qs)
);
}
);
userData = {
assembly = "MPPEM[ ]	/* MeasurePixelPerEm */
PUSHB[ ]	/* 1 value pushed */
13
LT[ ]	/* LessThan */
IF[ ]	/* If */
NPUSHB[ ]	/* 49 values pushed */
0 1 7 0 0 1 114 0 4 2 3 2 4 3 128 0 6 9 1 7 1 6 7 105 0 0 0 2 4 0 2 106 0 3 5 5 3 89 0 3 3 5 97 8 1 5 3 5 81
ELSE[ ]	/* Else */
NPUSHB[ ]	/* 50 values pushed */
0 1 7 0 7 1 0 128 0 4 2 3 2 4 3 128 0 6 9 1 7 1 6 7 105 0 0 0 2 4 0 2 106 0 3 5 5 3 89 0 3 3 5 97 8 1 5 3 5 81
EIF[ ]	/* EndIf */
NPUSHB[ ]	/* 22 values pushed */
25 25 0 0 25 36 25 35 31 29 0 24 0 23 18 36 33 17 21 10 8 27
CALL[ ]	/* CallFunction */";
};
width = 516;
}
);
note = questiondown;
unicode = 191;
},
{
glyphname = periodcentered;
layers = (
{
layerId = m01;
shapes = (
{
closed = 1;
nodes = (
(140,285,o),
(172,318,o),
(172,342,qs),
(172,367,o),
(140,399,o),
(115,399,qs),
(90,399,o),
(57,367,o),
(57,342,qs),
(57,318,o),
(90,285,o),
(115,285,qs)
);
}
);
userData = {
assembly = "NPUSHB[ ]	/* 27 values pushed */
0 0 1 1 0 89 0 0 0 1 97 2 1 1 0 1 81 0 0 0 11 0 10 36 3 8 23
CALL[ ]	/* CallFunction */";
};
width = 196;
}
);
note = periodcentered;
unicode = 183;
},
{
glyphname = bullet;
layers = (
{
layerId = m01;
shapes = (
{
closed = 1;
nodes = (
(239,213,o),
(309,283,o),
(309,333,qs),
(309,384,o),
(239,454,o),
(188,454,qs),
(138,454,o),
(68,383,o),
(68,333,qs),
(68,284,o),
(139,213,o),
(188,213,qs)
);
}
);
userData = {
assembly = "NPUSHB[ ]	/* 27 values pushed */
0 0 1 1 0 89 0 0 0 1 97 2 1 1 0 1 81 0 0 0 11 0 10 36 3 8 23
CALL[ ]	/* CallFunction */";
};
width = 347;
}
);
note = bullet;
unicode = 8226;
},
{
glyphname = asterisk;
kernLeft = asterisk;
kernRight = asterisk;
layers = (
{
layerId = m01;
shapes = (
{
closed = 1;
nodes = (
(280,356,l),
(304,493,l),
(412,425,l),
(450,476,l),
(343,545,l),
(474,613,l),
(454,664,l),
(322,596,l),
(346,733,l),
(287,733,l),
(263,596,l),
(157,664,l),
(118,613,l),
(224,545,l),
(94,476,l),
(115,425,l),
(245,493,l),
(221,356,l)
);
}
);
userData = {
assembly = "NPUSHB[ ]	/* 32 values pushed */
15 14 13 12 11 10 9 6 5 4 3 2 1 13 1 0 1 76 0 0 1 0 133 0 1 1 118 24 23 2 8 24
CALL[ ]	/* CallFunction */";
};
width = 474;
}
);
note = asterisk;
unicode = 42;
},
{
glyphname = numbersign;
layers = (
{
layerId = m01;
shapes = (
{
closed = 1;
nodes = (
(180,0,l),
(257,197,l),
(471,197,l),
(394,0,l),
(474,0,l),
(551,197,l),
(713,197,l),
(727,272,l),
(580,272,l),
(644,435,l),
(799,435,l),
(811,509,l),
(673,509,l),
(750,706,l),
(670,706,l),
(593,509,l),
(379,509,l),
(455,706,l),
(376,706,l),
(299,509,l),
(133,509,l),
(120,435,l),
(270,435,l),
(206,272,l),
(49,272,l),
(36,197,l),
(177,197,l),
(100,0,l)
);
},
{
closed = 1;
nodes = (
(350,435,l),
(564,435,l),
(500,272,l),
(286,272,l)
);
}
);
userData = {
assembly = "MPPEM[ ]	/* MeasurePixelPerEm */
PUSHB[ ]	/* 1 value pushed */
39
LT[ ]	/* LessThan */
IF[ ]	/* If */
NPUSHB[ ]	/* 40 values pushed */
16 15 9 3 1 12 10 2 0 11 1 0 103 6 1 4 4 33 77 14 8 2 2 2 3 95 7 5 2 3 3 36 77 13 1 11 11 34 11 78
ELSE[ ]	/* Else */
NPUSHB[ ]	/* 38 values pushed */
7 5 2 3 14 8 2 2 1 3 2 104 16 15 9 3 1 12 10 2 0 11 1 0 103 6 1 4 4 33 77 13 1 11 11 34 11 78
EIF[ ]	/* EndIf */
NPUSHB[ ]	/* 30 values pushed */
28 28 28 31 28 31 30 29 27 26 25 24 23 22 21 20 19 18 17 17 17 17 17 17 17 17 16 17 8 31
CALL[ ]	/* CallFunction */";
};
width = 814;
}
);
note = numbersign;
unicode = 35;
},
{
glyphname = slash;
kernLeft = slash;
kernRight = slash;
layers = (
{
layerId = m01;
shapes = (
{
closed = 1;
nodes = (
(50,-95,l),
(453,764,l),
(370,764,l),
(-32,-95,l)
);
}
);
userData = {
assembly = "NPUSHB[ ]	/* 14 values pushed */
0 0 1 0 133 0 1 1 118 17 16 2 8 24
CALL[ ]	/* CallFunction */";
};
width = 391;
}
);
note = slash;
unicode = 47;
},
{
glyphname = backslash;
kernLeft = backslash;
kernRight = backslash;
layers = (
{
layerId = m01;
shapes = (
{
closed = 1;
nodes = (
(301,-95,l),
(202,764,l),
(119,764,l),
(219,-95,l)
);
}
);
userData = {
assembly = "NPUSHB[ ]	/* 14 values pushed */
0 0 1 0 133 0 1 1 118 17 16 2 8 24
CALL[ ]	/* CallFunction */";
};
width = 391;
}
);
note = backslash;
unicode = 92;
},
{
glyphname = periodcentered.loclCAT;
layers = (
{
layerId = m01;
shapes = (
{
closed = 1;
nodes = (
(106,285,o),
(138,318,o),
(138,342,qs),
(138,367,o),
(106,399,o),
(81,399,qs),
(56,399,o),
(23,367,o),
(23,342,qs),
(23,318,o),
(56,285,o),
(81,285,qs)
);
}
);
userData = {
assembly = "NPUSHB[ ]	/* 27 values pushed */
0 0 1 1 0 89 0 0 0 1 97 2 1 1 0 1 81 0 0 0 11 0 10 36 3 8 23
CALL[ ]	/* CallFunction */";
};
width = 127;
}
);
note = periodcentered.loclCAT;
},
{
glyphname = periodcentered.loclCAT.case;
layers = (
{
layerId = m01;
shapes = (
{
closed = 1;
nodes = (
(-109,293,o),
(-76,326,o),
(-76,350,qs),
(-76,375,o),
(-109,407,o),
(-133,407,qs),
(-158,407,o),
(-191,375,o),
(-191,350,qs),
(-191,326,o),
(-158,293,o),
(-133,293,qs)
);
}
);
userData = {
assembly = "NPUSHB[ ]	/* 27 values pushed */
0 0 1 1 0 89 0 0 0 1 97 2 1 1 0 1 81 0 0 0 11 0 10 36 3 8 23
CALL[ ]	/* CallFunction */";
};
width = 0;
}
);
note = periodcentered.loclCAT.case;
},
{
glyphname = hyphen;
kernLeft = hyphen;
kernRight = hyphen;
layers = (
{
layerId = m01;
shapes = (
{
closed = 1;
nodes = (
(457,255,l),
(469,326,l),
(73,326,l),
(61,255,l)
);
}
);
userData = {
assembly = "NPUSHB[ ]	/* 21 values pushed */
0 0 1 1 0 87 0 0 0 1 95 0 1 0 1 79 17 16 2 8 24
CALL[ ]	/* CallFunction */";
};
width = 514;
}
);
note = hyphen;
unicode = 45;
},
{
glyphname = endash;
kernLeft = hyphen;
kernRight = hyphen;
layers = (
{
layerId = m01;
shapes = (
{
closed = 1;
nodes = (
(584,255,l),
(597,326,l),
(73,326,l),
(61,255,l)
);
}
);
userData = {
assembly = "NPUSHB[ ]	/* 21 values pushed */
0 0 1 1 0 87 0 0 0 1 95 0 1 0 1 79 17 16 2 8 24
CALL[ ]	/* CallFunction */";
};
width = 642;
}
);
note = endash;
unicode = 8211;
},
{
glyphname = emdash;
kernLeft = hyphen;
kernRight = hyphen;
layers = (
{
layerId = m01;
shapes = (
{
closed = 1;
nodes = (
(789,255,l),
(801,326,l),
(73,326,l),
(61,255,l)
);
}
);
userData = {
assembly = "NPUSHB[ ]	/* 21 values pushed */
0 0 1 1 0 87 0 0 0 1 95 0 1 0 1 79 17 16 2 8 24
CALL[ ]	/* CallFunction */";
};
width = 847;
}
);
note = emdash;
unicode = 8212;
},
{
glyphname = underscore;
kernLeft = underscore;
kernRight = underscore;
layers = (
{
layerId = m01;
shapes = (
{
closed = 1;
nodes = (
(519,-115,l),
(532,-36,l),
(8,-36,l),
(-5,-115,l)
);
}
);
userData = {
assembly = "PUSHB[ ]	/* 2 values pushed */
6 100
WCVTP[ ]	/* WriteCVTInPixels */
NPUSHB[ ]	/* 21 values pushed */
0 0 1 1 0 87 0 0 0 1 95 0 1 0 1 79 17 16 2 8 24
CALL[ ]	/* CallFunction */
PUSHB[ ]	/* 2 values pushed */
6 0
WCVTP[ ]	/* WriteCVTInPixels */";
};
width = 641;
}
);
note = underscore;
unicode = 95;
},
{
glyphname = parenleft;
kernRight = parenleft;
layers = (
{
layerId = m01;
shapes = (
{
closed = 1;
nodes = (
(265,-145,l),
(267,-137,l),
(205,-63,o),
(136,123,o),
(136,226,qs),
(136,327,o),
(171,432,qs),
(207,536,o),
(340,726,o),
(432,803,q),
(433,811,l),
(347,811,l),
(257,736,o),
(192,642,qs),
(124,544,o),
(51,325,o),
(51,215,qs),
(51,106,o),
(120,-78,o),
(178,-145,q)
);
}
);
userData = {
assembly = "NPUSHB[ ]	/* 14 values pushed */
0 0 1 0 133 0 1 1 118 26 23 2 8 24
CALL[ ]	/* CallFunction */";
};
width = 373;
}
);
note = parenleft;
unicode = 40;
},
{
glyphname = parenright;
kernLeft = parenright;
layers = (
{
layerId = m01;
shapes = (
{
closed = 1;
nodes = (
(-30,-145,l),
(56,-145,l),
(146,-70,o),
(212,25,qs),
(279,122,o),
(351,341,o),
(351,451,qs),
(351,560,o),
(282,744,o),
(224,811,q),
(138,811,l),
(136,803,l),
(198,729,o),
(267,543,o),
(267,440,qs),
(267,339,o),
(232,234,qs),
(196,130,o),
(63,-60,o),
(-29,-137,q)
);
}
);
userData = {
assembly = "NPUSHB[ ]	/* 14 values pushed */
0 0 1 0 133 0 1 1 118 24 24 2 8 24
CALL[ ]	/* CallFunction */";
};
width = 373;
}
);
note = parenright;
unicode = 41;
},
{
glyphname = braceleft;
layers = (
{
layerId = m01;
shapes = (
{
closed = 1;
nodes = (
(302,-152,l),
(315,-80,l),
(277,-80,ls),
(240,-80,o),
(205,-51,o),
(205,-19,qs),
(205,1,o),
(218,49,o),
(232,88,qs),
(247,133,o),
(263,193,o),
(263,220,qs),
(263,306,o),
(175,329,q),
(175,331,l),
(259,349,o),
(317,467,o),
(317,564,qs),
(317,622,o),
(328,693,o),
(374,739,o),
(422,739,qs),
(460,739,l),
(472,811,l),
(419,811,ls),
(321,811,o),
(235,687,o),
(235,593,qs),
(235,551,ls),
(235,498,o),
(219,428,o),
(164,375,o),
(107,364,q),
(95,296,l),
(181,278,o),
(181,207,qs),
(181,176,o),
(165,120,o),
(150,83,qs),
(135,46,o),
(120,-9,o),
(120,-39,qs),
(120,-94,o),
(189,-152,o),
(249,-152,qs)
);
}
);
userData = {
assembly = "NPUSHB[ ]	/* 47 values pushed */
29 10 2 2 1 1 76 0 0 0 1 2 0 1 105 0 2 3 3 2 89 0 2 2 3 97 4 1 3 2 3 81 0 0 0 44 0 43 42 40 23 21 20 18 5 8 22
CALL[ ]	/* CallFunction */";
};
width = 424;
}
);
note = braceleft;
unicode = 123;
},
